{"glyphs":{"0":{"ha":847,"x_min":0,"x_max":0,"o":"m 424 -21 b 97 306 238 -21 97 120 l 97 694 b 424 1021 97 880 238 1021 b 750 694 609 1021 750 880 l 750 306 b 424 -21 750 120 609 -21 m 201 301 b 424 78 201 178 301 78 b 647 301 547 78 647 178 l 647 699 b 424 923 647 823 547 923 b 201 699 301 923 201 823 l 201 301 "},"1":{"ha":542,"x_min":0,"x_max":0,"o":"m 272 886 l 83 773 l 83 888 l 272 1000 l 375 1000 l 375 0 l 272 0 "},"2":{"ha":792,"x_min":0,"x_max":0,"o":"m 70 94 l 522 502 b 619 702 599 572 619 633 b 401 923 619 826 524 923 b 180 703 273 923 178 820 l 76 703 b 402 1021 76 885 217 1021 b 722 701 584 1021 722 880 b 581 419 722 576 678 506 l 225 99 l 722 99 l 722 1 l 69 1 "},"3":{"ha":768,"x_min":0,"x_max":0,"o":"m 366 -20 b 56 199 217 -20 98 63 l 153 228 b 365 78 186 128 269 76 b 579 305 498 81 579 171 b 363 531 579 441 492 531 b 251 503 327 531 285 520 l 199 585 l 543 902 l 95 902 l 95 1000 l 673 1000 l 673 901 l 380 621 b 685 305 562 622 685 492 b 366 -20 685 113 550 -20 "},"4":{"ha":819,"x_min":0,"x_max":0,"o":"m 538 194 l 69 194 l 69 291 l 404 1000 l 519 1000 l 184 291 l 538 291 l 538 583 l 640 583 l 640 291 l 749 291 l 749 194 l 640 194 l 640 0 l 538 0 "},"5":{"ha":802,"x_min":0,"x_max":0,"o":"m 392 -21 b 69 228 237 -21 109 83 l 167 255 b 395 79 194 147 292 79 b 631 315 528 79 631 187 b 395 549 631 447 522 549 b 191 441 301 549 232 503 l 98 480 l 128 1000 l 663 1000 l 663 902 l 222 902 l 201 569 b 404 645 256 617 329 645 b 733 315 588 645 733 499 b 392 -21 733 131 578 -21 "},"6":{"ha":862,"x_min":0,"x_max":0,"o":"m 435 -21 b 97 324 247 -21 97 129 l 97 671 b 443 1020 97 872 245 1020 b 722 878 557 1020 659 967 l 643 813 b 443 923 601 879 526 923 b 201 680 302 923 201 809 l 201 526 b 445 644 260 598 348 644 b 774 313 631 644 774 499 b 435 -21 774 128 621 -21 m 201 313 b 435 78 201 184 305 78 b 672 313 566 78 672 183 b 436 549 672 444 567 549 b 201 313 306 549 201 444 "},"7":{"ha":697,"x_min":0,"x_max":0,"o":"m 519 901 l 56 901 l 56 1000 l 628 1000 l 628 901 l 260 0 l 151 0 "},"8":{"ha":806,"x_min":0,"x_max":0,"o":"m 402 -21 b 83 281 215 -21 83 98 b 224 535 83 390 128 481 b 107 752 147 581 107 663 b 402 1021 107 919 230 1021 b 698 752 574 1021 698 919 b 582 535 698 662 660 581 b 723 281 675 481 723 389 b 402 -21 723 98 590 -21 m 191 281 b 402 77 191 149 276 77 b 615 281 528 77 615 149 b 402 484 615 413 530 484 b 191 281 274 484 191 413 m 215 752 b 402 583 215 640 291 583 b 590 752 513 583 590 640 b 402 920 590 864 513 920 b 215 752 291 920 215 864 "},"9":{"ha":862,"x_min":0,"x_max":0,"o":"m 426 1020 b 765 675 615 1020 765 870 l 765 328 b 419 -21 765 128 617 -21 b 140 122 305 -21 203 32 l 219 186 b 419 76 261 120 336 76 b 661 319 560 76 661 190 l 661 473 b 417 355 602 401 514 355 b 88 686 231 355 88 501 b 426 1020 88 871 241 1020 m 190 686 b 426 450 190 556 295 450 b 661 686 556 450 661 556 b 426 921 661 815 557 921 b 190 686 296 921 190 817 "},"\r":{"ha":833,"x_min":0,"x_max":0,"o":""}," ":{"ha":278,"x_min":0,"x_max":0,"o":""},"A":{"ha":880,"x_min":0,"x_max":0,"o":"m 372 1000 l 508 1000 l 852 0 l 746 0 l 662 242 l 217 242 l 134 0 l 28 0 m 628 338 l 439 885 l 251 338 "},"Á":{"ha":880,"x_min":0,"x_max":0,"o":"m 372 1000 l 508 1000 l 852 0 l 746 0 l 662 242 l 217 242 l 134 0 l 28 0 m 628 338 l 439 885 l 251 338 m 489 1333 l 576 1333 l 493 1118 l 406 1118 "},"Ă":{"ha":880,"x_min":0,"x_max":0,"o":"m 372 1000 l 508 1000 l 852 0 l 746 0 l 662 242 l 217 242 l 134 0 l 28 0 m 628 338 l 439 885 l 251 338 m 347 1268 b 441 1174 347 1216 389 1174 b 535 1268 494 1174 535 1216 l 620 1268 b 441 1089 620 1169 540 1089 b 262 1268 342 1089 262 1169 "},"Ắ":{"ha":880,"x_min":0,"x_max":0,"o":"m 372 1000 l 508 1000 l 852 0 l 746 0 l 662 242 l 217 242 l 134 0 l 28 0 m 628 338 l 439 885 l 251 338 m 346 1268 b 440 1174 346 1216 388 1174 b 535 1268 493 1174 535 1216 l 619 1268 b 440 1089 619 1169 540 1089 b 261 1268 341 1089 261 1169 m 478 1521 l 565 1521 l 482 1306 l 394 1306 "},"Ặ":{"ha":880,"x_min":0,"x_max":0,"o":"m 372 1000 l 508 1000 l 852 0 l 746 0 l 662 242 l 217 242 l 134 0 l 28 0 m 628 338 l 439 885 l 251 338 m 347 1268 b 441 1174 347 1216 389 1174 b 535 1268 494 1174 535 1216 l 620 1268 b 441 1089 620 1169 540 1089 b 262 1268 342 1089 262 1169 m 381 -151 l 499 -151 l 499 -266 l 381 -266 "},"Ằ":{"ha":880,"x_min":0,"x_max":0,"o":"m 372 1000 l 508 1000 l 852 0 l 746 0 l 662 242 l 217 242 l 134 0 l 28 0 m 628 338 l 439 885 l 251 338 m 346 1268 b 440 1174 346 1216 388 1174 b 535 1268 492 1174 535 1216 l 619 1268 b 440 1089 619 1169 540 1089 b 261 1268 341 1089 261 1169 m 402 1521 l 485 1306 l 398 1306 l 315 1521 "},"Ẳ":{"ha":880,"x_min":0,"x_max":0,"o":"m 372 1000 l 508 1000 l 852 0 l 746 0 l 662 242 l 217 242 l 134 0 l 28 0 m 628 338 l 439 885 l 251 338 m 346 1268 b 440 1174 346 1216 388 1174 b 535 1268 493 1174 535 1216 l 619 1268 b 440 1089 619 1169 540 1089 b 261 1268 341 1089 261 1169 m 308 1505 b 513 1491 365 1562 465 1574 b 424 1293 560 1405 500 1319 l 390 1340 b 449 1452 446 1366 472 1410 b 342 1451 426 1494 376 1481 l 308 1505 "},"Ẵ":{"ha":880,"x_min":0,"x_max":0,"o":"m 372 1000 l 508 1000 l 852 0 l 746 0 l 662 242 l 217 242 l 134 0 l 28 0 m 224 1319 b 326 1468 203 1402 244 1468 b 531 1390 405 1468 476 1390 b 565 1458 563 1390 576 1422 l 637 1458 b 535 1308 658 1376 618 1308 b 331 1386 456 1308 385 1386 b 297 1319 294 1386 285 1351 l 224 1319 m 334 1268 b 428 1174 334 1216 376 1174 b 523 1268 481 1174 523 1216 l 608 1268 b 428 1089 608 1169 528 1089 b 249 1268 329 1089 249 1169 m 628 338 l 439 885 l 251 338 "},"Â":{"ha":880,"x_min":0,"x_max":0,"o":"m 372 1000 l 508 1000 l 852 0 l 746 0 l 662 242 l 217 242 l 134 0 l 28 0 m 393 1306 l 488 1306 l 647 1118 l 542 1118 l 440 1238 l 338 1118 l 233 1118 m 628 338 l 439 885 l 251 338 "},"Ấ":{"ha":880,"x_min":0,"x_max":0,"o":"m 372 1000 l 508 1000 l 852 0 l 746 0 l 662 242 l 217 242 l 134 0 l 28 0 m 392 1306 l 487 1306 l 646 1118 l 542 1118 l 440 1238 l 337 1118 l 233 1118 m 628 338 l 439 885 l 251 338 m 706 1479 l 793 1479 l 710 1264 l 622 1264 "},"Ậ":{"ha":880,"x_min":0,"x_max":0,"o":"m 372 1000 l 508 1000 l 852 0 l 746 0 l 662 242 l 217 242 l 134 0 l 28 0 m 393 1306 l 488 1306 l 647 1118 l 542 1118 l 440 1238 l 338 1118 l 233 1118 m 628 338 l 439 885 l 251 338 m 381 -151 l 499 -151 l 499 -266 l 381 -266 "},"Ầ":{"ha":880,"x_min":0,"x_max":0,"o":"m 372 1000 l 508 1000 l 852 0 l 746 0 l 662 242 l 217 242 l 134 0 l 28 0 m 392 1306 l 487 1306 l 646 1118 l 542 1118 l 440 1238 l 337 1118 l 233 1118 m 628 338 l 439 885 l 251 338 m 624 1479 l 708 1264 l 620 1264 l 537 1479 "},"Ẩ":{"ha":880,"x_min":0,"x_max":0,"o":"m 372 1000 l 508 1000 l 852 0 l 746 0 l 662 242 l 217 242 l 134 0 l 28 0 m 393 1306 l 488 1306 l 647 1118 l 542 1118 l 440 1238 l 338 1118 l 233 1118 m 628 338 l 439 885 l 251 338 m 610 1328 b 815 1315 667 1385 767 1397 b 726 1117 863 1228 802 1143 l 692 1164 b 751 1276 748 1190 774 1234 b 644 1275 728 1317 678 1305 l 610 1328 "},"Ẫ":{"ha":880,"x_min":0,"x_max":0,"o":"m 372 1000 l 508 1000 l 852 0 l 746 0 l 662 242 l 217 242 l 134 0 l 28 0 m 391 1306 l 485 1306 l 644 1118 l 540 1118 l 438 1238 l 335 1118 l 231 1118 m 237 1352 b 338 1501 216 1435 256 1501 b 543 1422 417 1501 488 1422 b 577 1491 576 1422 589 1454 l 649 1491 b 547 1340 670 1409 631 1340 b 343 1419 469 1340 398 1419 b 309 1352 307 1419 298 1384 l 237 1352 m 628 338 l 439 885 l 251 338 "},"Ä":{"ha":880,"x_min":0,"x_max":0,"o":"m 372 1000 l 508 1000 l 852 0 l 746 0 l 662 242 l 217 242 l 134 0 l 28 0 m 628 338 l 439 885 l 251 338 m 253 1258 l 364 1258 l 364 1147 l 253 1147 m 517 1258 l 628 1258 l 628 1147 l 517 1147 "},"Ạ":{"ha":880,"x_min":0,"x_max":0,"o":"m 372 1000 l 508 1000 l 852 0 l 746 0 l 662 242 l 217 242 l 134 0 l 28 0 m 628 338 l 439 885 l 251 338 m 381 -151 l 499 -151 l 499 -266 l 381 -266 "},"À":{"ha":880,"x_min":0,"x_max":0,"o":"m 746 0 l 663 242 l 218 242 l 134 0 l 28 0 l 372 1000 l 508 1000 l 852 0 m 629 338 l 441 885 l 251 338 m 391 1333 l 474 1118 l 387 1118 l 303 1333 "},"Ả":{"ha":880,"x_min":0,"x_max":0,"o":"m 372 1000 l 508 1000 l 852 0 l 746 0 l 662 242 l 217 242 l 134 0 l 28 0 m 628 338 l 439 885 l 251 338 m 326 1328 b 530 1315 383 1385 482 1397 b 441 1117 578 1228 517 1143 l 408 1164 b 467 1276 463 1190 490 1234 b 359 1275 443 1317 393 1305 l 326 1328 "},"Ā":{"ha":880,"x_min":0,"x_max":0,"o":"m 372 1000 l 508 1000 l 852 0 l 746 0 l 662 242 l 217 242 l 134 0 l 28 0 m 628 338 l 439 885 l 251 338 m 267 1253 l 615 1253 l 615 1167 l 267 1167 "},"Ą":{"ha":880,"x_min":0,"x_max":0,"o":"m 372 1000 l 508 1000 l 852 0 b 694 -194 767 -51 694 -134 b 747 -252 694 -228 719 -252 b 811 -218 769 -252 792 -238 l 856 -273 b 739 -335 825 -314 781 -335 b 606 -199 665 -335 606 -271 b 740 19 606 -126 662 -46 l 662 242 l 217 242 l 134 0 l 28 0 m 628 338 l 439 885 l 251 338 "},"Å":{"ha":880,"x_min":0,"x_max":0,"o":"m 372 1000 l 508 1000 l 852 0 l 746 0 l 662 242 l 217 242 l 134 0 l 28 0 m 628 338 l 439 885 l 251 338 m 289 1233 b 441 1385 289 1317 358 1385 b 593 1233 526 1385 593 1317 b 441 1081 593 1149 526 1081 b 289 1233 358 1081 289 1149 m 365 1233 b 441 1157 365 1192 399 1157 b 517 1233 484 1157 517 1192 b 441 1310 517 1276 484 1310 b 365 1233 399 1310 365 1276 "},"Ã":{"ha":880,"x_min":0,"x_max":0,"o":"m 372 1000 l 508 1000 l 852 0 l 746 0 l 662 242 l 217 242 l 134 0 l 28 0 m 234 1166 b 335 1315 213 1249 253 1315 b 540 1236 415 1315 485 1236 b 574 1305 573 1236 586 1268 l 647 1305 b 544 1154 667 1223 628 1154 b 340 1233 466 1154 395 1233 b 306 1166 304 1233 295 1198 l 234 1166 m 628 338 l 439 885 l 251 338 "},"Æ":{"ha":1276,"x_min":0,"x_max":0,"o":"m 372 1000 l 1206 1000 l 1206 902 l 683 902 l 683 556 l 1123 556 l 1123 458 l 683 458 l 683 98 l 1206 98 l 1206 0 l 581 0 l 581 242 l 217 242 l 134 0 l 28 0 m 581 338 l 581 902 l 444 902 l 250 338 "},"B":{"ha":851,"x_min":0,"x_max":0,"o":"m 97 1000 l 483 1000 b 762 742 651 1000 762 884 b 644 531 762 651 717 572 b 810 281 749 485 810 397 b 515 0 810 107 692 0 l 97 0 m 490 98 b 705 279 612 98 705 165 b 509 477 705 390 622 477 l 200 477 l 200 98 m 483 574 b 656 744 578 574 656 644 b 483 903 656 838 583 903 l 200 903 l 200 574 "},"C":{"ha":994,"x_min":0,"x_max":0,"o":"m 502 -21 b 42 500 203 -21 42 192 b 502 1021 42 808 203 1021 b 938 692 734 1021 883 892 l 834 665 b 502 923 792 823 681 923 b 149 500 267 923 151 750 b 502 77 148 250 267 77 b 834 335 681 77 792 177 l 938 308 b 502 -21 883 108 734 -21 "},"Ć":{"ha":994,"x_min":0,"x_max":0,"o":"m 502 -21 b 42 500 203 -21 42 192 b 502 1021 42 808 203 1021 b 938 692 734 1021 883 892 l 834 665 b 502 923 792 823 681 923 b 149 500 267 923 151 750 b 502 77 148 250 267 77 b 834 335 681 77 792 177 l 938 308 b 502 -21 883 108 734 -21 m 551 1333 l 638 1333 l 555 1118 l 467 1118 "},"Č":{"ha":994,"x_min":0,"x_max":0,"o":"m 502 -21 b 42 500 203 -21 42 192 b 502 1021 42 808 203 1021 b 938 692 734 1021 883 892 l 834 665 b 502 923 792 823 681 923 b 149 500 267 923 151 750 b 502 77 148 250 267 77 b 834 335 681 77 792 177 l 938 308 b 502 -21 883 108 734 -21 m 426 1306 l 528 1185 l 631 1306 l 735 1306 l 576 1118 l 481 1118 l 322 1306 "},"Ç":{"ha":994,"x_min":0,"x_max":0,"o":"m 492 -333 b 403 -312 458 -333 429 -324 l 430 -241 b 483 -253 450 -249 469 -253 b 540 -199 519 -253 540 -226 b 448 -128 540 -156 494 -143 l 487 -21 b 42 500 198 -13 42 198 b 502 1021 42 808 203 1021 b 938 692 734 1021 883 892 l 834 665 b 502 923 792 823 681 923 b 149 500 267 923 151 750 b 502 77 148 250 267 77 b 834 335 681 77 792 177 l 938 308 b 563 -17 888 126 760 3 l 540 -83 b 624 -202 589 -105 624 -142 b 492 -333 624 -277 563 -333 "},"Ĉ":{"ha":994,"x_min":0,"x_max":0,"o":"m 502 -21 b 42 500 203 -21 42 192 b 502 1021 42 808 203 1021 b 938 692 734 1021 883 892 l 834 665 b 502 923 792 823 681 923 b 149 500 267 923 151 750 b 502 77 148 250 267 77 b 834 335 681 77 792 177 l 938 308 b 502 -21 883 108 734 -21 m 455 1306 l 549 1306 l 708 1118 l 604 1118 l 502 1238 l 399 1118 l 295 1118 "},"Ċ":{"ha":994,"x_min":0,"x_max":0,"o":"m 502 -21 b 42 500 203 -21 42 192 b 502 1021 42 808 203 1021 b 938 692 734 1021 883 892 l 834 665 b 502 923 792 823 681 923 b 149 500 267 923 151 750 b 502 77 148 250 267 77 b 834 335 681 77 792 177 l 938 308 b 502 -21 883 108 734 -21 m 454 1278 l 573 1278 l 573 1159 l 454 1159 "},"D":{"ha":933,"x_min":0,"x_max":0,"o":"m 97 1000 l 401 1000 b 529 994 422 1000 481 1000 b 872 500 757 963 872 755 b 529 6 872 244 757 38 b 401 0 483 0 420 0 l 97 0 m 401 98 b 519 106 438 98 487 100 b 764 500 694 137 764 301 b 519 894 764 702 692 863 b 401 902 487 900 437 902 l 203 902 l 203 98 "},"Ð":{"ha":924,"x_min":0,"x_max":0,"o":"m 14 544 l 89 544 l 89 1000 l 392 1000 b 521 994 413 1000 473 1000 b 864 500 749 963 864 755 b 521 6 864 244 749 38 b 392 0 474 0 412 0 l 89 0 l 89 456 l 14 456 m 392 98 b 510 106 430 98 478 100 b 756 500 685 137 756 301 b 510 894 756 702 684 863 b 392 902 478 900 428 902 l 194 902 l 194 544 l 451 544 l 451 456 l 194 456 l 194 98 "},"Ď":{"ha":933,"x_min":0,"x_max":0,"o":"m 97 1000 l 401 1000 b 529 994 422 1000 481 1000 b 872 500 757 963 872 755 b 529 6 872 244 757 38 b 401 0 483 0 420 0 l 97 0 m 401 98 b 519 106 438 98 487 100 b 764 500 694 137 764 301 b 519 894 764 702 692 863 b 401 902 487 900 437 902 l 203 902 l 203 98 m 307 1306 l 410 1185 l 512 1306 l 616 1306 l 457 1118 l 363 1118 l 203 1306 "},"Đ":{"ha":924,"x_min":0,"x_max":0,"o":"m 14 544 l 89 544 l 89 1000 l 392 1000 b 521 994 413 1000 473 1000 b 864 500 749 963 864 755 b 521 6 864 244 749 38 b 392 0 474 0 412 0 l 89 0 l 89 456 l 14 456 m 392 98 b 510 106 430 98 478 100 b 756 500 685 137 756 301 b 510 894 756 702 684 863 b 392 902 478 900 428 902 l 194 902 l 194 544 l 451 544 l 451 456 l 194 456 l 194 98 "},"E":{"ha":792,"x_min":0,"x_max":0,"o":"m 97 1000 l 722 1000 l 722 902 l 199 902 l 199 556 l 639 556 l 639 458 l 199 458 l 199 98 l 722 98 l 722 0 l 97 0 "},"É":{"ha":792,"x_min":0,"x_max":0,"o":"m 97 1000 l 722 1000 l 722 902 l 199 902 l 199 556 l 639 556 l 639 458 l 199 458 l 199 98 l 722 98 l 722 0 l 97 0 m 466 1333 l 553 1333 l 470 1118 l 383 1118 "},"Ě":{"ha":792,"x_min":0,"x_max":0,"o":"m 97 1000 l 722 1000 l 722 902 l 199 902 l 199 556 l 639 556 l 639 458 l 199 458 l 199 98 l 722 98 l 722 0 l 97 0 m 311 1306 l 414 1185 l 516 1306 l 620 1306 l 461 1118 l 367 1118 l 207 1306 "},"Ê":{"ha":792,"x_min":0,"x_max":0,"o":"m 97 1000 l 722 1000 l 722 902 l 199 902 l 199 556 l 639 556 l 639 458 l 199 458 l 199 98 l 722 98 l 722 0 l 97 0 m 355 1306 l 449 1306 l 608 1118 l 504 1118 l 402 1238 l 299 1118 l 195 1118 "},"Ế":{"ha":792,"x_min":0,"x_max":0,"o":"m 97 1000 l 722 1000 l 722 902 l 199 902 l 199 556 l 639 556 l 639 458 l 199 458 l 199 98 l 722 98 l 722 0 l 97 0 m 357 1306 l 451 1306 l 610 1118 l 506 1118 l 404 1238 l 301 1118 l 197 1118 m 670 1479 l 758 1479 l 674 1264 l 587 1264 "},"Ệ":{"ha":792,"x_min":0,"x_max":0,"o":"m 97 1000 l 722 1000 l 722 902 l 199 902 l 199 556 l 639 556 l 639 458 l 199 458 l 199 98 l 722 98 l 722 0 l 97 0 m 355 1306 l 449 1306 l 608 1118 l 504 1118 l 402 1238 l 299 1118 l 195 1118 m 351 -151 l 469 -151 l 469 -266 l 351 -266 "},"Ề":{"ha":792,"x_min":0,"x_max":0,"o":"m 97 1000 l 722 1000 l 722 902 l 199 902 l 199 556 l 639 556 l 639 458 l 199 458 l 199 98 l 722 98 l 722 0 l 97 0 m 385 1306 l 480 1306 l 639 1118 l 535 1118 l 433 1238 l 330 1118 l 226 1118 m 618 1479 l 701 1264 l 614 1264 l 531 1479 "},"Ể":{"ha":833,"x_min":0,"x_max":0,"o":"m 367 1306 l 462 1306 l 621 1118 l 517 1118 l 415 1238 l 312 1118 l 208 1118 m 97 1000 l 722 1000 l 722 902 l 199 902 l 199 556 l 639 556 l 639 458 l 199 458 l 199 98 l 722 98 l 722 0 l 97 0 m 585 1328 b 789 1315 642 1385 741 1397 b 700 1117 837 1228 776 1143 l 667 1164 b 726 1276 722 1190 749 1234 b 618 1275 702 1317 652 1305 l 585 1328 "},"Ễ":{"ha":792,"x_min":0,"x_max":0,"o":"m 97 1000 l 722 1000 l 722 902 l 199 902 l 199 556 l 639 556 l 639 458 l 199 458 l 199 98 l 722 98 l 722 0 l 97 0 m 360 1306 l 454 1306 l 613 1118 l 509 1118 l 407 1238 l 304 1118 l 200 1118 m 206 1352 b 307 1501 185 1435 225 1501 b 512 1422 386 1501 457 1422 b 546 1491 544 1422 558 1454 l 618 1491 b 516 1340 639 1409 599 1340 b 312 1419 438 1340 367 1419 b 278 1352 276 1419 267 1384 l 206 1352 "},"Ë":{"ha":792,"x_min":0,"x_max":0,"o":"m 97 1000 l 722 1000 l 722 902 l 199 902 l 199 556 l 639 556 l 639 458 l 199 458 l 199 98 l 722 98 l 722 0 l 97 0 m 208 1258 l 319 1258 l 319 1147 l 208 1147 m 472 1258 l 583 1258 l 583 1147 l 472 1147 "},"Ė":{"ha":792,"x_min":0,"x_max":0,"o":"m 97 1000 l 722 1000 l 722 902 l 199 902 l 199 556 l 639 556 l 639 458 l 199 458 l 199 98 l 722 98 l 722 0 l 97 0 m 355 1278 l 474 1278 l 474 1159 l 355 1159 "},"Ẹ":{"ha":833,"x_min":0,"x_max":0,"o":"m 351 -151 l 469 -151 l 469 -266 l 351 -266 m 97 1000 l 722 1000 l 722 902 l 199 902 l 199 556 l 639 556 l 639 458 l 199 458 l 199 98 l 722 98 l 722 0 l 97 0 "},"È":{"ha":792,"x_min":0,"x_max":0,"o":"m 97 1000 l 722 1000 l 722 902 l 199 902 l 199 556 l 639 556 l 639 458 l 199 458 l 199 98 l 722 98 l 722 0 l 97 0 m 392 1333 l 475 1118 l 388 1118 l 304 1333 "},"Ẻ":{"ha":792,"x_min":0,"x_max":0,"o":"m 97 1000 l 722 1000 l 722 902 l 199 902 l 199 556 l 639 556 l 639 458 l 199 458 l 199 98 l 722 98 l 722 0 l 97 0 m 303 1328 b 508 1315 360 1385 460 1397 b 419 1117 556 1228 495 1143 l 385 1164 b 444 1276 441 1190 467 1234 b 337 1275 421 1317 371 1305 l 303 1328 "},"Ē":{"ha":792,"x_min":0,"x_max":0,"o":"m 97 1000 l 722 1000 l 722 902 l 199 902 l 199 556 l 639 556 l 639 458 l 199 458 l 199 98 l 722 98 l 722 0 l 97 0 m 238 1253 l 586 1253 l 586 1167 l 238 1167 "},"Ę":{"ha":792,"x_min":0,"x_max":0,"o":"m 97 1000 l 722 1000 l 722 902 l 199 902 l 199 556 l 639 556 l 639 458 l 199 458 l 199 98 l 722 98 l 722 0 b 565 -194 638 -51 565 -134 b 617 -252 565 -228 590 -252 b 681 -218 639 -252 662 -238 l 726 -273 b 609 -335 695 -314 651 -335 b 476 -199 535 -335 476 -271 b 588 0 476 -133 522 -61 l 97 0 "},"Ẽ":{"ha":792,"x_min":0,"x_max":0,"o":"m 97 1000 l 722 1000 l 722 902 l 199 902 l 199 556 l 639 556 l 639 458 l 199 458 l 199 98 l 722 98 l 722 0 l 97 0 m 199 1131 b 300 1280 178 1214 218 1280 b 505 1201 379 1280 450 1201 b 539 1270 538 1201 551 1233 l 611 1270 b 509 1119 632 1188 592 1119 b 305 1198 431 1119 360 1198 b 271 1131 269 1198 260 1163 l 199 1131 "},"F":{"ha":699,"x_min":0,"x_max":0,"o":"m 97 1000 l 672 1000 l 672 898 l 199 898 l 199 551 l 588 551 l 588 449 l 199 449 l 199 0 l 97 0 "},"G":{"ha":979,"x_min":0,"x_max":0,"o":"m 498 -21 b 42 500 215 -21 42 183 b 498 1020 42 815 212 1020 b 898 745 710 1020 845 913 l 795 720 b 502 922 751 842 649 922 b 150 500 267 923 152 750 b 502 77 148 250 267 78 b 828 422 717 76 817 209 l 597 422 l 597 510 l 935 510 b 938 451 937 488 938 460 b 498 -21 938 181 792 -21 "},"Ğ":{"ha":979,"x_min":0,"x_max":0,"o":"m 498 -21 b 42 500 215 -21 42 183 b 498 1020 42 815 212 1020 b 898 745 710 1020 845 913 l 795 720 b 502 922 751 842 649 922 b 150 500 267 923 152 750 b 502 77 148 250 267 78 b 828 422 717 76 817 209 l 597 422 l 597 510 l 935 510 b 938 451 937 488 938 460 b 498 -21 938 181 792 -21 m 408 1268 b 502 1174 408 1216 450 1174 b 597 1268 555 1174 597 1216 l 681 1268 b 502 1089 681 1169 601 1089 b 323 1268 403 1089 323 1169 "},"Ĝ":{"ha":979,"x_min":0,"x_max":0,"o":"m 498 -21 b 42 500 215 -21 42 183 b 498 1020 42 815 212 1020 b 898 745 710 1020 845 913 l 795 720 b 502 922 751 842 649 922 b 150 500 267 923 152 750 b 502 77 148 250 267 78 b 828 422 717 76 817 209 l 597 422 l 597 510 l 935 510 b 938 451 937 488 938 460 b 498 -21 938 181 792 -21 m 440 1306 l 535 1306 l 694 1118 l 590 1118 l 488 1238 l 385 1118 l 281 1118 "},"Ģ":{"ha":979,"x_min":0,"x_max":0,"o":"m 498 -21 b 42 500 215 -21 42 183 b 498 1020 42 815 212 1020 b 898 745 710 1020 845 913 l 795 720 b 502 922 751 842 649 922 b 150 500 267 923 152 750 b 502 77 148 250 267 78 b 828 422 717 76 817 209 l 597 422 l 597 510 l 935 510 b 938 451 937 488 938 460 b 498 -21 938 181 792 -21 m 451 -328 b 513 -266 467 -328 515 -316 l 451 -266 l 451 -151 l 565 -151 l 565 -266 b 451 -382 565 -344 508 -382 "},"Ġ":{"ha":979,"x_min":0,"x_max":0,"o":"m 498 -21 b 42 500 215 -21 42 183 b 498 1020 42 815 212 1020 b 898 745 710 1020 845 913 l 795 720 b 502 922 751 842 649 922 b 150 500 267 923 152 750 b 502 77 148 250 267 78 b 828 422 717 76 817 209 l 597 422 l 597 510 l 935 510 b 938 451 937 488 938 460 b 498 -21 938 181 792 -21 m 453 1278 l 572 1278 l 572 1159 l 453 1159 "},"H":{"ha":951,"x_min":0,"x_max":0,"o":"m 97 1000 l 199 1000 l 199 549 l 752 549 l 752 1000 l 853 1000 l 853 0 l 752 0 l 752 451 l 199 451 l 199 0 l 97 0 "},"Ħ":{"ha":978,"x_min":0,"x_max":0,"o":"m 111 690 l 14 690 l 14 788 l 111 788 l 111 1000 l 213 1000 l 213 788 l 766 788 l 766 1000 l 867 1000 l 867 788 l 965 788 l 965 690 l 867 690 l 867 0 l 766 0 l 766 451 l 213 451 l 213 0 l 111 0 m 766 549 l 766 690 l 213 690 l 213 549 "},"Ĥ":{"ha":951,"x_min":0,"x_max":0,"o":"m 97 1000 l 199 1000 l 199 549 l 752 549 l 752 1000 l 853 1000 l 853 0 l 752 0 l 752 451 l 199 451 l 199 0 l 97 0 m 428 1306 l 522 1306 l 681 1118 l 577 1118 l 475 1238 l 372 1118 l 268 1118 "},"I":{"ha":324,"x_min":0,"x_max":0,"o":"m 111 1000 l 213 1000 l 213 0 l 111 0 "},"Í":{"ha":324,"x_min":0,"x_max":0,"o":"m 111 1000 l 213 1000 l 213 0 l 111 0 m 203 1333 l 291 1333 l 208 1118 l 120 1118 "},"Î":{"ha":324,"x_min":0,"x_max":0,"o":"m 111 1000 l 213 1000 l 213 0 l 111 0 m 114 1306 l 208 1306 l 367 1118 l 263 1118 l 161 1238 l 58 1118 l -46 1118 "},"Ï":{"ha":324,"x_min":0,"x_max":0,"o":"m 111 1000 l 213 1000 l 213 0 l 111 0 m -26 1258 l 85 1258 l 85 1147 l -26 1147 m 239 1258 l 350 1258 l 350 1147 l 239 1147 "},"İ":{"ha":324,"x_min":0,"x_max":0,"o":"m 111 1000 l 213 1000 l 213 0 l 111 0 m 103 1278 l 222 1278 l 222 1159 l 103 1159 "},"Ị":{"ha":324,"x_min":0,"x_max":0,"o":"m 111 1000 l 213 1000 l 213 0 l 111 0 m 103 -151 l 222 -151 l 222 -266 l 103 -266 "},"Ì":{"ha":324,"x_min":0,"x_max":0,"o":"m 111 1000 l 213 1000 l 213 0 l 111 0 m 121 1333 l 204 1118 l 117 1118 l 33 1333 "},"Ỉ":{"ha":324,"x_min":0,"x_max":0,"o":"m 111 1000 l 213 1000 l 213 0 l 111 0 m 41 1328 b 245 1315 98 1385 197 1397 b 156 1117 293 1228 233 1143 l 123 1164 b 182 1276 178 1190 205 1234 b 74 1275 158 1317 108 1305 l 41 1328 "},"Ī":{"ha":324,"x_min":0,"x_max":0,"o":"m 111 1000 l 213 1000 l 213 0 l 111 0 m -12 1253 l 336 1253 l 336 1167 l -12 1167 "},"Į":{"ha":324,"x_min":0,"x_max":0,"o":"m 100 -335 b -33 -199 26 -335 -33 -271 b 111 27 -33 -123 28 -38 l 111 1000 l 213 1000 l 213 0 b 56 -194 128 -51 56 -134 b 108 -252 56 -228 81 -252 b 172 -218 130 -252 153 -238 l 217 -273 b 100 -335 186 -314 142 -335 "},"Ĩ":{"ha":324,"x_min":0,"x_max":0,"o":"m 111 1000 l 213 1000 l 213 0 l 111 0 m -44 1131 b 57 1280 -65 1214 -25 1280 b 262 1201 136 1280 207 1201 b 296 1270 294 1201 308 1233 l 368 1270 b 266 1119 389 1188 349 1119 b 62 1198 188 1119 117 1198 b 28 1131 26 1198 17 1163 l -44 1131 "},"J":{"ha":644,"x_min":0,"x_max":0,"o":"m 268 -20 b 0 184 134 -20 33 60 l 102 208 b 267 78 119 135 185 78 b 409 158 319 78 378 101 b 429 308 429 198 429 242 l 429 1000 l 532 1000 l 532 308 b 499 106 532 224 535 169 b 268 -20 451 21 366 -20 "},"Ĵ":{"ha":644,"x_min":0,"x_max":0,"o":"m 268 -20 b 0 184 134 -20 33 60 l 102 208 b 267 78 119 135 185 78 b 409 158 319 78 378 101 b 429 308 429 198 429 242 l 429 1000 l 532 1000 l 532 308 b 499 106 532 224 535 169 b 268 -20 451 21 366 -20 m 433 1306 l 527 1306 l 686 1118 l 582 1118 l 480 1238 l 377 1118 l 273 1118 "},"K":{"ha":824,"x_min":0,"x_max":0,"o":"m 97 1000 l 199 1000 l 199 528 l 656 1000 l 786 1000 l 320 517 l 824 0 l 691 0 l 199 500 l 199 0 l 97 0 "},"Ķ":{"ha":824,"x_min":0,"x_max":0,"o":"m 97 1000 l 199 1000 l 199 528 l 656 1000 l 786 1000 l 320 517 l 824 0 l 691 0 l 199 500 l 199 0 l 97 0 m 378 -328 b 440 -266 395 -328 443 -316 l 378 -266 l 378 -151 l 493 -151 l 493 -266 b 378 -382 493 -344 436 -382 "},"L":{"ha":709,"x_min":0,"x_max":0,"o":"m 111 1000 l 213 1000 l 213 98 l 688 98 l 688 0 l 111 0 "},"Ĺ":{"ha":709,"x_min":0,"x_max":0,"o":"m 111 1000 l 213 1000 l 213 98 l 688 98 l 688 0 l 111 0 m 203 1333 l 291 1333 l 208 1118 l 120 1118 "},"Ľ":{"ha":709,"x_min":0,"x_max":0,"o":"m 111 1000 l 213 1000 l 213 98 l 688 98 l 688 0 l 111 0 m 519 1083 l 607 1083 l 524 868 l 436 868 "},"Ļ":{"ha":709,"x_min":0,"x_max":0,"o":"m 111 1000 l 213 1000 l 213 98 l 688 98 l 688 0 l 111 0 m 342 -328 b 404 -266 359 -328 407 -316 l 342 -266 l 342 -151 l 457 -151 l 457 -266 b 342 -382 457 -344 400 -382 "},"Ł":{"ha":718,"x_min":0,"x_max":0,"o":"m 120 318 l 58 283 l 58 397 l 120 433 l 120 1000 l 222 1000 l 222 492 l 468 633 l 468 519 l 222 377 l 222 98 l 697 98 l 697 0 l 120 0 "},"M":{"ha":1167,"x_min":0,"x_max":0,"o":"m 97 1000 l 191 1000 l 584 159 l 975 1000 l 1070 1000 l 1070 1 l 973 1 l 973 772 l 617 0 l 551 0 l 195 772 l 195 0 l 97 0 "},"N":{"ha":951,"x_min":0,"x_max":0,"o":"m 97 1000 l 200 1000 l 751 181 l 751 1000 l 853 1000 l 853 0 l 751 0 l 200 820 l 200 0 l 97 0 "},"Ń":{"ha":951,"x_min":0,"x_max":0,"o":"m 97 1000 l 200 1000 l 751 181 l 751 1000 l 853 1000 l 853 0 l 751 0 l 200 820 l 200 0 l 97 0 m 528 1333 l 615 1333 l 532 1118 l 444 1118 "},"Ň":{"ha":951,"x_min":0,"x_max":0,"o":"m 97 1000 l 200 1000 l 751 181 l 751 1000 l 853 1000 l 853 0 l 751 0 l 200 820 l 200 0 l 97 0 m 390 1306 l 492 1185 l 594 1306 l 699 1306 l 540 1118 l 445 1118 l 285 1306 "},"Ņ":{"ha":951,"x_min":0,"x_max":0,"o":"m 97 1000 l 200 1000 l 751 181 l 751 1000 l 853 1000 l 853 0 l 751 0 l 200 820 l 200 0 l 97 0 m 432 -328 b 494 -266 449 -328 497 -316 l 432 -266 l 432 -151 l 547 -151 l 547 -266 b 432 -382 547 -344 490 -382 "},"Ñ":{"ha":951,"x_min":0,"x_max":0,"o":"m 97 1000 l 200 1000 l 751 181 l 751 1000 l 853 1000 l 853 0 l 751 0 l 200 820 l 200 0 l 97 0 m 288 1131 b 389 1280 267 1214 307 1280 b 594 1201 468 1280 539 1201 b 628 1270 626 1201 640 1233 l 700 1270 b 598 1119 721 1188 681 1119 b 394 1198 519 1119 449 1198 b 360 1131 358 1198 349 1163 l 288 1131 "},"Ŋ":{"ha":951,"x_min":0,"x_max":0,"o":"m 853 1000 l 853 -128 b 713 -276 853 -229 809 -276 b 638 -267 689 -276 666 -274 l 638 -183 b 685 -187 660 -185 673 -187 b 763 -87 741 -187 763 -163 b 716 52 763 -41 750 -1 l 200 820 l 200 0 l 97 0 l 97 1000 l 200 1000 l 751 181 l 751 1000 "},"O":{"ha":1005,"x_min":0,"x_max":0,"o":"m 502 -21 b 42 500 203 -21 42 192 b 502 1021 42 808 203 1021 b 963 500 801 1021 963 808 b 502 -21 963 192 801 -21 m 150 500 b 502 77 148 250 267 78 b 855 500 737 76 855 250 b 502 923 855 750 737 922 b 150 500 267 924 152 750 "},"Ó":{"ha":1005,"x_min":0,"x_max":0,"o":"m 502 -21 b 42 500 203 -21 42 192 b 502 1021 42 808 203 1021 b 963 500 801 1021 963 808 b 502 -21 963 192 801 -21 m 150 500 b 502 77 148 250 267 78 b 855 500 737 76 855 250 b 502 923 855 750 737 922 b 150 500 267 924 152 750 m 553 1333 l 641 1333 l 558 1118 l 470 1118 "},"Ô":{"ha":1005,"x_min":0,"x_max":0,"o":"m 502 -21 b 42 500 203 -21 42 192 b 502 1021 42 808 203 1021 b 963 500 801 1021 963 808 b 502 -21 963 192 801 -21 m 150 500 b 502 77 148 250 267 78 b 855 500 737 76 855 250 b 502 923 855 750 737 922 b 150 500 267 924 152 750 m 454 1306 l 549 1306 l 708 1118 l 603 1118 l 501 1238 l 399 1118 l 294 1118 "},"Ố":{"ha":1005,"x_min":0,"x_max":0,"o":"m 502 -21 b 42 500 203 -21 42 192 b 502 1021 42 808 203 1021 b 963 500 801 1021 963 808 b 502 -21 963 192 801 -21 m 150 500 b 502 77 148 250 267 78 b 855 500 737 76 855 250 b 502 923 855 750 737 922 b 150 500 267 924 152 750 m 463 1306 l 558 1306 l 717 1118 l 613 1118 l 510 1238 l 408 1118 l 303 1118 m 776 1479 l 864 1479 l 781 1264 l 693 1264 "},"Ộ":{"ha":1005,"x_min":0,"x_max":0,"o":"m 502 -21 b 42 500 203 -21 42 192 b 502 1021 42 808 203 1021 b 963 500 801 1021 963 808 b 502 -21 963 192 801 -21 m 150 500 b 502 77 148 250 267 78 b 855 500 737 76 855 250 b 502 923 855 750 737 922 b 150 500 267 924 152 750 m 454 1306 l 549 1306 l 708 1118 l 603 1118 l 501 1238 l 399 1118 l 294 1118 m 443 -151 l 562 -151 l 562 -266 l 443 -266 "},"Ồ":{"ha":1005,"x_min":0,"x_max":0,"o":"m 502 -21 b 42 500 203 -21 42 192 b 502 1021 42 808 203 1021 b 963 500 801 1021 963 808 b 502 -21 963 192 801 -21 m 150 500 b 502 77 148 250 267 78 b 855 500 737 76 855 250 b 502 923 855 750 737 922 b 150 500 267 924 152 750 m 455 1306 l 549 1306 l 708 1118 l 604 1118 l 502 1238 l 399 1118 l 295 1118 m 688 1479 l 771 1264 l 683 1264 l 600 1479 "},"Ổ":{"ha":1005,"x_min":0,"x_max":0,"o":"m 502 -21 b 42 500 203 -21 42 192 b 502 1021 42 808 203 1021 b 963 500 801 1021 963 808 b 502 -21 963 192 801 -21 m 150 500 b 502 77 148 250 267 78 b 855 500 737 76 855 250 b 502 923 855 750 737 922 b 150 500 267 924 152 750 m 472 1306 l 566 1306 l 725 1118 l 621 1118 l 519 1238 l 416 1118 l 312 1118 m 689 1328 b 893 1315 746 1385 845 1397 b 804 1117 941 1228 881 1143 l 771 1164 b 830 1276 826 1190 853 1234 b 722 1275 806 1317 756 1305 l 689 1328 "},"Ỗ":{"ha":1005,"x_min":0,"x_max":0,"o":"m 502 -21 b 42 500 203 -21 42 192 b 502 1021 42 808 203 1021 b 963 500 801 1021 963 808 b 502 -21 963 192 801 -21 m 150 500 b 502 77 148 250 267 78 b 855 500 737 76 855 250 b 502 923 855 750 737 922 b 150 500 267 924 152 750 m 450 1306 l 544 1306 l 703 1118 l 599 1118 l 497 1238 l 394 1118 l 290 1118 m 296 1352 b 397 1501 275 1435 315 1501 b 602 1422 476 1501 547 1422 b 636 1491 635 1422 648 1454 l 708 1491 b 606 1340 729 1409 690 1340 b 402 1419 528 1340 457 1419 b 368 1352 366 1419 357 1384 l 296 1352 "},"Ö":{"ha":1005,"x_min":0,"x_max":0,"o":"m 502 -21 b 42 500 203 -21 42 192 b 502 1021 42 808 203 1021 b 963 500 801 1021 963 808 b 502 -21 963 192 801 -21 m 150 500 b 502 77 148 250 267 78 b 855 500 737 76 855 250 b 502 923 855 750 737 922 b 150 500 267 924 152 750 m 315 1258 l 426 1258 l 426 1147 l 315 1147 m 579 1258 l 690 1258 l 690 1147 l 579 1147 "},"Ọ":{"ha":1005,"x_min":0,"x_max":0,"o":"m 502 -21 b 42 500 203 -21 42 192 b 502 1021 42 808 203 1021 b 963 500 801 1021 963 808 b 502 -21 963 192 801 -21 m 150 500 b 502 77 148 250 267 78 b 855 500 737 76 855 250 b 502 923 855 750 737 922 b 150 500 267 924 152 750 m 432 -151 l 551 -151 l 551 -266 l 432 -266 "},"Ò":{"ha":1005,"x_min":0,"x_max":0,"o":"m 502 -21 b 42 500 203 -21 42 192 b 502 1021 42 808 203 1021 b 963 500 801 1021 963 808 b 502 -21 963 192 801 -21 m 150 500 b 502 77 148 250 267 78 b 855 500 737 76 855 250 b 502 923 855 750 737 922 b 150 500 267 924 152 750 m 460 1333 l 544 1118 l 456 1118 l 373 1333 "},"Ỏ":{"ha":1005,"x_min":0,"x_max":0,"o":"m 502 -21 b 42 500 203 -21 42 192 b 502 1021 42 808 203 1021 b 963 500 801 1021 963 808 b 502 -21 963 192 801 -21 m 150 500 b 502 77 148 250 267 78 b 855 500 737 76 855 250 b 502 923 855 750 737 922 b 150 500 267 924 152 750 m 411 1328 b 615 1315 468 1385 567 1397 b 526 1117 663 1228 603 1143 l 493 1164 b 552 1276 549 1190 575 1234 b 444 1275 528 1317 478 1305 l 411 1328 "},"Ơ":{"ha":1005,"x_min":0,"x_max":0,"o":"m 502 -21 b 42 500 203 -21 42 192 b 502 1021 42 808 203 1021 b 630 1006 548 1021 590 1016 l 647 1002 b 733 1006 683 993 708 994 b 780 1127 782 1029 784 1077 l 865 1127 b 812 955 876 1051 866 990 b 777 939 801 949 790 943 b 963 500 899 850 963 694 b 502 -21 963 192 801 -21 m 150 500 b 502 77 148 250 267 78 b 855 500 737 76 855 250 b 502 923 855 750 737 922 b 150 500 267 924 152 750 "},"Ớ":{"ha":1005,"x_min":0,"x_max":0,"o":"m 865 1127 b 812 955 876 1051 866 990 b 777 939 801 949 790 943 b 963 500 899 850 963 694 b 502 -21 963 192 801 -21 b 42 500 203 -21 42 192 b 502 1021 42 808 203 1021 b 630 1006 548 1021 590 1016 l 647 1002 b 733 1006 683 993 708 994 b 780 1127 782 1029 784 1077 l 865 1127 m 150 500 b 502 77 148 250 267 78 b 855 500 737 76 855 250 b 502 923 855 750 737 922 b 150 500 267 924 152 750 m 553 1333 l 641 1333 l 558 1118 l 470 1118 "},"Ợ":{"ha":1005,"x_min":0,"x_max":0,"o":"m 502 -21 b 42 500 203 -21 42 192 b 502 1021 42 808 203 1021 b 630 1006 548 1021 590 1016 l 647 1002 b 733 1006 683 993 708 994 b 780 1127 782 1029 784 1077 l 865 1127 b 812 955 876 1051 866 990 b 777 939 801 949 790 943 b 963 500 899 850 963 694 b 502 -21 963 192 801 -21 m 150 500 b 502 77 148 250 267 78 b 855 500 737 76 855 250 b 502 923 855 750 737 922 b 150 500 267 924 152 750 m 449 -151 l 567 -151 l 567 -266 l 449 -266 "},"Ờ":{"ha":1005,"x_min":0,"x_max":0,"o":"m 865 1127 b 812 955 876 1051 866 990 b 777 939 801 949 790 943 b 963 500 899 850 963 694 b 502 -21 963 192 801 -21 b 42 500 203 -21 42 192 b 502 1021 42 808 203 1021 b 630 1006 548 1021 590 1016 l 647 1002 b 733 1006 683 993 708 994 b 780 1127 782 1029 784 1077 l 865 1127 m 150 500 b 502 77 148 250 267 78 b 855 500 737 76 855 250 b 502 923 855 750 737 922 b 150 500 267 924 152 750 m 460 1333 l 544 1118 l 456 1118 l 373 1333 "},"Ở":{"ha":1005,"x_min":0,"x_max":0,"o":"m 502 -21 b 42 500 203 -21 42 192 b 502 1021 42 808 203 1021 b 630 1006 548 1021 590 1016 l 647 1002 b 733 1006 683 993 708 994 b 780 1127 782 1029 784 1077 l 865 1127 b 812 955 876 1051 866 990 b 777 939 801 949 790 943 b 963 500 899 850 963 694 b 502 -21 963 192 801 -21 m 150 500 b 502 77 148 250 267 78 b 855 500 737 76 855 250 b 502 923 855 750 737 922 b 150 500 267 924 152 750 m 411 1328 b 615 1315 468 1385 567 1397 b 526 1117 663 1228 603 1143 l 493 1164 b 552 1276 549 1190 575 1234 b 444 1275 528 1317 478 1305 l 411 1328 "},"Ỡ":{"ha":1005,"x_min":0,"x_max":0,"o":"m 502 -21 b 42 500 203 -21 42 192 b 502 1021 42 808 203 1021 b 630 1006 548 1021 590 1016 l 647 1002 b 733 1006 683 993 708 994 b 780 1127 782 1029 784 1077 l 865 1127 b 812 955 876 1051 866 990 b 777 939 801 949 790 943 b 963 500 899 850 963 694 b 502 -21 963 192 801 -21 m 150 500 b 502 77 148 250 267 78 b 855 500 737 76 855 250 b 502 923 855 750 737 922 b 150 500 267 924 152 750 m 296 1131 b 397 1280 275 1214 315 1280 b 602 1201 476 1280 547 1201 b 636 1270 635 1201 648 1233 l 708 1270 b 606 1119 729 1188 690 1119 b 402 1198 528 1119 457 1198 b 368 1131 366 1198 357 1163 l 296 1131 "},"Ő":{"ha":1005,"x_min":0,"x_max":0,"o":"m 502 -21 b 42 500 203 -21 42 192 b 502 1021 42 808 203 1021 b 963 500 801 1021 963 808 b 502 -21 963 192 801 -21 m 150 500 b 502 77 148 250 267 78 b 855 500 737 76 855 250 b 502 923 855 750 737 922 b 150 500 267 924 152 750 m 408 1333 l 496 1333 l 413 1118 l 325 1118 m 668 1333 l 756 1333 l 672 1118 l 585 1118 "},"Ō":{"ha":1005,"x_min":0,"x_max":0,"o":"m 502 -21 b 42 500 203 -21 42 192 b 502 1021 42 808 203 1021 b 963 500 801 1021 963 808 b 502 -21 963 192 801 -21 m 150 500 b 502 77 148 250 267 78 b 855 500 737 76 855 250 b 502 923 855 750 737 922 b 150 500 267 924 152 750 m 328 1253 l 676 1253 l 676 1167 l 328 1167 "},"Ø":{"ha":1005,"x_min":0,"x_max":0,"o":"m 26 48 l 131 163 b 42 500 72 251 42 367 b 502 1021 42 808 203 1021 b 816 906 634 1021 740 979 l 915 1015 l 988 949 l 879 829 b 963 500 935 742 963 629 b 502 -21 963 192 801 -21 b 197 87 374 -21 272 18 l 99 -18 m 150 500 b 206 242 149 399 168 312 l 746 828 b 502 923 688 888 606 922 b 150 500 267 924 152 750 m 265 164 b 502 77 324 109 402 78 b 855 500 737 76 855 250 b 802 749 855 597 838 681 l 265 164 "},"Õ":{"ha":1005,"x_min":0,"x_max":0,"o":"m 502 -21 b 42 500 203 -21 42 192 b 502 1021 42 808 203 1021 b 963 500 801 1021 963 808 b 502 -21 963 192 801 -21 m 150 500 b 502 77 148 250 267 78 b 855 500 737 76 855 250 b 502 923 855 750 737 922 b 150 500 267 924 152 750 m 306 1131 b 408 1280 285 1214 326 1280 b 613 1201 487 1280 558 1201 b 647 1270 645 1201 658 1233 l 719 1270 b 617 1119 740 1188 700 1119 b 413 1198 538 1119 467 1198 b 378 1131 376 1198 367 1163 l 306 1131 "},"Œ":{"ha":1555,"x_min":0,"x_max":0,"o":"m 502 -21 b 42 500 203 -21 42 192 b 502 1021 42 808 203 1021 b 860 856 662 1021 783 960 l 860 1000 l 1485 1000 l 1485 902 l 963 902 l 963 556 l 1402 556 l 1402 458 l 963 458 l 963 98 l 1485 98 l 1485 0 l 860 0 l 860 144 b 502 -21 783 40 662 -21 m 150 500 b 502 77 148 250 267 78 b 855 500 737 76 855 250 b 502 923 855 750 737 922 b 150 500 267 924 152 750 "},"P":{"ha":839,"x_min":0,"x_max":0,"o":"m 97 1000 l 483 1000 b 553 994 503 1000 528 999 b 797 690 710 970 797 846 b 553 385 797 534 709 409 b 483 380 528 381 502 380 l 199 380 l 199 0 l 97 0 m 481 477 b 542 483 497 477 522 478 b 692 690 645 505 692 597 b 542 897 692 783 645 874 b 481 902 522 901 497 902 l 199 902 l 199 477 "},"Þ":{"ha":826,"x_min":0,"x_max":0,"o":"m 97 1000 l 200 1000 l 200 810 l 473 810 b 578 791 508 810 544 803 b 699 710 624 775 667 747 b 784 500 753 654 784 577 b 709 301 785 427 756 355 b 473 190 653 233 564 190 l 200 190 l 200 0 l 97 0 m 472 288 b 631 366 530 288 591 317 b 678 500 661 403 680 451 b 617 649 677 556 656 609 b 472 712 581 687 525 712 l 200 712 l 200 288 "},"Q":{"ha":1005,"x_min":0,"x_max":0,"o":"m 790 72 b 502 -21 717 13 620 -21 b 42 500 203 -21 42 192 b 502 1021 42 808 203 1021 b 963 500 801 1021 963 808 b 858 142 963 356 928 232 l 951 49 l 883 -20 m 150 500 b 502 77 148 250 267 78 b 717 144 590 77 662 101 l 616 245 l 685 315 l 783 217 b 855 500 831 290 855 388 b 502 923 855 750 737 922 b 150 500 267 924 152 750 "},"R":{"ha":876,"x_min":0,"x_max":0,"o":"m 97 1000 l 483 1000 b 553 994 503 1000 528 999 b 797 690 710 970 797 846 b 623 405 797 558 735 450 l 820 0 l 703 0 l 519 380 l 199 380 l 199 0 l 97 0 m 481 477 b 542 483 497 477 522 478 b 692 690 645 505 692 597 b 542 897 692 783 645 874 b 481 902 522 901 497 902 l 199 902 l 199 477 "},"Ŕ":{"ha":876,"x_min":0,"x_max":0,"o":"m 97 1000 l 483 1000 b 553 994 503 1000 528 999 b 797 690 710 970 797 846 b 623 405 797 558 735 450 l 820 0 l 703 0 l 519 380 l 199 380 l 199 0 l 97 0 m 481 477 b 542 483 497 477 522 478 b 692 690 645 505 692 597 b 542 897 692 783 645 874 b 481 902 522 901 497 902 l 199 902 l 199 477 m 442 1333 l 530 1333 l 447 1118 l 359 1118 "},"Ř":{"ha":876,"x_min":0,"x_max":0,"o":"m 97 1000 l 483 1000 b 553 994 503 1000 528 999 b 797 690 710 970 797 846 b 623 405 797 558 735 450 l 820 0 l 703 0 l 519 380 l 199 380 l 199 0 l 97 0 m 297 1306 l 400 1185 l 502 1306 l 606 1306 l 447 1118 l 353 1118 l 193 1306 m 481 477 b 542 483 497 477 522 478 b 692 690 645 505 692 597 b 542 897 692 783 645 874 b 481 902 522 901 497 902 l 199 902 l 199 477 "},"Ŗ":{"ha":876,"x_min":0,"x_max":0,"o":"m 97 1000 l 483 1000 b 553 994 503 1000 528 999 b 797 690 710 970 797 846 b 623 405 797 558 735 450 l 820 0 l 703 0 l 519 380 l 199 380 l 199 0 l 97 0 m 481 477 b 542 483 497 477 522 478 b 692 690 645 505 692 597 b 542 897 692 783 645 874 b 481 902 522 901 497 902 l 199 902 l 199 477 m 371 -328 b 433 -266 388 -328 435 -316 l 371 -266 l 371 -151 l 485 -151 l 485 -266 b 371 -382 485 -344 428 -382 "},"S":{"ha":856,"x_min":0,"x_max":0,"o":"m 444 -21 b 47 267 235 -21 81 90 l 151 285 b 449 77 184 155 299 77 b 706 269 597 77 706 151 b 552 431 706 372 622 410 l 299 506 b 85 746 176 542 85 612 b 427 1020 85 915 230 1021 b 804 728 627 1019 772 908 l 697 709 b 426 923 677 839 566 922 b 193 750 292 924 193 849 b 371 592 193 649 293 615 l 567 535 b 810 273 648 512 810 463 b 444 -21 810 87 653 -21 "},"Ś":{"ha":856,"x_min":0,"x_max":0,"o":"m 444 -21 b 47 267 235 -21 81 90 l 151 285 b 449 77 184 155 299 77 b 706 269 597 77 706 151 b 552 431 706 372 622 410 l 299 506 b 85 746 176 542 85 612 b 427 1020 85 915 230 1021 b 804 728 627 1019 772 908 l 697 709 b 426 923 677 839 566 922 b 193 750 292 924 193 849 b 371 592 193 649 293 615 l 567 535 b 810 273 648 512 810 463 b 444 -21 810 87 653 -21 m 474 1333 l 561 1333 l 478 1118 l 390 1118 "},"Š":{"ha":856,"x_min":0,"x_max":0,"o":"m 444 -21 b 47 267 235 -21 81 90 l 151 285 b 449 77 184 155 299 77 b 706 269 597 77 706 151 b 552 431 706 372 622 410 l 299 506 b 85 746 176 542 85 612 b 427 1020 85 915 230 1021 b 804 728 627 1019 772 908 l 697 709 b 426 923 677 839 566 922 b 193 750 292 924 193 849 b 371 592 193 649 293 615 l 567 535 b 810 273 648 512 810 463 b 444 -21 810 87 653 -21 m 343 1306 l 446 1185 l 548 1306 l 652 1306 l 493 1118 l 399 1118 l 239 1306 "},"Ş":{"ha":856,"x_min":0,"x_max":0,"o":"m 424 -333 b 336 -312 391 -333 362 -324 l 363 -241 b 416 -253 383 -249 401 -253 b 473 -199 452 -253 473 -226 b 381 -128 473 -156 427 -143 l 419 -20 b 47 267 223 -12 79 97 l 151 285 b 449 77 184 155 299 77 b 706 269 597 77 706 151 b 552 431 706 372 622 410 l 299 506 b 85 746 176 542 85 612 b 427 1020 85 915 230 1021 b 804 728 627 1019 772 908 l 697 709 b 426 923 677 839 566 922 b 193 750 292 924 193 849 b 371 592 193 649 293 615 l 567 535 b 810 273 648 512 810 463 b 496 -19 810 102 678 -2 l 472 -83 b 556 -202 522 -105 556 -142 b 424 -333 556 -277 496 -333 "},"Ŝ":{"ha":856,"x_min":0,"x_max":0,"o":"m 444 -21 b 47 267 235 -21 81 90 l 151 285 b 449 77 184 155 299 77 b 706 269 597 77 706 151 b 552 431 706 372 622 410 l 299 506 b 85 746 176 542 85 612 b 427 1020 85 915 230 1021 b 804 728 627 1019 772 908 l 697 709 b 426 923 677 839 566 922 b 193 750 292 924 193 849 b 371 592 193 649 293 615 l 567 535 b 810 273 648 512 810 463 b 444 -21 810 87 653 -21 m 392 1306 l 486 1306 l 645 1118 l 541 1118 l 439 1238 l 336 1118 l 232 1118 "},"Ș":{"ha":856,"x_min":0,"x_max":0,"o":"m 444 -21 b 47 267 235 -21 81 90 l 151 285 b 449 77 184 155 299 77 b 706 269 597 77 706 151 b 552 431 706 372 622 410 l 299 506 b 85 746 176 542 85 612 b 427 1020 85 915 230 1021 b 804 728 627 1019 772 908 l 697 709 b 426 923 677 839 566 922 b 193 750 292 924 193 849 b 371 592 193 649 293 615 l 567 535 b 810 273 648 512 810 463 b 444 -21 810 87 653 -21 m 405 -328 b 467 -266 422 -328 469 -316 l 405 -266 l 405 -151 l 519 -151 l 519 -266 b 405 -382 519 -344 463 -382 "},"ẞ":{"ha":983,"x_min":0,"x_max":0,"o":"m 583 -21 b 451 0 526 -21 488 -12 l 451 101 b 576 81 494 86 531 81 b 797 285 701 81 797 151 b 531 491 797 412 694 486 l 519 566 l 694 865 b 494 922 649 892 587 922 b 219 726 340 922 246 841 b 203 549 206 670 203 608 l 203 0 l 97 0 l 97 599 b 115 767 97 672 103 724 b 494 1021 168 960 333 1021 b 827 907 649 1021 757 955 l 637 570 b 899 283 767 553 899 460 b 583 -21 899 94 782 -21 "},"T":{"ha":828,"x_min":0,"x_max":0,"o":"m 363 902 l 14 902 l 14 1000 l 815 1000 l 815 902 l 465 902 l 465 0 l 363 0 "},"Ŧ":{"ha":828,"x_min":0,"x_max":0,"o":"m 109 551 l 363 551 l 363 902 l 14 902 l 14 1000 l 815 1000 l 815 902 l 465 902 l 465 551 l 720 551 l 720 449 l 465 449 l 465 0 l 363 0 l 363 449 l 109 449 "},"Ť":{"ha":828,"x_min":0,"x_max":0,"o":"m 363 902 l 14 902 l 14 1000 l 815 1000 l 815 902 l 465 902 l 465 0 l 363 0 m 311 1306 l 414 1185 l 516 1306 l 620 1306 l 461 1118 l 367 1118 l 207 1306 "},"Ţ":{"ha":828,"x_min":0,"x_max":0,"o":"m 363 902 l 14 902 l 14 1000 l 815 1000 l 815 902 l 465 902 l 465 0 l 451 0 l 419 -89 b 503 -208 468 -111 503 -149 b 371 -340 503 -283 442 -340 b 283 -318 338 -340 308 -331 l 309 -247 b 363 -260 329 -255 348 -260 b 419 -206 399 -260 419 -233 b 327 -135 419 -162 374 -149 l 376 0 l 363 0 "},"Ț":{"ha":828,"x_min":0,"x_max":0,"o":"m 363 902 l 14 902 l 14 1000 l 815 1000 l 815 902 l 465 902 l 465 0 l 363 0 m 357 -328 b 419 -266 374 -328 422 -316 l 357 -266 l 357 -151 l 472 -151 l 472 -266 b 357 -382 472 -344 415 -382 "},"U":{"ha":975,"x_min":0,"x_max":0,"o":"m 488 -21 b 97 361 259 -21 97 130 l 97 999 l 200 1000 l 200 374 b 488 76 200 166 359 76 b 775 374 617 76 775 167 l 775 1000 l 878 1000 l 878 361 b 488 -21 878 131 716 -21 "},"Ú":{"ha":975,"x_min":0,"x_max":0,"o":"m 488 -21 b 97 361 259 -21 97 130 l 97 999 l 200 1000 l 200 374 b 488 76 200 166 359 76 b 775 374 617 76 775 167 l 775 1000 l 878 1000 l 878 361 b 488 -21 878 131 716 -21 m 516 1333 l 603 1333 l 520 1118 l 433 1118 "},"Ŭ":{"ha":975,"x_min":0,"x_max":0,"o":"m 488 -21 b 97 361 259 -21 97 130 l 97 999 l 200 1000 l 200 374 b 488 76 200 166 359 76 b 775 374 617 76 775 167 l 775 1000 l 878 1000 l 878 361 b 488 -21 878 131 716 -21 m 393 1268 b 488 1174 393 1216 435 1174 b 582 1268 540 1174 582 1216 l 667 1268 b 488 1089 667 1169 587 1089 b 308 1268 388 1089 308 1169 "},"Û":{"ha":975,"x_min":0,"x_max":0,"o":"m 488 -21 b 97 361 259 -21 97 130 l 97 999 l 200 1000 l 200 374 b 488 76 200 166 359 76 b 775 374 617 76 775 167 l 775 1000 l 878 1000 l 878 361 b 488 -21 878 131 716 -21 m 440 1306 l 534 1306 l 693 1118 l 589 1118 l 487 1238 l 384 1118 l 280 1118 "},"Ü":{"ha":975,"x_min":0,"x_max":0,"o":"m 488 -21 b 97 361 259 -21 97 130 l 97 999 l 200 1000 l 200 374 b 488 76 200 166 359 76 b 775 374 617 76 775 167 l 775 1000 l 878 1000 l 878 361 b 488 -21 878 131 716 -21 m 299 1258 l 410 1258 l 410 1147 l 299 1147 m 564 1258 l 675 1258 l 675 1147 l 564 1147 "},"Ụ":{"ha":975,"x_min":0,"x_max":0,"o":"m 488 -21 b 97 361 259 -21 97 130 l 97 999 l 200 1000 l 200 374 b 488 76 200 166 359 76 b 775 374 617 76 775 167 l 775 1000 l 878 1000 l 878 361 b 488 -21 878 131 716 -21 m 438 -151 l 556 -151 l 556 -266 l 438 -266 "},"Ù":{"ha":975,"x_min":0,"x_max":0,"o":"m 488 -21 b 97 361 259 -21 97 130 l 97 999 l 200 1000 l 200 374 b 488 76 200 166 359 76 b 775 374 617 76 775 167 l 775 1000 l 878 1000 l 878 361 b 488 -21 878 131 716 -21 m 463 1333 l 546 1118 l 458 1118 l 375 1333 "},"Ủ":{"ha":975,"x_min":0,"x_max":0,"o":"m 488 -21 b 97 361 259 -21 97 130 l 97 999 l 200 1000 l 200 374 b 488 76 200 166 359 76 b 775 374 617 76 775 167 l 775 1000 l 878 1000 l 878 361 b 488 -21 878 131 716 -21 m 386 1328 b 590 1315 443 1385 542 1397 b 501 1117 638 1228 578 1143 l 468 1164 b 527 1276 524 1190 550 1234 b 419 1275 503 1317 453 1305 l 386 1328 "},"Ư":{"ha":975,"x_min":0,"x_max":0,"o":"m 488 -21 b 97 361 259 -21 97 130 l 97 999 l 200 1000 l 200 374 b 488 76 200 166 359 76 b 775 374 617 76 775 167 l 775 1000 l 806 1000 b 869 1004 826 1001 848 999 b 928 1125 931 1017 932 1073 l 1014 1125 b 961 953 1025 1049 1013 989 b 878 929 937 937 908 931 l 878 361 b 488 -21 878 131 716 -21 "},"Ứ":{"ha":975,"x_min":0,"x_max":0,"o":"m 488 -21 b 97 361 259 -21 97 130 l 97 999 l 200 1000 l 200 374 b 488 76 200 166 359 76 b 775 374 617 76 775 167 l 775 1000 l 806 1000 b 869 1004 826 1001 848 999 b 928 1125 931 1017 932 1073 l 1014 1125 b 961 953 1025 1049 1013 989 b 878 929 937 937 908 931 l 878 361 b 488 -21 878 131 716 -21 m 516 1333 l 603 1333 l 520 1118 l 433 1118 "},"Ự":{"ha":975,"x_min":0,"x_max":0,"o":"m 488 -21 b 97 361 259 -21 97 130 l 97 999 l 200 1000 l 200 374 b 488 76 200 166 359 76 b 775 374 617 76 775 167 l 775 1000 l 806 1000 b 869 1004 826 1001 848 999 b 928 1125 931 1017 932 1073 l 1014 1125 b 961 953 1025 1049 1013 989 b 878 929 937 937 908 931 l 878 361 b 488 -21 878 131 716 -21 m 435 -151 l 554 -151 l 554 -266 l 435 -266 "},"Ừ":{"ha":975,"x_min":0,"x_max":0,"o":"m 488 -21 b 97 361 259 -21 97 130 l 97 999 l 200 1000 l 200 374 b 488 76 200 166 359 76 b 775 374 617 76 775 167 l 775 1000 l 806 1000 b 869 1004 826 1001 848 999 b 928 1125 931 1017 932 1073 l 1014 1125 b 961 953 1025 1049 1013 989 b 878 929 937 937 908 931 l 878 361 b 488 -21 878 131 716 -21 m 463 1333 l 546 1118 l 458 1118 l 375 1333 "},"Ử":{"ha":975,"x_min":0,"x_max":0,"o":"m 488 -21 b 97 361 259 -21 97 130 l 97 999 l 200 1000 l 200 374 b 488 76 200 166 359 76 b 775 374 617 76 775 167 l 775 1000 l 806 1000 b 869 1004 826 1001 848 999 b 928 1125 931 1017 932 1073 l 1014 1125 b 961 953 1025 1049 1013 989 b 878 929 937 937 908 931 l 878 361 b 488 -21 878 131 716 -21 m 386 1328 b 590 1315 443 1385 542 1397 b 501 1117 638 1228 578 1143 l 468 1164 b 527 1276 524 1190 550 1234 b 419 1275 503 1317 453 1305 l 386 1328 "},"Ữ":{"ha":975,"x_min":0,"x_max":0,"o":"m 488 -21 b 97 361 259 -21 97 130 l 97 999 l 200 1000 l 200 374 b 488 76 200 166 359 76 b 775 374 617 76 775 167 l 775 1000 l 806 1000 b 869 1004 826 1001 848 999 b 928 1125 931 1017 932 1073 l 1014 1125 b 961 953 1025 1049 1013 989 b 878 929 937 937 908 931 l 878 361 b 488 -21 878 131 716 -21 m 288 1131 b 390 1280 267 1214 308 1280 b 594 1201 469 1280 540 1201 b 628 1270 627 1201 640 1233 l 701 1270 b 599 1119 722 1188 682 1119 b 394 1198 520 1119 449 1198 b 360 1131 358 1198 349 1163 l 288 1131 "},"Ű":{"ha":975,"x_min":0,"x_max":0,"o":"m 488 -21 b 97 361 259 -21 97 130 l 97 999 l 200 1000 l 200 374 b 488 76 200 166 359 76 b 775 374 617 76 775 167 l 775 1000 l 878 1000 l 878 361 b 488 -21 878 131 716 -21 m 385 1333 l 473 1333 l 390 1118 l 302 1118 m 645 1333 l 733 1333 l 649 1118 l 562 1118 "},"Ū":{"ha":975,"x_min":0,"x_max":0,"o":"m 488 -21 b 97 361 259 -21 97 130 l 97 999 l 200 1000 l 200 374 b 488 76 200 166 359 76 b 775 374 617 76 775 167 l 775 1000 l 878 1000 l 878 361 b 488 -21 878 131 716 -21 m 313 1253 l 661 1253 l 661 1167 l 313 1167 "},"Ų":{"ha":975,"x_min":0,"x_max":0,"o":"m 488 -21 b 97 361 259 -21 97 130 l 97 999 l 200 1000 l 200 374 b 488 76 200 166 359 76 b 775 374 617 76 775 167 l 775 1000 l 878 1000 l 878 361 b 699 32 878 212 810 95 b 564 -147 624 -19 564 -93 b 617 -206 564 -182 589 -206 b 681 -172 638 -206 661 -192 l 726 -226 b 608 -288 694 -267 651 -288 b 475 -153 534 -288 475 -224 b 527 -19 475 -109 495 -63 b 488 -21 515 -20 501 -21 "},"Ů":{"ha":975,"x_min":0,"x_max":0,"o":"m 488 -21 b 97 361 259 -21 97 130 l 97 999 l 200 1000 l 200 374 b 488 76 200 166 359 76 b 775 374 617 76 775 167 l 775 1000 l 878 1000 l 878 361 b 488 -21 878 131 716 -21 m 338 1233 b 490 1385 338 1317 406 1385 b 642 1233 574 1385 642 1317 b 490 1081 642 1149 574 1081 b 338 1233 406 1081 338 1149 m 413 1233 b 490 1157 413 1192 448 1157 b 566 1233 533 1157 566 1192 b 490 1310 566 1276 533 1310 b 413 1233 448 1310 413 1276 "},"Ũ":{"ha":975,"x_min":0,"x_max":0,"o":"m 488 -21 b 97 361 259 -21 97 130 l 97 999 l 200 1000 l 200 374 b 488 76 200 166 359 76 b 775 374 617 76 775 167 l 775 1000 l 878 1000 l 878 361 b 488 -21 878 131 716 -21 m 288 1131 b 390 1280 267 1214 308 1280 b 594 1201 469 1280 540 1201 b 628 1270 627 1201 640 1233 l 701 1270 b 599 1119 722 1188 682 1119 b 394 1198 520 1119 449 1198 b 360 1131 358 1198 349 1163 l 288 1131 "},"V":{"ha":838,"x_min":0,"x_max":0,"o":"m 7 1000 l 113 1000 l 418 116 l 725 1000 l 831 1000 l 487 0 l 351 0 "},"W":{"ha":1299,"x_min":0,"x_max":0,"o":"m 23 1000 l 129 1000 l 363 174 l 596 999 l 703 1000 l 937 174 l 1169 1000 l 1276 1000 l 988 0 l 885 0 l 649 820 l 415 0 l 312 0 "},"Ẃ":{"ha":1299,"x_min":0,"x_max":0,"o":"m 23 1000 l 129 1000 l 363 174 l 596 999 l 703 1000 l 937 174 l 1169 1000 l 1276 1000 l 988 0 l 885 0 l 649 820 l 415 0 l 312 0 m 695 1333 l 783 1333 l 699 1118 l 612 1118 "},"Ŵ":{"ha":1299,"x_min":0,"x_max":0,"o":"m 23 1000 l 129 1000 l 363 174 l 596 999 l 703 1000 l 937 174 l 1169 1000 l 1276 1000 l 988 0 l 885 0 l 649 820 l 415 0 l 312 0 m 603 1306 l 697 1306 l 856 1118 l 752 1118 l 650 1238 l 547 1118 l 443 1118 "},"Ẅ":{"ha":1299,"x_min":0,"x_max":0,"o":"m 23 1000 l 129 1000 l 363 174 l 596 999 l 703 1000 l 937 174 l 1169 1000 l 1276 1000 l 988 0 l 885 0 l 649 820 l 415 0 l 312 0 m 463 1258 l 574 1258 l 574 1147 l 463 1147 m 727 1258 l 838 1258 l 838 1147 l 727 1147 "},"Ẁ":{"ha":1299,"x_min":0,"x_max":0,"o":"m 23 1000 l 129 1000 l 363 174 l 596 999 l 703 1000 l 937 174 l 1169 1000 l 1276 1000 l 988 0 l 885 0 l 649 820 l 415 0 l 312 0 m 604 1333 l 688 1118 l 600 1118 l 517 1333 "},"X":{"ha":842,"x_min":0,"x_max":0,"o":"m 360 506 l 23 1000 l 147 1000 l 421 592 l 695 1000 l 819 1000 l 482 506 l 828 0 l 704 0 l 421 420 l 138 0 l 14 0 "},"Y":{"ha":772,"x_min":0,"x_max":0,"o":"m 335 419 l 0 1000 l 118 1000 l 387 535 l 654 1000 l 772 1000 l 438 419 l 438 0 l 335 0 "},"Ý":{"ha":772,"x_min":0,"x_max":0,"o":"m 335 419 l 0 1000 l 118 1000 l 387 535 l 654 1000 l 772 1000 l 438 419 l 438 0 l 335 0 m 413 1333 l 500 1333 l 417 1118 l 329 1118 "},"Ŷ":{"ha":772,"x_min":0,"x_max":0,"o":"m 335 419 l 0 1000 l 118 1000 l 387 535 l 654 1000 l 772 1000 l 438 419 l 438 0 l 335 0 m 339 1306 l 433 1306 l 592 1118 l 488 1118 l 386 1238 l 283 1118 l 179 1118 "},"Ÿ":{"ha":772,"x_min":0,"x_max":0,"o":"m 335 419 l 0 1000 l 118 1000 l 387 535 l 654 1000 l 772 1000 l 438 419 l 438 0 l 335 0 m 199 1258 l 310 1258 l 310 1147 l 199 1147 m 463 1258 l 574 1258 l 574 1147 l 463 1147 "},"Ỵ":{"ha":772,"x_min":0,"x_max":0,"o":"m 335 419 l 0 1000 l 118 1000 l 387 535 l 654 1000 l 772 1000 l 438 419 l 438 0 l 335 0 m 327 -151 l 446 -151 l 446 -266 l 327 -266 "},"Ỳ":{"ha":772,"x_min":0,"x_max":0,"o":"m 335 419 l 0 1000 l 118 1000 l 387 535 l 654 1000 l 772 1000 l 438 419 l 438 0 l 335 0 m 351 1333 l 434 1118 l 347 1118 l 263 1333 "},"Ỷ":{"ha":772,"x_min":0,"x_max":0,"o":"m 335 419 l 0 1000 l 118 1000 l 387 535 l 654 1000 l 772 1000 l 438 419 l 438 0 l 335 0 m 275 1328 b 479 1315 332 1385 431 1397 b 390 1117 527 1228 467 1143 l 357 1164 b 416 1276 413 1190 439 1234 b 308 1275 392 1317 342 1305 l 275 1328 "},"Ỹ":{"ha":772,"x_min":0,"x_max":0,"o":"m 335 419 l 0 1000 l 118 1000 l 387 535 l 654 1000 l 772 1000 l 438 419 l 438 0 l 335 0 m 188 1131 b 290 1280 167 1214 208 1280 b 494 1201 369 1280 440 1201 b 528 1270 527 1201 540 1233 l 601 1270 b 499 1119 622 1188 582 1119 b 294 1198 420 1119 349 1198 b 260 1131 258 1198 249 1163 l 188 1131 "},"Z":{"ha":853,"x_min":0,"x_max":0,"o":"m 69 22 l 616 902 l 83 902 l 83 1000 l 783 1000 l 783 976 l 240 97 l 778 97 l 778 0 l 69 0 "},"Ź":{"ha":853,"x_min":0,"x_max":0,"o":"m 69 22 l 616 902 l 83 902 l 83 1000 l 783 1000 l 783 976 l 240 97 l 778 97 l 778 0 l 69 0 m 460 1333 l 548 1333 l 465 1118 l 377 1118 "},"Ž":{"ha":853,"x_min":0,"x_max":0,"o":"m 69 22 l 616 902 l 83 902 l 83 1000 l 783 1000 l 783 976 l 240 97 l 778 97 l 778 0 l 69 0 m 349 1306 l 451 1185 l 553 1306 l 658 1306 l 499 1118 l 404 1118 l 244 1306 "},"Ż":{"ha":853,"x_min":0,"x_max":0,"o":"m 69 22 l 616 902 l 83 902 l 83 1000 l 783 1000 l 783 976 l 240 97 l 778 97 l 778 0 l 69 0 m 399 1278 l 517 1278 l 517 1159 l 399 1159 "},"a":{"ha":772,"x_min":0,"x_max":0,"o":"m 312 -21 b 56 201 142 -21 56 82 b 247 419 56 324 135 390 b 588 474 348 444 488 460 b 388 674 587 609 531 674 b 183 530 285 674 212 630 l 84 559 b 390 771 119 693 224 771 b 666 621 526 771 626 718 b 688 466 684 577 688 522 l 688 0 l 597 0 l 597 124 b 312 -21 539 29 440 -21 m 158 201 b 324 67 158 136 203 67 b 577 265 467 67 558 151 b 587 384 585 301 587 350 b 288 338 488 372 370 360 b 158 201 224 319 158 283 "},"á":{"ha":772,"x_min":0,"x_max":0,"o":"m 312 -21 b 56 201 142 -21 56 82 b 247 419 56 324 135 390 b 588 474 348 444 488 460 b 388 674 587 609 531 674 b 183 530 285 674 212 630 l 84 559 b 390 771 119 693 224 771 b 666 621 526 771 626 718 b 688 466 684 577 688 522 l 688 0 l 597 0 l 597 124 b 312 -21 539 29 440 -21 m 158 201 b 324 67 158 136 203 67 b 577 265 467 67 558 151 b 587 384 585 301 587 350 b 288 338 488 372 370 360 b 158 201 224 319 158 283 m 433 1083 l 521 1083 l 438 868 l 350 868 "},"ă":{"ha":772,"x_min":0,"x_max":0,"o":"m 312 -21 b 56 201 142 -21 56 82 b 247 419 56 324 135 390 b 588 474 348 444 488 460 b 388 674 587 609 531 674 b 183 530 285 674 212 630 l 84 559 b 390 771 119 693 224 771 b 666 621 526 771 626 718 b 688 466 684 577 688 522 l 688 0 l 597 0 l 597 124 b 312 -21 539 29 440 -21 m 158 201 b 324 67 158 136 203 67 b 577 265 467 67 558 151 b 587 384 585 301 587 350 b 288 338 488 372 370 360 b 158 201 224 319 158 283 m 302 1018 b 397 924 302 966 344 924 b 491 1018 449 924 491 966 l 576 1018 b 397 839 576 919 496 839 b 217 1018 297 839 217 919 "},"ắ":{"ha":772,"x_min":0,"x_max":0,"o":"m 312 -21 b 56 201 142 -21 56 82 b 247 419 56 324 135 390 b 588 474 348 444 488 460 b 388 674 587 609 531 674 b 183 530 285 674 212 630 l 84 559 b 390 771 119 693 224 771 b 666 621 526 771 626 718 b 688 466 684 577 688 522 l 688 0 l 597 0 l 597 124 b 312 -21 539 29 440 -21 m 158 201 b 324 67 158 136 203 67 b 577 265 467 67 558 151 b 587 384 585 301 587 350 b 288 338 488 372 370 360 b 158 201 224 319 158 283 m 301 1018 b 395 924 301 966 343 924 b 490 1018 448 924 490 966 l 574 1018 b 395 839 574 919 494 839 b 216 1018 296 839 216 919 m 433 1271 l 521 1271 l 438 1056 l 350 1056 "},"ặ":{"ha":772,"x_min":0,"x_max":0,"o":"m 312 -21 b 56 201 142 -21 56 82 b 247 419 56 324 135 390 b 588 474 348 444 488 460 b 388 674 587 609 531 674 b 183 530 285 674 212 630 l 84 559 b 390 771 119 693 224 771 b 666 621 526 771 626 718 b 688 466 684 577 688 522 l 688 0 l 597 0 l 597 124 b 312 -21 539 29 440 -21 m 158 201 b 324 67 158 136 203 67 b 577 265 467 67 558 151 b 587 384 585 301 587 350 b 288 338 488 372 370 360 b 158 201 224 319 158 283 m 302 1018 b 397 924 302 966 344 924 b 491 1018 449 924 491 966 l 576 1018 b 397 839 576 919 496 839 b 217 1018 297 839 217 919 m 321 -151 l 440 -151 l 440 -266 l 321 -266 "},"ằ":{"ha":772,"x_min":0,"x_max":0,"o":"m 312 -21 b 56 201 142 -21 56 82 b 247 419 56 324 135 390 b 588 474 348 444 488 460 b 388 674 587 609 531 674 b 183 530 285 674 212 630 l 84 559 b 390 771 119 693 224 771 b 666 621 526 771 626 718 b 688 466 684 577 688 522 l 688 0 l 597 0 l 597 124 b 312 -21 539 29 440 -21 m 158 201 b 324 67 158 136 203 67 b 577 265 467 67 558 151 b 587 384 585 301 587 350 b 288 338 488 372 370 360 b 158 201 224 319 158 283 m 306 1018 b 400 924 306 966 347 924 b 494 1018 452 924 494 966 l 579 1018 b 400 839 579 919 499 839 b 221 1018 301 839 221 919 m 362 1271 l 445 1056 l 358 1056 l 274 1271 "},"ẳ":{"ha":772,"x_min":0,"x_max":0,"o":"m 312 -21 b 56 201 142 -21 56 82 b 247 419 56 324 135 390 b 588 474 348 444 488 460 b 388 674 587 609 531 674 b 183 530 285 674 212 630 l 84 559 b 390 771 119 693 224 771 b 666 621 526 771 626 718 b 688 466 684 577 688 522 l 688 0 l 597 0 l 597 124 b 312 -21 539 29 440 -21 m 158 201 b 324 67 158 136 203 67 b 577 265 467 67 558 151 b 587 384 585 301 587 350 b 288 338 488 372 370 360 b 158 201 224 319 158 283 m 315 1018 b 410 924 315 966 358 924 b 504 1018 463 924 504 966 l 589 1018 b 410 839 589 919 509 839 b 231 1018 310 839 231 919 m 278 1255 b 482 1241 335 1312 434 1324 b 393 1043 530 1155 469 1069 l 360 1090 b 419 1202 415 1116 442 1160 b 311 1201 395 1244 345 1231 l 278 1255 "},"ẵ":{"ha":772,"x_min":0,"x_max":0,"o":"m 312 -21 b 56 201 142 -21 56 82 b 247 419 56 324 135 390 b 588 474 348 444 488 460 b 388 674 587 609 531 674 b 183 530 285 674 212 630 l 84 559 b 390 771 119 693 224 771 b 666 621 526 771 626 718 b 688 466 684 577 688 522 l 688 0 l 597 0 l 597 124 b 312 -21 539 29 440 -21 m 158 201 b 324 67 158 136 203 67 b 577 265 467 67 558 151 b 587 384 585 301 587 350 b 288 338 488 372 370 360 b 158 201 224 319 158 283 m 176 1069 b 278 1218 156 1152 196 1218 b 483 1140 357 1218 428 1140 b 517 1208 515 1140 528 1172 l 589 1208 b 487 1058 610 1126 570 1058 b 283 1136 408 1058 338 1136 b 249 1069 247 1136 238 1101 l 176 1069 m 286 1018 b 381 924 286 966 328 924 b 475 1018 433 924 475 966 l 560 1018 b 381 839 560 919 480 839 b 201 1018 281 839 201 919 "},"â":{"ha":772,"x_min":0,"x_max":0,"o":"m 312 -21 b 56 201 142 -21 56 82 b 247 419 56 324 135 390 b 588 474 348 444 488 460 b 388 674 587 609 531 674 b 183 530 285 674 212 630 l 84 559 b 390 771 119 693 224 771 b 666 621 526 771 626 718 b 688 466 684 577 688 522 l 688 0 l 597 0 l 597 124 b 312 -21 539 29 440 -21 m 158 201 b 324 67 158 136 203 67 b 577 265 467 67 558 151 b 587 384 585 301 587 350 b 288 338 488 372 370 360 b 158 201 224 319 158 283 m 349 1056 l 444 1056 l 603 868 l 499 868 l 397 988 l 294 868 l 190 868 "},"ấ":{"ha":772,"x_min":0,"x_max":0,"o":"m 312 -21 b 56 201 142 -21 56 82 b 247 419 56 324 135 390 b 588 474 348 444 488 460 b 388 674 587 609 531 674 b 183 530 285 674 212 630 l 84 559 b 390 771 119 693 224 771 b 666 621 526 771 626 718 b 688 466 684 577 688 522 l 688 0 l 597 0 l 597 124 b 312 -21 539 29 440 -21 m 158 201 b 324 67 158 136 203 67 b 577 265 467 67 558 151 b 587 384 585 301 587 350 b 288 338 488 372 370 360 b 158 201 224 319 158 283 m 355 1056 l 449 1056 l 608 868 l 504 868 l 402 988 l 299 868 l 195 868 m 668 1229 l 756 1229 l 672 1014 l 585 1014 "},"ậ":{"ha":772,"x_min":0,"x_max":0,"o":"m 312 -21 b 56 201 142 -21 56 82 b 247 419 56 324 135 390 b 588 474 348 444 488 460 b 388 674 587 609 531 674 b 183 530 285 674 212 630 l 84 559 b 390 771 119 693 224 771 b 666 621 526 771 626 718 b 688 466 684 577 688 522 l 688 0 l 597 0 l 597 124 b 312 -21 539 29 440 -21 m 158 201 b 324 67 158 136 203 67 b 577 265 467 67 558 151 b 587 384 585 301 587 350 b 288 338 488 372 370 360 b 158 201 224 319 158 283 m 349 1056 l 444 1056 l 603 868 l 499 868 l 397 988 l 294 868 l 190 868 m 321 -151 l 440 -151 l 440 -266 l 321 -266 "},"ầ":{"ha":772,"x_min":0,"x_max":0,"o":"m 312 -21 b 56 201 142 -21 56 82 b 247 419 56 324 135 390 b 588 474 348 444 488 460 b 388 674 587 609 531 674 b 183 530 285 674 212 630 l 84 559 b 390 771 119 693 224 771 b 666 621 526 771 626 718 b 688 466 684 577 688 522 l 688 0 l 597 0 l 597 124 b 312 -21 539 29 440 -21 m 158 201 b 324 67 158 136 203 67 b 577 265 467 67 558 151 b 587 384 585 301 587 350 b 288 338 488 372 370 360 b 158 201 224 319 158 283 m 358 1056 l 453 1056 l 612 868 l 508 868 l 406 988 l 303 868 l 199 868 m 590 1229 l 674 1014 l 586 1014 l 503 1229 "},"ẩ":{"ha":772,"x_min":0,"x_max":0,"o":"m 312 -21 b 56 201 142 -21 56 82 b 247 419 56 324 135 390 b 588 474 348 444 488 460 b 388 674 587 609 531 674 b 183 530 285 674 212 630 l 84 559 b 390 771 119 693 224 771 b 666 621 526 771 626 718 b 688 466 684 577 688 522 l 688 0 l 597 0 l 597 124 b 312 -21 539 29 440 -21 m 158 201 b 324 67 158 136 203 67 b 577 265 467 67 558 151 b 587 384 585 301 587 350 b 288 338 488 372 370 360 b 158 201 224 319 158 283 m 341 1056 l 435 1056 l 594 868 l 490 868 l 388 988 l 285 868 l 181 868 m 558 1078 b 763 1065 615 1135 715 1147 b 674 867 810 978 750 893 l 640 914 b 699 1026 696 940 722 984 b 592 1025 676 1067 626 1055 l 558 1078 "},"ẫ":{"ha":772,"x_min":0,"x_max":0,"o":"m 312 -21 b 56 201 142 -21 56 82 b 247 419 56 324 135 390 b 588 474 348 444 488 460 b 388 674 587 609 531 674 b 183 530 285 674 212 630 l 84 559 b 390 771 119 693 224 771 b 666 621 526 771 626 718 b 688 466 684 577 688 522 l 688 0 l 597 0 l 597 124 b 312 -21 539 29 440 -21 m 158 201 b 324 67 158 136 203 67 b 577 265 467 67 558 151 b 587 384 585 301 587 350 b 288 338 488 372 370 360 b 158 201 224 319 158 283 m 347 1056 l 442 1056 l 601 868 l 497 868 l 394 988 l 292 868 l 188 868 m 193 1102 b 294 1251 172 1185 213 1251 b 499 1172 374 1251 444 1172 b 533 1241 532 1172 545 1204 l 606 1241 b 503 1090 626 1159 587 1090 b 299 1169 425 1090 354 1169 b 265 1102 263 1169 254 1134 l 193 1102 "},"ä":{"ha":772,"x_min":0,"x_max":0,"o":"m 312 -21 b 56 201 142 -21 56 82 b 247 419 56 324 135 390 b 588 474 348 444 488 460 b 388 674 587 609 531 674 b 183 530 285 674 212 630 l 84 559 b 390 771 119 693 224 771 b 666 621 526 771 626 718 b 688 466 684 577 688 522 l 688 0 l 597 0 l 597 124 b 312 -21 539 29 440 -21 m 158 201 b 324 67 158 136 203 67 b 577 265 467 67 558 151 b 587 384 585 301 587 350 b 288 338 488 372 370 360 b 158 201 224 319 158 283 m 214 1008 l 325 1008 l 325 897 l 214 897 m 478 1008 l 590 1008 l 590 897 l 478 897 "},"ạ":{"ha":772,"x_min":0,"x_max":0,"o":"m 312 -21 b 56 201 142 -21 56 82 b 247 419 56 324 135 390 b 588 474 348 444 488 460 b 388 674 587 609 531 674 b 183 530 285 674 212 630 l 84 559 b 390 771 119 693 224 771 b 666 621 526 771 626 718 b 688 466 684 577 688 522 l 688 0 l 597 0 l 597 124 b 312 -21 539 29 440 -21 m 158 201 b 324 67 158 136 203 67 b 577 265 467 67 558 151 b 587 384 585 301 587 350 b 288 338 488 372 370 360 b 158 201 224 319 158 283 m 321 -151 l 440 -151 l 440 -266 l 321 -266 "},"à":{"ha":772,"x_min":0,"x_max":0,"o":"m 312 -21 b 56 201 142 -21 56 82 b 247 419 56 324 135 390 b 588 474 348 444 488 460 b 388 674 587 609 531 674 b 183 530 285 674 212 630 l 84 559 b 390 771 119 693 224 771 b 666 621 526 771 626 718 b 688 466 684 577 688 522 l 688 0 l 597 0 l 597 124 b 312 -21 539 29 440 -21 m 158 201 b 324 67 158 136 203 67 b 577 265 467 67 558 151 b 587 384 585 301 587 350 b 288 338 488 372 370 360 b 158 201 224 319 158 283 m 358 1083 l 441 868 l 353 868 l 270 1083 "},"ả":{"ha":772,"x_min":0,"x_max":0,"o":"m 312 -21 b 56 201 142 -21 56 82 b 247 419 56 324 135 390 b 588 474 348 444 488 460 b 388 674 587 609 531 674 b 183 530 285 674 212 630 l 84 559 b 390 771 119 693 224 771 b 666 621 526 771 626 718 b 688 466 684 577 688 522 l 688 0 l 597 0 l 597 124 b 312 -21 539 29 440 -21 m 158 201 b 324 67 158 136 203 67 b 577 265 467 67 558 151 b 587 384 585 301 587 350 b 288 338 488 372 370 360 b 158 201 224 319 158 283 m 285 1081 b 489 1067 342 1138 441 1149 b 400 869 537 981 476 895 l 367 916 b 426 1028 422 942 449 986 b 318 1027 402 1069 352 1057 l 285 1081 "},"ā":{"ha":772,"x_min":0,"x_max":0,"o":"m 312 -21 b 56 201 142 -21 56 82 b 247 419 56 324 135 390 b 588 474 348 444 488 460 b 388 674 587 609 531 674 b 183 530 285 674 212 630 l 84 559 b 390 771 119 693 224 771 b 666 621 526 771 626 718 b 688 466 684 577 688 522 l 688 0 l 597 0 l 597 124 b 312 -21 539 29 440 -21 m 158 201 b 324 67 158 136 203 67 b 577 265 467 67 558 151 b 587 384 585 301 587 350 b 288 338 488 372 370 360 b 158 201 224 319 158 283 m 242 1003 l 590 1003 l 590 917 l 242 917 "},"ą":{"ha":772,"x_min":0,"x_max":0,"o":"m 312 -21 b 56 201 142 -21 56 82 b 247 419 56 324 135 390 b 588 474 348 444 488 460 b 388 674 587 609 531 674 b 183 530 285 674 212 630 l 84 559 b 390 771 119 693 224 771 b 666 621 526 771 626 718 b 688 466 684 577 688 522 l 688 0 b 531 -194 603 -51 531 -134 b 583 -252 531 -228 556 -252 b 647 -218 605 -252 628 -238 l 692 -273 b 575 -335 661 -314 617 -335 b 442 -199 501 -335 442 -271 b 597 36 442 -119 508 -31 l 597 124 b 312 -21 539 29 440 -21 m 158 201 b 324 67 158 136 203 67 b 577 265 467 67 558 151 b 587 384 585 301 587 350 b 288 338 488 372 370 360 b 158 201 224 319 158 283 "},"å":{"ha":772,"x_min":0,"x_max":0,"o":"m 312 -21 b 56 201 142 -21 56 82 b 247 419 56 324 135 390 b 588 474 348 444 488 460 b 388 674 587 609 531 674 b 183 530 285 674 212 630 l 84 559 b 390 771 119 693 224 771 b 666 621 526 771 626 718 b 688 466 684 577 688 522 l 688 0 l 597 0 l 597 124 b 312 -21 539 29 440 -21 m 158 201 b 324 67 158 136 203 67 b 577 265 467 67 558 151 b 587 384 585 301 587 350 b 288 338 488 372 370 360 b 158 201 224 319 158 283 m 244 983 b 396 1135 244 1067 313 1135 b 548 983 481 1135 548 1067 b 396 831 548 899 481 831 b 244 983 313 831 244 899 m 319 983 b 396 907 319 942 354 907 b 472 983 439 907 472 942 b 396 1060 472 1026 439 1060 b 319 983 354 1060 319 1026 "},"ã":{"ha":772,"x_min":0,"x_max":0,"o":"m 312 -21 b 56 201 142 -21 56 82 b 247 419 56 324 135 390 b 588 474 348 444 488 460 b 388 674 587 609 531 674 b 183 530 285 674 212 630 l 84 559 b 390 771 119 693 224 771 b 666 621 526 771 626 718 b 688 466 684 577 688 522 l 688 0 l 597 0 l 597 124 b 312 -21 539 29 440 -21 m 158 201 b 324 67 158 136 203 67 b 577 265 467 67 558 151 b 587 384 585 301 587 350 b 288 338 488 372 370 360 b 158 201 224 319 158 283 m 197 881 b 299 1030 176 964 217 1030 b 503 951 378 1030 449 951 b 538 1020 536 951 549 983 l 610 1020 b 508 869 631 938 591 869 b 303 948 429 869 358 948 b 269 881 267 948 258 913 l 197 881 "},"æ":{"ha":1308,"x_min":0,"x_max":0,"o":"m 930 -21 b 633 163 790 -21 688 49 b 319 -21 569 24 444 -21 b 56 202 153 -21 56 66 b 384 428 56 412 284 423 l 588 435 b 391 674 593 595 528 674 b 181 537 293 674 209 636 l 84 567 b 392 771 120 697 241 771 b 656 629 524 771 613 719 b 928 771 714 718 807 771 b 1252 347 1148 771 1258 598 l 693 347 b 926 77 701 183 780 77 b 1147 222 1023 77 1103 124 l 1238 185 b 930 -21 1182 52 1066 -21 m 158 203 b 324 67 158 117 221 67 b 556 197 431 67 520 122 b 588 356 582 247 587 315 l 397 349 b 158 203 315 347 158 340 m 1150 434 b 926 677 1136 585 1069 677 b 695 434 784 677 710 580 "},"b":{"ha":822,"x_min":0,"x_max":0,"o":"m 434 -21 b 188 105 325 -21 242 27 l 188 0 l 97 0 l 97 1000 l 199 1000 l 199 662 b 438 771 254 730 334 771 b 767 376 644 771 767 599 b 434 -21 767 151 644 -21 m 188 376 b 424 74 188 202 264 74 b 658 376 580 74 658 205 b 422 676 658 545 583 676 b 188 376 265 676 188 552 "},"c":{"ha":769,"x_min":0,"x_max":0,"o":"m 408 -21 b 56 375 181 -21 58 144 b 409 771 58 611 185 771 b 723 563 560 771 681 692 l 623 531 b 408 673 588 621 506 673 b 164 375 242 673 166 550 b 408 77 166 195 247 77 b 620 215 510 77 583 124 l 723 184 b 408 -21 667 51 557 -21 "},"ć":{"ha":769,"x_min":0,"x_max":0,"o":"m 408 -21 b 56 375 181 -21 58 144 b 409 771 58 611 185 771 b 723 563 560 771 681 692 l 623 531 b 408 673 588 621 506 673 b 164 375 242 673 166 550 b 408 77 166 195 247 77 b 620 215 510 77 583 124 l 723 184 b 408 -21 667 51 557 -21 m 458 1083 l 546 1083 l 463 868 l 375 868 "},"č":{"ha":769,"x_min":0,"x_max":0,"o":"m 408 -21 b 56 375 181 -21 58 144 b 409 771 58 611 185 771 b 723 563 560 771 681 692 l 623 531 b 408 673 588 621 506 673 b 164 375 242 673 166 550 b 408 77 166 195 247 77 b 620 215 510 77 583 124 l 723 184 b 408 -21 667 51 557 -21 m 306 1056 l 408 935 l 510 1056 l 615 1056 l 456 868 l 361 868 l 201 1056 "},"ç":{"ha":769,"x_min":0,"x_max":0,"o":"m 374 -333 b 286 -312 341 -333 312 -324 l 313 -241 b 366 -253 333 -249 351 -253 b 423 -199 402 -253 423 -226 b 331 -128 423 -156 377 -143 l 370 -19 b 56 375 167 -1 58 157 b 409 771 58 611 185 771 b 723 563 560 771 681 692 l 623 531 b 408 673 588 621 506 673 b 164 375 242 673 166 550 b 408 77 166 195 247 77 b 620 215 510 77 583 124 l 723 184 b 445 -19 672 62 575 -8 l 422 -83 b 506 -202 472 -105 506 -142 b 374 -333 506 -277 446 -333 "},"ĉ":{"ha":769,"x_min":0,"x_max":0,"o":"m 408 -21 b 56 375 181 -21 58 144 b 409 771 58 611 185 771 b 723 563 560 771 681 692 l 623 531 b 408 673 588 621 506 673 b 164 375 242 673 166 550 b 408 77 166 195 247 77 b 620 215 510 77 583 124 l 723 184 b 408 -21 667 51 557 -21 m 363 1056 l 458 1056 l 617 868 l 513 868 l 410 988 l 308 868 l 203 868 "},"ċ":{"ha":769,"x_min":0,"x_max":0,"o":"m 408 -21 b 56 375 181 -21 58 144 b 409 771 58 611 185 771 b 723 563 560 771 681 692 l 623 531 b 408 673 588 621 506 673 b 164 375 242 673 166 550 b 408 77 166 195 247 77 b 620 215 510 77 583 124 l 723 184 b 408 -21 667 51 557 -21 m 362 1028 l 481 1028 l 481 909 l 362 909 "},"d":{"ha":823,"x_min":0,"x_max":0,"o":"m 388 -21 b 56 376 178 -21 56 151 b 384 771 56 599 178 771 b 623 662 488 771 568 730 l 623 1000 l 726 1000 l 726 0 l 634 0 l 634 105 b 388 -21 580 27 497 -21 m 164 376 b 399 74 164 205 242 74 b 634 376 558 74 634 202 b 401 676 634 552 557 676 b 164 376 240 676 164 545 "},"ð":{"ha":809,"x_min":0,"x_max":0,"o":"m 405 -21 b 56 349 190 -23 58 127 b 405 720 58 574 191 722 b 649 617 498 722 586 688 b 506 876 636 728 585 818 l 428 781 l 364 835 l 431 917 b 306 945 393 933 351 942 l 320 1031 b 491 991 383 1028 440 1014 l 569 1087 l 634 1032 l 565 947 b 665 831 605 917 638 878 b 753 352 734 722 753 598 b 405 -21 753 125 619 -23 m 160 350 b 405 74 160 176 248 74 b 649 351 563 74 649 180 b 405 626 649 522 559 628 b 160 350 247 628 160 520 "},"ď":{"ha":997,"x_min":0,"x_max":0,"o":"m 388 -21 b 56 376 178 -21 56 151 b 384 771 56 599 178 771 b 623 662 488 771 568 730 l 623 1000 l 726 1000 l 726 0 l 634 0 l 634 105 b 388 -21 580 27 497 -21 m 164 376 b 399 74 164 205 242 74 b 634 376 558 74 634 202 b 401 676 634 552 557 676 b 164 376 240 676 164 545 m 872 769 b 929 863 927 765 932 811 l 866 863 l 866 1010 l 985 1010 l 985 835 b 866 718 985 750 938 704 "},"đ":{"ha":823,"x_min":0,"x_max":0,"o":"m 388 -21 b 56 376 178 -21 56 151 b 384 771 56 599 178 771 b 623 662 488 771 568 730 l 623 824 l 474 824 l 474 911 l 623 911 l 623 1000 l 726 1000 l 726 911 l 822 911 l 822 824 l 726 824 l 726 0 l 634 0 l 634 105 b 388 -21 580 27 497 -21 m 164 376 b 399 74 164 205 242 74 b 634 376 558 74 634 202 b 401 676 634 552 557 676 b 164 376 240 676 164 545 "},"e":{"ha":812,"x_min":0,"x_max":0,"o":"m 415 -21 b 56 372 196 -21 56 134 b 410 771 56 617 194 771 b 756 347 633 771 763 611 l 165 347 b 410 77 173 174 261 77 b 646 222 517 77 599 128 l 741 185 b 415 -21 681 53 560 -21 m 649 432 b 413 677 633 594 553 677 b 167 432 269 677 183 590 "},"é":{"ha":812,"x_min":0,"x_max":0,"o":"m 415 -21 b 56 372 196 -21 56 134 b 410 771 56 617 194 771 b 756 347 633 771 763 611 l 165 347 b 410 77 173 174 261 77 b 646 222 517 77 599 128 l 741 185 b 415 -21 681 53 560 -21 m 649 432 b 413 677 633 594 553 677 b 167 432 269 677 183 590 m 465 1083 l 552 1083 l 469 868 l 381 868 "},"ě":{"ha":812,"x_min":0,"x_max":0,"o":"m 415 -21 b 56 372 196 -21 56 134 b 410 771 56 617 194 771 b 756 347 633 771 763 611 l 165 347 b 410 77 173 174 261 77 b 646 222 517 77 599 128 l 741 185 b 415 -21 681 53 560 -21 m 649 432 b 413 677 633 594 553 677 b 167 432 269 677 183 590 m 307 1056 l 410 935 l 512 1056 l 616 1056 l 457 868 l 363 868 l 203 1056 "},"ê":{"ha":812,"x_min":0,"x_max":0,"o":"m 415 -21 b 56 372 196 -21 56 134 b 410 771 56 617 194 771 b 756 347 633 771 763 611 l 165 347 b 410 77 173 174 261 77 b 646 222 517 77 599 128 l 741 185 b 415 -21 681 53 560 -21 m 649 432 b 413 677 633 594 553 677 b 167 432 269 677 183 590 m 363 1056 l 457 1056 l 616 868 l 512 868 l 410 988 l 307 868 l 203 868 "},"ế":{"ha":812,"x_min":0,"x_max":0,"o":"m 415 -21 b 56 372 196 -21 56 134 b 410 771 56 617 194 771 b 756 347 633 771 763 611 l 165 347 b 410 77 173 174 261 77 b 646 222 517 77 599 128 l 741 185 b 415 -21 681 53 560 -21 m 649 432 b 413 677 633 594 553 677 b 167 432 269 677 183 590 m 375 1056 l 469 1056 l 628 868 l 524 868 l 422 988 l 319 868 l 215 868 m 688 1229 l 776 1229 l 692 1014 l 605 1014 "},"ệ":{"ha":812,"x_min":0,"x_max":0,"o":"m 415 -21 b 56 372 196 -21 56 134 b 410 771 56 617 194 771 b 756 347 633 771 763 611 l 165 347 b 410 77 173 174 261 77 b 646 222 517 77 599 128 l 741 185 b 415 -21 681 53 560 -21 m 649 432 b 413 677 633 594 553 677 b 167 432 269 677 183 590 m 363 1056 l 457 1056 l 616 868 l 512 868 l 410 988 l 307 868 l 203 868 m 347 -151 l 465 -151 l 465 -266 l 347 -266 "},"ề":{"ha":812,"x_min":0,"x_max":0,"o":"m 415 -21 b 56 372 196 -21 56 134 b 410 771 56 617 194 771 b 756 347 633 771 763 611 l 165 347 b 410 77 173 174 261 77 b 646 222 517 77 599 128 l 741 185 b 415 -21 681 53 560 -21 m 649 432 b 413 677 633 594 553 677 b 167 432 269 677 183 590 m 363 1056 l 457 1056 l 616 868 l 512 868 l 410 988 l 307 868 l 203 868 m 594 1229 l 678 1014 l 590 1014 l 507 1229 "},"ể":{"ha":812,"x_min":0,"x_max":0,"o":"m 415 -21 b 56 372 196 -21 56 134 b 410 771 56 617 194 771 b 756 347 633 771 763 611 l 165 347 b 410 77 173 174 261 77 b 646 222 517 77 599 128 l 741 185 b 415 -21 681 53 560 -21 m 649 432 b 413 677 633 594 553 677 b 167 432 269 677 183 590 m 369 1056 l 464 1056 l 623 868 l 519 868 l 417 988 l 314 868 l 210 868 m 587 1078 b 791 1065 644 1135 743 1147 b 702 867 839 978 778 893 l 669 914 b 728 1026 724 940 751 984 b 620 1025 704 1067 654 1055 l 587 1078 "},"ễ":{"ha":812,"x_min":0,"x_max":0,"o":"m 415 -21 b 56 372 196 -21 56 134 b 410 771 56 617 194 771 b 756 347 633 771 763 611 l 165 347 b 410 77 173 174 261 77 b 646 222 517 77 599 128 l 741 185 b 415 -21 681 53 560 -21 m 649 432 b 413 677 633 594 553 677 b 167 432 269 677 183 590 m 367 1056 l 461 1056 l 620 868 l 516 868 l 414 988 l 311 868 l 207 868 m 213 1102 b 314 1251 192 1185 232 1251 b 519 1172 393 1251 464 1172 b 553 1241 551 1172 565 1204 l 625 1241 b 523 1090 646 1159 606 1090 b 319 1169 444 1090 374 1169 b 285 1102 283 1169 274 1134 l 213 1102 "},"ë":{"ha":812,"x_min":0,"x_max":0,"o":"m 415 -21 b 56 372 196 -21 56 134 b 410 771 56 617 194 771 b 756 347 633 771 763 611 l 165 347 b 410 77 173 174 261 77 b 646 222 517 77 599 128 l 741 185 b 415 -21 681 53 560 -21 m 649 432 b 413 677 633 594 553 677 b 167 432 269 677 183 590 m 223 1008 l 334 1008 l 334 897 l 223 897 m 488 1008 l 599 1008 l 599 897 l 488 897 "},"ė":{"ha":812,"x_min":0,"x_max":0,"o":"m 415 -21 b 56 372 196 -21 56 134 b 410 771 56 617 194 771 b 756 347 633 771 763 611 l 165 347 b 410 77 173 174 261 77 b 646 222 517 77 599 128 l 741 185 b 415 -21 681 53 560 -21 m 649 432 b 413 677 633 594 553 677 b 167 432 269 677 183 590 m 352 1028 l 471 1028 l 471 909 l 352 909 "},"ẹ":{"ha":812,"x_min":0,"x_max":0,"o":"m 415 -21 b 56 372 196 -21 56 134 b 410 771 56 617 194 771 b 756 347 633 771 763 611 l 165 347 b 410 77 173 174 261 77 b 646 222 517 77 599 128 l 741 185 b 415 -21 681 53 560 -21 m 649 432 b 413 677 633 594 553 677 b 167 432 269 677 183 590 m 356 -151 l 475 -151 l 475 -266 l 356 -266 "},"è":{"ha":812,"x_min":0,"x_max":0,"o":"m 415 -21 b 56 372 196 -21 56 134 b 410 771 56 617 194 771 b 756 347 633 771 763 611 l 165 347 b 410 77 173 174 261 77 b 646 222 517 77 599 128 l 741 185 b 415 -21 681 53 560 -21 m 649 432 b 413 677 633 594 553 677 b 167 432 269 677 183 590 m 381 1083 l 465 868 l 377 868 l 294 1083 "},"ẻ":{"ha":833,"x_min":0,"x_max":0,"o":"m 306 1081 b 510 1067 363 1138 462 1149 b 421 869 558 981 497 895 l 388 916 b 447 1028 443 942 469 986 b 339 1027 423 1069 373 1057 l 306 1081 m 56 372 b 410 771 56 617 194 771 b 756 347 633 771 763 611 l 165 347 b 410 77 173 174 261 77 b 646 222 517 77 599 128 l 741 185 b 415 -21 681 53 560 -21 b 56 372 196 -21 56 134 m 649 432 b 413 677 633 594 553 677 b 167 432 269 677 183 590 "},"ē":{"ha":812,"x_min":0,"x_max":0,"o":"m 415 -21 b 56 372 196 -21 56 134 b 410 771 56 617 194 771 b 756 347 633 771 763 611 l 165 347 b 410 77 173 174 261 77 b 646 222 517 77 599 128 l 741 185 b 415 -21 681 53 560 -21 m 649 432 b 413 677 633 594 553 677 b 167 432 269 677 183 590 m 251 1003 l 599 1003 l 599 917 l 251 917 "},"ę":{"ha":812,"x_min":0,"x_max":0,"o":"m 621 -322 b 469 -290 566 -345 505 -329 b 444 -142 435 -252 426 -197 b 508 -26 458 -102 483 -60 b 524 -6 513 -20 518 -13 b 415 -21 490 -16 453 -21 b 56 372 196 -21 56 134 b 410 771 56 617 194 771 b 756 347 633 771 763 611 l 165 347 b 410 77 173 174 261 77 b 646 222 517 77 599 128 l 741 185 b 724 152 736 174 731 163 b 580 -60 683 74 602 -25 b 525 -169 556 -98 534 -136 b 534 -232 519 -190 517 -215 b 639 -217 565 -263 609 -244 l 685 -273 b 621 -322 669 -292 648 -309 m 649 432 b 413 677 633 594 553 677 b 167 432 269 677 183 590 "},"ẽ":{"ha":812,"x_min":0,"x_max":0,"o":"m 415 -21 b 56 372 196 -21 56 134 b 410 771 56 617 194 771 b 756 347 633 771 763 611 l 165 347 b 410 77 173 174 261 77 b 646 222 517 77 599 128 l 741 185 b 415 -21 681 53 560 -21 m 649 432 b 413 677 633 594 553 677 b 167 432 269 677 183 590 m 209 881 b 310 1030 188 964 228 1030 b 515 951 390 1030 460 951 b 549 1020 548 951 561 983 l 622 1020 b 519 869 642 938 603 869 b 315 948 441 869 370 948 b 281 881 279 948 270 913 l 209 881 "},"ə":{"ha":812,"x_min":0,"x_max":0,"o":"m 397 771 b 756 378 616 771 756 616 b 401 -21 756 133 618 -21 b 56 403 179 -21 49 139 l 647 403 b 401 673 639 576 551 673 b 166 528 294 673 213 622 l 71 565 b 397 771 131 697 252 771 m 163 318 b 399 73 179 156 259 73 b 645 318 544 73 629 160 l 163 318 "},"f":{"ha":492,"x_min":0,"x_max":0,"o":"m 172 806 b 218 966 172 863 177 922 b 383 1021 263 1015 325 1021 l 478 1021 l 478 935 l 390 935 b 274 817 312 935 274 898 l 274 750 l 478 750 l 478 663 l 274 663 l 274 0 l 172 0 l 172 663 l 42 663 l 42 750 l 172 750 l 172 806 "},"g":{"ha":822,"x_min":0,"x_max":0,"o":"m 395 -354 b 99 -189 280 -354 163 -306 l 192 -137 b 395 -255 233 -221 316 -255 b 622 12 558 -255 623 -165 l 622 89 b 388 -21 568 21 490 -21 b 56 376 178 -21 56 151 b 384 771 56 599 178 771 b 634 647 495 771 579 724 l 634 750 l 725 750 l 725 10 b 717 -109 725 -33 723 -71 b 395 -354 690 -276 578 -354 m 164 376 b 399 74 164 205 242 74 b 634 376 558 74 634 202 b 401 676 634 552 557 676 b 164 376 240 676 164 545 "},"ğ":{"ha":822,"x_min":0,"x_max":0,"o":"m 395 -354 b 99 -189 280 -354 163 -306 l 192 -137 b 395 -255 233 -221 316 -255 b 622 12 558 -255 623 -165 l 622 89 b 388 -21 568 21 490 -21 b 56 376 178 -21 56 151 b 384 771 56 599 178 771 b 634 647 495 771 579 724 l 634 750 l 725 750 l 725 10 b 717 -109 725 -33 723 -71 b 395 -354 690 -276 578 -354 m 164 376 b 399 74 164 205 242 74 b 634 376 558 74 634 202 b 401 676 634 552 557 676 b 164 376 240 676 164 545 m 345 1018 b 440 924 345 966 388 924 b 534 1018 492 924 534 966 l 619 1018 b 440 839 619 919 539 839 b 260 1018 340 839 260 919 "},"ĝ":{"ha":822,"x_min":0,"x_max":0,"o":"m 395 -354 b 99 -189 280 -354 163 -306 l 192 -137 b 395 -255 233 -221 316 -255 b 622 12 558 -255 623 -165 l 622 89 b 388 -21 568 21 490 -21 b 56 376 178 -21 56 151 b 384 771 56 599 178 771 b 634 647 495 771 579 724 l 634 750 l 725 750 l 725 10 b 717 -109 725 -33 723 -71 b 395 -354 690 -276 578 -354 m 164 376 b 399 74 164 205 242 74 b 634 376 558 74 634 202 b 401 676 634 552 557 676 b 164 376 240 676 164 545 m 353 1056 l 447 1056 l 606 868 l 502 868 l 400 988 l 297 868 l 193 868 "},"ģ":{"ha":822,"x_min":0,"x_max":0,"o":"m 395 -354 b 99 -189 280 -354 163 -306 l 192 -137 b 395 -255 233 -221 316 -255 b 622 12 558 -255 623 -165 l 622 89 b 388 -21 568 21 490 -21 b 56 376 178 -21 56 151 b 384 771 56 599 178 771 b 634 647 495 771 579 724 l 634 750 l 725 750 l 725 10 b 717 -109 725 -33 723 -71 b 395 -354 690 -276 578 -354 m 164 376 b 399 74 164 205 242 74 b 634 376 558 74 634 202 b 401 676 634 552 557 676 b 164 376 240 676 164 545 m 364 1024 b 478 1140 364 1101 421 1140 l 478 1085 b 417 1024 462 1085 414 1074 l 478 1024 l 478 909 l 364 909 "},"ġ":{"ha":822,"x_min":0,"x_max":0,"o":"m 395 -354 b 99 -189 280 -354 163 -306 l 192 -137 b 395 -255 233 -221 316 -255 b 622 12 558 -255 623 -165 l 622 89 b 388 -21 568 21 490 -21 b 56 376 178 -21 56 151 b 384 771 56 599 178 771 b 634 647 495 771 579 724 l 634 750 l 725 750 l 725 10 b 717 -109 725 -33 723 -71 b 395 -354 690 -276 578 -354 m 164 376 b 399 74 164 205 242 74 b 634 376 558 74 634 202 b 401 676 634 552 557 676 b 164 376 240 676 164 545 m 377 1028 l 496 1028 l 496 909 l 377 909 "},"h":{"ha":825,"x_min":0,"x_max":0,"o":"m 639 383 b 422 672 639 548 578 672 b 199 400 277 672 199 569 l 199 0 l 97 0 l 97 1000 l 189 1000 l 189 646 b 441 769 244 727 333 769 b 742 413 666 769 742 581 l 742 0 l 639 0 l 639 383 "},"ħ":{"ha":825,"x_min":0,"x_max":0,"o":"m 639 383 b 422 672 639 548 578 672 b 199 400 277 672 199 569 l 199 0 l 97 0 l 97 824 l 8 824 l 8 911 l 97 911 l 97 1000 l 189 1000 l 189 911 l 356 911 l 356 824 l 189 824 l 189 646 b 441 769 244 727 333 769 b 742 413 666 769 742 581 l 742 0 l 639 0 l 639 383 "},"ĥ":{"ha":825,"x_min":0,"x_max":0,"o":"m 639 383 b 422 672 639 548 578 672 b 199 400 277 672 199 569 l 199 0 l 97 0 l 97 1000 l 189 1000 l 189 646 b 441 769 244 727 333 769 b 742 413 666 769 742 581 l 742 0 l 639 0 l 639 383 m 95 1306 l 190 1306 l 349 1118 l 244 1118 l 142 1238 l 40 1118 l -65 1118 "},"i":{"ha":324,"x_min":0,"x_max":0,"o":"m 111 1007 l 213 1007 l 213 892 l 111 892 m 111 750 l 213 750 l 213 0 l 111 0 "},"ı":{"ha":324,"x_min":0,"x_max":0,"o":"m 111 750 l 213 750 l 213 0 l 111 0 "},"í":{"ha":324,"x_min":0,"x_max":0,"o":"m 111 750 l 213 750 l 213 0 l 111 0 m 203 1083 l 291 1083 l 208 868 l 120 868 "},"î":{"ha":324,"x_min":0,"x_max":0,"o":"m 111 750 l 213 750 l 213 0 l 111 0 m 119 1056 l 213 1056 l 372 868 l 268 868 l 166 988 l 63 868 l -41 868 "},"ï":{"ha":324,"x_min":0,"x_max":0,"o":"m 111 750 l 213 750 l 213 0 l 111 0 m -26 1008 l 85 1008 l 85 897 l -26 897 m 239 1008 l 350 1008 l 350 897 l 239 897 "},"ị":{"ha":324,"x_min":0,"x_max":0,"o":"m 111 1007 l 213 1007 l 213 892 l 111 892 m 103 -151 l 222 -151 l 222 -266 l 103 -266 m 111 750 l 213 750 l 213 0 l 111 0 "},"ì":{"ha":324,"x_min":0,"x_max":0,"o":"m 111 750 l 213 750 l 213 0 l 111 0 m 121 1083 l 204 868 l 117 868 l 33 1083 "},"ỉ":{"ha":324,"x_min":0,"x_max":0,"o":"m 111 750 l 213 750 l 213 0 l 111 0 m 38 1081 b 242 1067 95 1138 194 1149 b 153 869 290 981 230 895 l 120 916 b 179 1028 176 942 202 986 b 72 1027 156 1069 106 1057 l 38 1081 "},"ī":{"ha":324,"x_min":0,"x_max":0,"o":"m 111 750 l 213 750 l 213 0 l 111 0 m -12 1003 l 336 1003 l 336 917 l -12 917 "},"į":{"ha":324,"x_min":0,"x_max":0,"o":"m 111 1007 l 213 1007 l 213 892 l 111 892 m -33 -199 b 111 27 -33 -123 28 -38 l 111 750 l 213 750 l 213 0 b 56 -194 128 -51 56 -134 b 108 -252 56 -228 81 -252 b 172 -218 130 -252 153 -238 l 217 -273 b 100 -335 186 -314 142 -335 b -33 -199 26 -335 -33 -271 "},"ĩ":{"ha":324,"x_min":0,"x_max":0,"o":"m 111 750 l 213 750 l 213 0 l 111 0 m -44 881 b 57 1030 -65 964 -25 1030 b 262 951 136 1030 207 951 b 296 1020 294 951 308 983 l 368 1020 b 266 869 389 938 349 869 b 62 948 188 869 117 948 b 28 881 26 948 17 913 l -44 881 "},"j":{"ha":348,"x_min":0,"x_max":0,"o":"m -14 -235 l 28 -235 b 140 -122 97 -235 140 -203 l 140 750 l 241 750 l 241 -147 b 59 -333 241 -272 182 -333 l -14 -333 m 140 1007 l 241 1007 l 241 892 l 140 892 "},"ĵ":{"ha":348,"x_min":0,"x_max":0,"o":"m -14 -235 l 28 -235 b 140 -122 97 -235 140 -203 l 140 750 l 241 750 l 241 -147 b 59 -333 241 -272 182 -333 l -14 -333 m 142 1056 l 237 1056 l 396 868 l 292 868 l 190 988 l 87 868 l -17 868 "},"k":{"ha":689,"x_min":0,"x_max":0,"o":"m 97 1000 l 200 1000 l 200 389 l 535 750 l 671 750 l 319 375 l 717 0 l 568 0 l 200 361 l 200 0 l 97 0 "},"ķ":{"ha":689,"x_min":0,"x_max":0,"o":"m 97 1000 l 200 1000 l 200 389 l 535 750 l 671 750 l 319 375 l 717 0 l 568 0 l 200 361 l 200 0 l 97 0 m 320 -328 b 382 -266 337 -328 385 -316 l 320 -266 l 320 -151 l 435 -151 l 435 -266 b 320 -382 435 -344 378 -382 "},"l":{"ha":324,"x_min":0,"x_max":0,"o":"m 111 1000 l 213 1000 l 213 0 l 111 0 "},"ĺ":{"ha":324,"x_min":0,"x_max":0,"o":"m 111 1000 l 213 1000 l 213 0 l 111 0 m 203 1333 l 291 1333 l 208 1118 l 120 1118 "},"ľ":{"ha":324,"x_min":0,"x_max":0,"o":"m 111 1000 l 213 1000 l 213 0 l 111 0 m 371 1083 l 458 1083 l 375 868 l 288 868 "},"ļ":{"ha":324,"x_min":0,"x_max":0,"o":"m 111 1000 l 213 1000 l 213 0 l 111 0 m 105 -328 b 167 -266 122 -328 169 -316 l 105 -266 l 105 -151 l 219 -151 l 219 -266 b 105 -382 219 -344 163 -382 "},"ł":{"ha":522,"x_min":0,"x_max":0,"o":"m 210 424 l 56 335 l 56 450 l 210 539 l 210 1000 l 313 1000 l 313 597 l 466 685 l 466 572 l 313 483 l 313 0 l 210 0 "},"m":{"ha":1178,"x_min":0,"x_max":0,"o":"m 992 492 b 822 678 992 608 920 678 b 647 484 736 678 647 624 l 646 0 l 545 0 l 546 485 b 373 678 546 605 476 678 b 199 484 269 678 199 601 l 199 0 l 97 0 l 97 750 l 188 750 l 188 671 b 399 770 235 732 310 770 b 618 644 498 770 578 726 b 845 770 662 723 745 770 b 1094 512 997 770 1094 670 l 1094 0 l 992 0 l 992 492 "},"n":{"ha":825,"x_min":0,"x_max":0,"o":"m 639 383 b 422 672 639 548 578 672 b 199 400 277 672 199 569 l 199 0 l 97 0 l 97 750 l 189 750 l 189 646 b 441 769 244 727 333 769 b 742 413 666 769 742 581 l 742 0 l 639 0 l 639 383 "},"ń":{"ha":825,"x_min":0,"x_max":0,"o":"m 639 383 b 422 672 639 548 578 672 b 199 400 277 672 199 569 l 199 0 l 97 0 l 97 750 l 189 750 l 189 646 b 441 769 244 727 333 769 b 742 413 666 769 742 581 l 742 0 l 639 0 l 639 383 m 468 1083 l 556 1083 l 472 868 l 385 868 "},"ň":{"ha":825,"x_min":0,"x_max":0,"o":"m 639 383 b 422 672 639 548 578 672 b 199 400 277 672 199 569 l 199 0 l 97 0 l 97 750 l 189 750 l 189 646 b 441 769 244 727 333 769 b 742 413 666 769 742 581 l 742 0 l 639 0 l 639 383 m 313 1056 l 415 935 l 517 1056 l 622 1056 l 463 868 l 368 868 l 208 1056 "},"ņ":{"ha":825,"x_min":0,"x_max":0,"o":"m 639 383 b 422 672 639 548 578 672 b 199 400 277 672 199 569 l 199 0 l 97 0 l 97 750 l 189 750 l 189 646 b 441 769 244 727 333 769 b 742 413 666 769 742 581 l 742 0 l 639 0 l 639 383 m 364 -328 b 426 -266 381 -328 428 -316 l 364 -266 l 364 -151 l 478 -151 l 478 -266 b 364 -382 478 -344 422 -382 "},"ñ":{"ha":825,"x_min":0,"x_max":0,"o":"m 639 383 b 422 672 639 548 578 672 b 199 400 277 672 199 569 l 199 0 l 97 0 l 97 750 l 189 750 l 189 646 b 441 769 244 727 333 769 b 742 413 666 769 742 581 l 742 0 l 639 0 l 639 383 m 207 881 b 308 1030 186 964 226 1030 b 513 951 388 1030 458 951 b 547 1020 546 951 559 983 l 619 1020 b 517 869 640 938 601 869 b 313 948 439 869 368 948 b 279 881 277 948 268 913 l 207 881 "},"ŋ":{"ha":825,"x_min":0,"x_max":0,"o":"m 645 -273 b 527 -267 597 -281 562 -276 l 527 -185 b 639 -81 601 -195 639 -185 l 639 383 b 422 672 639 548 578 672 b 199 400 277 672 199 569 l 199 0 l 97 0 l 97 750 l 189 750 l 189 646 b 441 769 244 727 333 769 b 742 413 666 769 742 581 l 742 -128 b 645 -273 742 -218 703 -262 "},"o":{"ha":822,"x_min":0,"x_max":0,"o":"m 410 -21 b 56 376 187 -21 56 143 b 410 771 56 612 191 771 b 766 376 635 771 766 608 b 410 -21 766 140 633 -21 m 164 376 b 410 77 164 195 248 77 b 658 376 577 77 658 199 b 410 673 658 556 576 673 b 164 376 242 673 164 551 "},"ó":{"ha":822,"x_min":0,"x_max":0,"o":"m 410 -21 b 56 376 187 -21 56 143 b 410 771 56 612 191 771 b 766 376 635 771 766 608 b 410 -21 766 140 633 -21 m 164 376 b 410 77 164 195 248 77 b 658 376 577 77 658 199 b 410 673 658 556 576 673 b 164 376 242 673 164 551 m 449 1083 l 537 1083 l 453 868 l 366 868 "},"ô":{"ha":822,"x_min":0,"x_max":0,"o":"m 410 -21 b 56 376 187 -21 56 143 b 410 771 56 612 191 771 b 766 376 635 771 766 608 b 410 -21 766 140 633 -21 m 164 376 b 410 77 164 195 248 77 b 658 376 577 77 658 199 b 410 673 658 556 576 673 b 164 376 242 673 164 551 m 363 1056 l 458 1056 l 617 868 l 513 868 l 410 988 l 308 868 l 203 868 "},"ố":{"ha":822,"x_min":0,"x_max":0,"o":"m 410 -21 b 56 376 187 -21 56 143 b 410 771 56 612 191 771 b 766 376 635 771 766 608 b 410 -21 766 140 633 -21 m 164 376 b 410 77 164 195 248 77 b 658 376 577 77 658 199 b 410 673 658 556 576 673 b 164 376 242 673 164 551 m 371 1056 l 465 1056 l 624 868 l 520 868 l 418 988 l 315 868 l 211 868 m 684 1229 l 772 1229 l 688 1014 l 601 1014 "},"ộ":{"ha":822,"x_min":0,"x_max":0,"o":"m 410 -21 b 56 376 187 -21 56 143 b 410 771 56 612 191 771 b 766 376 635 771 766 608 b 410 -21 766 140 633 -21 m 164 376 b 410 77 164 195 248 77 b 658 376 577 77 658 199 b 410 673 658 556 576 673 b 164 376 242 673 164 551 m 363 1056 l 458 1056 l 617 868 l 513 868 l 410 988 l 308 868 l 203 868 m 357 -151 l 476 -151 l 476 -266 l 357 -266 "},"ồ":{"ha":822,"x_min":0,"x_max":0,"o":"m 410 -21 b 56 376 187 -21 56 143 b 410 771 56 612 191 771 b 766 376 635 771 766 608 b 410 -21 766 140 633 -21 m 164 376 b 410 77 164 195 248 77 b 658 376 577 77 658 199 b 410 673 658 556 576 673 b 164 376 242 673 164 551 m 378 1056 l 472 1056 l 631 868 l 527 868 l 425 988 l 322 868 l 218 868 m 610 1229 l 694 1014 l 606 1014 l 523 1229 "},"ổ":{"ha":822,"x_min":0,"x_max":0,"o":"m 410 -21 b 56 376 187 -21 56 143 b 410 771 56 612 191 771 b 766 376 635 771 766 608 b 410 -21 766 140 633 -21 m 164 376 b 410 77 164 195 248 77 b 658 376 577 77 658 199 b 410 673 658 556 576 673 b 164 376 242 673 164 551 m 363 1056 l 457 1056 l 616 868 l 512 868 l 410 988 l 307 868 l 203 868 m 580 1078 b 784 1065 637 1135 736 1147 b 695 867 832 978 772 893 l 662 914 b 721 1026 717 940 744 984 b 613 1025 697 1067 647 1055 l 580 1078 "},"ỗ":{"ha":822,"x_min":0,"x_max":0,"o":"m 410 -21 b 56 376 187 -21 56 143 b 410 771 56 612 191 771 b 766 376 635 771 766 608 b 410 -21 766 140 633 -21 m 164 376 b 410 77 164 195 248 77 b 658 376 577 77 658 199 b 410 673 658 556 576 673 b 164 376 242 673 164 551 m 372 1056 l 466 1056 l 625 868 l 521 868 l 419 988 l 316 868 l 212 868 m 217 1102 b 319 1251 197 1185 237 1251 b 524 1172 398 1251 469 1172 b 558 1241 556 1172 569 1204 l 630 1241 b 528 1090 651 1159 611 1090 b 324 1169 449 1090 378 1169 b 290 1102 288 1169 278 1134 l 217 1102 "},"ö":{"ha":822,"x_min":0,"x_max":0,"o":"m 410 -21 b 56 376 187 -21 56 143 b 410 771 56 612 191 771 b 766 376 635 771 766 608 b 410 -21 766 140 633 -21 m 164 376 b 410 77 164 195 248 77 b 658 376 577 77 658 199 b 410 673 658 556 576 673 b 164 376 242 673 164 551 m 223 1008 l 334 1008 l 334 897 l 223 897 m 488 1008 l 599 1008 l 599 897 l 488 897 "},"ọ":{"ha":822,"x_min":0,"x_max":0,"o":"m 410 -21 b 56 376 187 -21 56 143 b 410 771 56 612 191 771 b 766 376 635 771 766 608 b 410 -21 766 140 633 -21 m 164 376 b 410 77 164 195 248 77 b 658 376 577 77 658 199 b 410 673 658 556 576 673 b 164 376 242 673 164 551 m 351 -151 l 470 -151 l 470 -266 l 351 -266 "},"ò":{"ha":822,"x_min":0,"x_max":0,"o":"m 410 -21 b 56 376 187 -21 56 143 b 410 771 56 612 191 771 b 766 376 635 771 766 608 b 410 -21 766 140 633 -21 m 164 376 b 410 77 164 195 248 77 b 658 376 577 77 658 199 b 410 673 658 556 576 673 b 164 376 242 673 164 551 m 365 1083 l 449 868 l 361 868 l 278 1083 "},"ỏ":{"ha":822,"x_min":0,"x_max":0,"o":"m 410 -21 b 56 376 187 -21 56 143 b 410 771 56 612 191 771 b 766 376 635 771 766 608 b 410 -21 766 140 633 -21 m 164 376 b 410 77 164 195 248 77 b 658 376 577 77 658 199 b 410 673 658 556 576 673 b 164 376 242 673 164 551 m 306 1081 b 510 1067 363 1138 462 1149 b 421 869 558 981 497 895 l 388 916 b 447 1028 443 942 469 986 b 339 1027 423 1069 373 1057 l 306 1081 "},"ơ":{"ha":822,"x_min":0,"x_max":0,"o":"m 410 -21 b 56 376 187 -21 56 143 b 410 771 56 612 191 771 b 532 753 455 771 495 765 b 629 753 575 741 603 740 b 676 875 678 777 681 825 l 762 875 b 708 703 773 799 763 738 b 652 682 693 693 674 685 b 766 376 726 612 766 504 b 410 -21 766 140 633 -21 m 164 376 b 410 77 164 195 248 77 b 658 376 577 77 658 199 b 410 673 658 556 576 673 b 164 376 242 673 164 551 "},"ớ":{"ha":846,"x_min":0,"x_max":0,"o":"m 762 875 b 708 703 773 799 763 738 b 652 682 693 693 674 685 b 766 376 726 612 766 504 b 410 -21 766 140 633 -21 b 56 376 187 -21 56 143 b 410 771 56 612 191 771 b 532 753 455 771 495 765 b 629 753 575 741 603 740 b 676 875 678 777 681 825 l 762 875 m 164 376 b 410 77 164 195 248 77 b 658 376 577 77 658 199 b 410 673 658 556 576 673 b 164 376 242 673 164 551 m 449 1083 l 537 1083 l 453 868 l 366 868 "},"ợ":{"ha":822,"x_min":0,"x_max":0,"o":"m 410 -21 b 56 376 187 -21 56 143 b 410 771 56 612 191 771 b 532 753 455 771 495 765 b 629 753 575 741 603 740 b 676 875 678 777 681 825 l 762 875 b 708 703 773 799 763 738 b 652 682 693 693 674 685 b 766 376 726 612 766 504 b 410 -21 766 140 633 -21 m 164 376 b 410 77 164 195 248 77 b 658 376 577 77 658 199 b 410 673 658 556 576 673 b 164 376 242 673 164 551 m 356 -151 l 475 -151 l 475 -266 l 356 -266 "},"ờ":{"ha":846,"x_min":0,"x_max":0,"o":"m 762 875 b 708 703 773 799 763 738 b 652 682 693 693 674 685 b 766 376 726 612 766 504 b 410 -21 766 140 633 -21 b 56 376 187 -21 56 143 b 410 771 56 612 191 771 b 532 753 455 771 495 765 b 629 753 575 741 603 740 b 676 875 678 777 681 825 l 762 875 m 164 376 b 410 77 164 195 248 77 b 658 376 577 77 658 199 b 410 673 658 556 576 673 b 164 376 242 673 164 551 m 365 1083 l 449 868 l 361 868 l 278 1083 "},"ở":{"ha":822,"x_min":0,"x_max":0,"o":"m 410 -21 b 56 376 187 -21 56 143 b 410 771 56 612 191 771 b 532 753 455 771 495 765 b 629 753 575 741 603 740 b 676 875 678 777 681 825 l 762 875 b 708 703 773 799 763 738 b 652 682 693 693 674 685 b 766 376 726 612 766 504 b 410 -21 766 140 633 -21 m 164 376 b 410 77 164 195 248 77 b 658 376 577 77 658 199 b 410 673 658 556 576 673 b 164 376 242 673 164 551 m 306 1081 b 510 1067 363 1138 462 1149 b 421 869 558 981 497 895 l 388 916 b 447 1028 443 942 469 986 b 339 1027 423 1069 373 1057 l 306 1081 "},"ỡ":{"ha":822,"x_min":0,"x_max":0,"o":"m 410 -21 b 56 376 187 -21 56 143 b 410 771 56 612 191 771 b 532 753 455 771 495 765 b 629 753 575 741 603 740 b 676 875 678 777 681 825 l 762 875 b 708 703 773 799 763 738 b 652 682 693 693 674 685 b 766 376 726 612 766 504 b 410 -21 766 140 633 -21 m 164 376 b 410 77 164 195 248 77 b 658 376 577 77 658 199 b 410 673 658 556 576 673 b 164 376 242 673 164 551 m 209 881 b 310 1030 188 964 228 1030 b 515 951 390 1030 460 951 b 549 1020 548 951 561 983 l 622 1020 b 519 869 642 938 603 869 b 315 948 441 869 370 948 b 281 881 279 948 270 913 l 209 881 "},"ő":{"ha":822,"x_min":0,"x_max":0,"o":"m 410 -21 b 56 376 187 -21 56 143 b 410 771 56 612 191 771 b 766 376 635 771 766 608 b 410 -21 766 140 633 -21 m 164 376 b 410 77 164 195 248 77 b 658 376 577 77 658 199 b 410 673 658 556 576 673 b 164 376 242 673 164 551 m 317 1083 l 405 1083 l 322 868 l 234 868 m 578 1083 l 665 1083 l 582 868 l 494 868 "},"ō":{"ha":822,"x_min":0,"x_max":0,"o":"m 410 -21 b 56 376 187 -21 56 143 b 410 771 56 612 191 771 b 766 376 635 771 766 608 b 410 -21 766 140 633 -21 m 164 376 b 410 77 164 195 248 77 b 658 376 577 77 658 199 b 410 673 658 556 576 673 b 164 376 242 673 164 551 m 237 1003 l 585 1003 l 585 917 l 237 917 "},"ø":{"ha":822,"x_min":0,"x_max":0,"o":"m 28 63 l 110 145 b 56 376 74 208 56 287 b 410 771 56 612 191 771 b 650 683 510 771 591 739 l 724 757 l 794 688 l 711 606 b 766 376 747 542 766 464 b 410 -21 766 140 633 -21 b 172 67 312 -21 231 11 l 97 -7 m 164 376 b 192 217 164 315 174 262 l 583 607 b 410 673 542 649 485 673 b 164 376 242 673 164 551 m 239 144 b 410 77 280 101 338 77 b 658 376 577 77 658 199 b 630 535 658 437 649 490 l 239 144 "},"õ":{"ha":822,"x_min":0,"x_max":0,"o":"m 410 -21 b 56 376 187 -21 56 143 b 410 771 56 612 191 771 b 766 376 635 771 766 608 b 410 -21 766 140 633 -21 m 164 376 b 410 77 164 195 248 77 b 658 376 577 77 658 199 b 410 673 658 556 576 673 b 164 376 242 673 164 551 m 206 881 b 307 1030 185 964 225 1030 b 512 951 386 1030 457 951 b 546 1020 544 951 558 983 l 618 1020 b 516 869 639 938 599 869 b 312 948 438 869 367 948 b 278 881 276 948 267 913 l 206 881 "},"œ":{"ha":1415,"x_min":0,"x_max":0,"o":"m 1018 -21 b 713 147 879 -21 772 41 b 410 -21 654 42 550 -21 b 56 376 187 -21 56 143 b 410 771 56 612 191 771 b 713 603 551 771 654 707 b 1014 771 772 710 877 771 b 1359 347 1236 771 1367 611 l 768 347 b 1014 77 776 174 864 77 b 1249 222 1121 77 1203 128 l 1344 185 b 1018 -21 1285 53 1163 -21 m 164 376 b 410 77 164 195 248 77 b 658 376 577 77 658 199 b 410 673 658 556 576 673 b 164 376 242 673 164 551 m 1252 432 b 1017 677 1236 594 1156 677 b 770 432 872 677 786 590 "},"p":{"ha":822,"x_min":0,"x_max":0,"o":"m 434 -21 b 199 90 333 -21 253 21 l 199 -333 l 97 -333 l 97 750 l 188 750 l 188 647 b 438 771 243 724 327 771 b 767 376 644 771 767 599 b 434 -21 767 151 644 -21 m 188 376 b 424 74 188 202 264 74 b 658 376 580 74 658 205 b 422 676 658 545 583 676 b 188 376 265 676 188 552 "},"þ":{"ha":822,"x_min":0,"x_max":0,"o":"m 434 -21 b 199 90 333 -21 253 21 l 199 -333 l 97 -333 l 97 750 l 97 750 l 97 1000 l 199 1000 l 199 662 b 438 771 254 730 334 771 b 767 376 644 771 767 599 b 434 -21 767 151 644 -21 m 188 376 b 424 74 188 202 264 74 b 658 376 580 74 658 205 b 422 676 658 545 583 676 b 188 376 265 676 188 552 "},"q":{"ha":823,"x_min":0,"x_max":0,"o":"m 388 -21 b 56 376 178 -21 56 151 b 384 771 56 599 178 771 b 634 647 495 771 579 724 l 634 750 l 726 750 l 726 -333 l 623 -333 l 623 90 b 388 -21 569 21 490 -21 m 164 376 b 399 74 164 205 242 74 b 634 376 558 74 634 202 b 401 676 634 552 557 676 b 164 376 240 676 164 545 "},"r":{"ha":501,"x_min":0,"x_max":0,"o":"m 97 750 l 189 750 l 189 631 b 247 701 205 660 226 684 b 466 750 306 752 400 767 l 466 654 b 287 620 410 667 341 665 b 199 374 212 561 199 464 l 199 0 l 97 0 "},"ŕ":{"ha":501,"x_min":0,"x_max":0,"o":"m 97 750 l 189 750 l 189 631 b 247 701 205 660 226 684 b 466 750 306 752 400 767 l 466 654 b 287 620 410 667 341 665 b 199 374 212 561 199 464 l 199 0 l 97 0 m 273 1083 l 360 1083 l 277 868 l 190 868 "},"ř":{"ha":501,"x_min":0,"x_max":0,"o":"m 97 750 l 189 750 l 189 631 b 247 701 205 660 226 684 b 466 750 306 752 400 767 l 466 654 b 287 620 410 667 341 665 b 199 374 212 561 199 464 l 199 0 l 97 0 m 178 1056 l 281 935 l 383 1056 l 488 1056 l 328 868 l 234 868 l 74 1056 "},"ŗ":{"ha":501,"x_min":0,"x_max":0,"o":"m 97 750 l 189 750 l 189 631 b 247 701 205 660 226 684 b 466 750 306 752 400 767 l 466 654 b 287 620 410 667 341 665 b 199 374 212 561 199 464 l 199 0 l 97 0 m 91 -328 b 153 -266 108 -328 156 -316 l 91 -266 l 91 -151 l 206 -151 l 206 -266 b 91 -382 206 -344 149 -382 "},"s":{"ha":729,"x_min":0,"x_max":0,"o":"m 377 -20 b 56 195 201 -20 81 60 l 160 213 b 383 73 181 127 266 73 b 567 206 497 73 567 124 b 344 348 567 276 535 297 b 78 557 141 403 78 452 b 363 771 78 685 194 771 b 672 552 533 771 656 683 l 567 533 b 362 678 553 622 474 676 b 182 562 256 680 182 633 b 401 430 182 502 224 474 b 673 208 608 377 673 324 b 377 -20 673 66 561 -20 "},"ś":{"ha":729,"x_min":0,"x_max":0,"o":"m 377 -20 b 56 195 201 -20 81 60 l 160 213 b 383 73 181 127 266 73 b 567 206 497 73 567 124 b 344 348 567 276 535 297 b 78 557 141 403 78 452 b 363 771 78 685 194 771 b 672 552 533 771 656 683 l 567 533 b 362 678 553 622 474 676 b 182 562 256 680 182 633 b 401 430 182 502 224 474 b 673 208 608 377 673 324 b 377 -20 673 66 561 -20 m 407 1083 l 494 1083 l 411 868 l 324 868 "},"š":{"ha":729,"x_min":0,"x_max":0,"o":"m 377 -20 b 56 195 201 -20 81 60 l 160 213 b 383 73 181 127 266 73 b 567 206 497 73 567 124 b 344 348 567 276 535 297 b 78 557 141 403 78 452 b 363 771 78 685 194 771 b 672 552 533 771 656 683 l 567 533 b 362 678 553 622 474 676 b 182 562 256 680 182 633 b 401 430 182 502 224 474 b 673 208 608 377 673 324 b 377 -20 673 66 561 -20 m 276 1056 l 379 935 l 481 1056 l 585 1056 l 426 868 l 332 868 l 172 1056 "},"ş":{"ha":729,"x_min":0,"x_max":0,"o":"m 356 -333 b 267 -312 322 -333 293 -324 l 294 -241 b 347 -253 314 -249 333 -253 b 404 -199 383 -253 404 -226 b 312 -128 404 -156 358 -143 l 351 -19 b 56 195 190 -12 80 67 l 160 213 b 383 73 181 127 266 73 b 567 206 497 73 567 124 b 344 348 567 276 535 297 b 78 557 141 403 78 452 b 363 771 78 685 194 771 b 672 552 533 771 656 683 l 567 533 b 362 678 553 622 474 676 b 182 562 256 680 182 633 b 401 430 182 502 224 474 b 673 208 608 377 673 324 b 427 -18 673 79 581 -3 l 403 -83 b 488 -202 453 -105 488 -142 b 356 -333 488 -277 427 -333 "},"ŝ":{"ha":729,"x_min":0,"x_max":0,"o":"m 377 -20 b 56 195 201 -20 81 60 l 160 213 b 383 73 181 127 266 73 b 567 206 497 73 567 124 b 344 348 567 276 535 297 b 78 557 141 403 78 452 b 363 771 78 685 194 771 b 672 552 533 771 656 683 l 567 533 b 362 678 553 622 474 676 b 182 562 256 680 182 633 b 401 430 182 502 224 474 b 673 208 608 377 673 324 b 377 -20 673 66 561 -20 m 331 1056 l 425 1056 l 584 868 l 480 868 l 378 988 l 275 868 l 171 868 "},"ș":{"ha":729,"x_min":0,"x_max":0,"o":"m 377 -20 b 56 195 201 -20 81 60 l 160 213 b 383 73 181 127 266 73 b 567 206 497 73 567 124 b 344 348 567 276 535 297 b 78 557 141 403 78 452 b 363 771 78 685 194 771 b 672 552 533 771 656 683 l 567 533 b 362 678 553 622 474 676 b 182 562 256 680 182 633 b 401 430 182 502 224 474 b 673 208 608 377 673 324 b 377 -20 673 66 561 -20 m 313 -328 b 375 -266 330 -328 378 -316 l 313 -266 l 313 -151 l 428 -151 l 428 -266 b 313 -382 428 -344 371 -382 "},"ß":{"ha":831,"x_min":0,"x_max":0,"o":"m 434 -20 b 306 0 385 -20 344 -16 l 306 101 b 424 81 344 87 378 81 b 644 286 555 81 644 154 b 379 486 644 411 537 483 l 379 580 b 556 753 475 590 556 643 b 380 923 556 860 484 923 b 218 823 308 923 243 892 b 203 710 206 792 203 751 l 203 0 l 97 0 l 97 738 b 115 856 97 784 102 824 b 378 1021 155 967 251 1021 b 660 753 544 1021 660 920 b 540 548 660 658 619 579 b 748 285 628 531 748 441 b 434 -20 748 99 638 -20 "},"t":{"ha":556,"x_min":0,"x_max":0,"o":"m 506 0 b 198 90 378 -26 247 -10 b 174 272 171 144 174 198 l 174 663 l 14 663 l 14 750 l 174 750 l 174 958 l 276 958 l 276 750 l 506 750 l 506 663 l 276 663 l 276 276 b 291 141 276 213 273 173 b 506 90 324 78 398 72 l 506 0 "},"ŧ":{"ha":584,"x_min":0,"x_max":0,"o":"m 14 424 l 174 424 l 174 663 l 14 663 l 14 750 l 174 750 l 174 958 l 276 958 l 276 750 l 506 750 l 506 663 l 276 663 l 276 424 l 515 424 l 515 336 l 276 336 l 276 276 b 291 141 276 213 273 173 b 506 90 324 78 398 72 l 506 0 b 198 90 378 -26 247 -10 b 174 272 171 144 174 198 l 174 336 l 14 336 "},"ť":{"ha":556,"x_min":0,"x_max":0,"o":"m 506 0 b 198 90 378 -26 247 -10 b 174 272 171 144 174 198 l 174 663 l 14 663 l 14 750 l 174 750 l 174 958 l 276 958 l 276 750 l 506 750 l 506 663 l 276 663 l 276 276 b 291 141 276 213 273 173 b 506 90 324 78 398 72 l 506 0 m 456 1083 l 544 1083 l 460 868 l 373 868 "},"ţ":{"ha":556,"x_min":0,"x_max":0,"o":"m 506 0 b 372 -10 460 -10 414 -13 l 345 -83 b 429 -202 394 -105 429 -142 b 297 -333 429 -277 369 -333 b 209 -312 264 -333 235 -324 l 235 -241 b 289 -253 256 -249 274 -253 b 346 -199 325 -253 346 -226 b 253 -128 346 -156 300 -143 l 301 3 b 198 90 256 19 219 47 b 174 272 171 144 174 198 l 174 663 l 14 663 l 14 750 l 174 750 l 174 958 l 276 958 l 276 750 l 506 750 l 506 663 l 276 663 l 276 276 b 291 141 276 213 273 173 b 506 90 324 78 398 72 l 506 0 "},"ț":{"ha":556,"x_min":0,"x_max":0,"o":"m 506 0 b 198 90 378 -26 247 -10 b 174 272 171 144 174 198 l 174 663 l 14 663 l 14 750 l 174 750 l 174 958 l 276 958 l 276 750 l 506 750 l 506 663 l 276 663 l 276 276 b 291 141 276 213 273 173 b 506 90 324 78 398 72 l 506 0 m 233 -328 b 294 -266 249 -328 297 -316 l 233 -266 l 233 -151 l 347 -151 l 347 -266 b 233 -382 347 -344 290 -382 "},"u":{"ha":825,"x_min":0,"x_max":0,"o":"m 384 -19 b 83 338 159 -19 83 169 l 83 750 l 186 750 l 186 367 b 403 78 186 202 247 78 b 626 350 548 78 626 181 l 626 750 l 728 750 l 728 0 l 636 0 l 636 104 b 384 -19 581 23 492 -19 "},"ú":{"ha":825,"x_min":0,"x_max":0,"o":"m 384 -19 b 83 338 159 -19 83 169 l 83 750 l 186 750 l 186 367 b 403 78 186 202 247 78 b 626 350 548 78 626 181 l 626 750 l 728 750 l 728 0 l 636 0 l 636 104 b 384 -19 581 23 492 -19 m 441 1083 l 528 1083 l 445 868 l 358 868 "},"ŭ":{"ha":825,"x_min":0,"x_max":0,"o":"m 384 -19 b 83 338 159 -19 83 169 l 83 750 l 186 750 l 186 367 b 403 78 186 202 247 78 b 626 350 548 78 626 181 l 626 750 l 728 750 l 728 0 l 636 0 l 636 104 b 384 -19 581 23 492 -19 m 311 1018 b 406 924 311 966 353 924 b 500 1018 458 924 500 966 l 585 1018 b 406 839 585 919 505 839 b 226 1018 306 839 226 919 "},"û":{"ha":825,"x_min":0,"x_max":0,"o":"m 384 -19 b 83 338 159 -19 83 169 l 83 750 l 186 750 l 186 367 b 403 78 186 202 247 78 b 626 350 548 78 626 181 l 626 750 l 728 750 l 728 0 l 636 0 l 636 104 b 384 -19 581 23 492 -19 m 357 1056 l 451 1056 l 610 868 l 506 868 l 404 988 l 301 868 l 197 868 "},"ü":{"ha":825,"x_min":0,"x_max":0,"o":"m 384 -19 b 83 338 159 -19 83 169 l 83 750 l 186 750 l 186 367 b 403 78 186 202 247 78 b 626 350 548 78 626 181 l 626 750 l 728 750 l 728 0 l 636 0 l 636 104 b 384 -19 581 23 492 -19 m 217 1008 l 328 1008 l 328 897 l 217 897 m 482 1008 l 593 1008 l 593 897 l 482 897 "},"ụ":{"ha":825,"x_min":0,"x_max":0,"o":"m 384 -19 b 83 338 159 -19 83 169 l 83 750 l 186 750 l 186 367 b 403 78 186 202 247 78 b 626 350 548 78 626 181 l 626 750 l 728 750 l 728 0 l 636 0 l 636 104 b 384 -19 581 23 492 -19 m 349 -151 l 468 -151 l 468 -266 l 349 -266 "},"ù":{"ha":825,"x_min":0,"x_max":0,"o":"m 384 -19 b 83 338 159 -19 83 169 l 83 750 l 186 750 l 186 367 b 403 78 186 202 247 78 b 626 350 548 78 626 181 l 626 750 l 728 750 l 728 0 l 636 0 l 636 104 b 384 -19 581 23 492 -19 m 378 1083 l 462 868 l 374 868 l 291 1083 "},"ủ":{"ha":825,"x_min":0,"x_max":0,"o":"m 384 -19 b 83 338 159 -19 83 169 l 83 750 l 186 750 l 186 367 b 403 78 186 202 247 78 b 626 350 548 78 626 181 l 626 750 l 728 750 l 728 0 l 636 0 l 636 104 b 384 -19 581 23 492 -19 m 306 1081 b 510 1067 363 1138 462 1149 b 421 869 558 981 497 895 l 388 916 b 447 1028 443 942 469 986 b 339 1027 423 1069 373 1057 l 306 1081 "},"ư":{"ha":825,"x_min":0,"x_max":0,"o":"m 384 -19 b 83 338 159 -19 83 169 l 83 750 l 186 750 l 186 367 b 403 78 186 202 247 78 b 626 350 548 78 626 181 l 626 750 l 642 750 b 705 754 662 751 684 749 b 764 875 767 767 768 823 l 850 875 b 797 703 861 799 849 739 b 728 681 776 690 753 683 l 728 0 l 636 0 l 636 104 b 384 -19 581 23 492 -19 "},"ứ":{"ha":825,"x_min":0,"x_max":0,"o":"m 384 -19 b 83 338 159 -19 83 169 l 83 750 l 186 750 l 186 367 b 403 78 186 202 247 78 b 626 350 548 78 626 181 l 626 750 l 642 750 b 705 754 662 751 684 749 b 764 875 767 767 768 823 l 850 875 b 797 703 861 799 849 739 b 728 681 776 690 753 683 l 728 0 l 636 0 l 636 104 b 384 -19 581 23 492 -19 m 441 1083 l 528 1083 l 445 868 l 358 868 "},"ự":{"ha":825,"x_min":0,"x_max":0,"o":"m 384 -19 b 83 338 159 -19 83 169 l 83 750 l 186 750 l 186 367 b 403 78 186 202 247 78 b 626 350 548 78 626 181 l 626 750 l 643 750 b 706 754 663 751 685 749 b 765 875 769 767 769 823 l 851 875 b 799 703 863 799 851 739 b 728 680 778 690 753 683 l 728 0 l 636 0 l 636 104 b 384 -19 581 23 492 -19 m 356 -151 l 475 -151 l 475 -266 l 356 -266 "},"ừ":{"ha":825,"x_min":0,"x_max":0,"o":"m 384 -19 b 83 338 159 -19 83 169 l 83 750 l 186 750 l 186 367 b 403 78 186 202 247 78 b 626 350 548 78 626 181 l 626 750 l 677 750 b 705 753 687 751 696 751 b 764 874 767 767 768 822 l 850 874 b 797 703 861 799 849 738 b 728 680 776 689 753 682 l 728 0 l 636 0 l 636 104 b 384 -19 581 23 492 -19 m 378 1083 l 462 868 l 374 868 l 291 1083 "},"ử":{"ha":825,"x_min":0,"x_max":0,"o":"m 384 -19 b 83 338 159 -19 83 169 l 83 750 l 186 750 l 186 367 b 403 78 186 202 247 78 b 626 350 548 78 626 181 l 626 750 l 642 750 b 705 754 662 751 684 749 b 764 875 767 767 768 823 l 850 875 b 797 703 861 799 849 739 b 728 681 776 690 753 683 l 728 0 l 636 0 l 636 104 b 384 -19 581 23 492 -19 m 306 1081 b 510 1067 363 1138 462 1149 b 421 869 558 981 497 895 l 388 916 b 447 1028 443 942 469 986 b 339 1027 423 1069 373 1057 l 306 1081 "},"ữ":{"ha":825,"x_min":0,"x_max":0,"o":"m 384 -19 b 83 338 159 -19 83 169 l 83 750 l 186 750 l 186 367 b 403 78 186 202 247 78 b 626 350 548 78 626 181 l 626 750 l 642 750 b 705 754 662 751 684 749 b 764 875 767 767 768 823 l 850 875 b 797 703 861 799 849 739 b 728 681 776 690 753 683 l 728 0 l 636 0 l 636 104 b 384 -19 581 23 492 -19 m 209 881 b 310 1030 188 964 228 1030 b 515 951 390 1030 460 951 b 549 1020 548 951 561 983 l 622 1020 b 519 869 642 938 603 869 b 315 948 441 869 370 948 b 281 881 279 948 270 913 l 209 881 "},"ű":{"ha":825,"x_min":0,"x_max":0,"o":"m 384 -19 b 83 338 159 -19 83 169 l 83 750 l 186 750 l 186 367 b 403 78 186 202 247 78 b 626 350 548 78 626 181 l 626 750 l 728 750 l 728 0 l 636 0 l 636 104 b 384 -19 581 23 492 -19 m 308 1083 l 396 1083 l 313 868 l 225 868 m 569 1083 l 656 1083 l 573 868 l 485 868 "},"ū":{"ha":825,"x_min":0,"x_max":0,"o":"m 384 -19 b 83 338 159 -19 83 169 l 83 750 l 186 750 l 186 367 b 403 78 186 202 247 78 b 626 350 548 78 626 181 l 626 750 l 728 750 l 728 0 l 636 0 l 636 104 b 384 -19 581 23 492 -19 m 231 1003 l 579 1003 l 579 917 l 231 917 "},"ų":{"ha":825,"x_min":0,"x_max":0,"o":"m 384 -19 b 83 338 159 -19 83 169 l 83 750 l 186 750 l 186 367 b 403 78 186 202 247 78 b 626 350 548 78 626 181 l 626 750 l 728 750 l 728 0 b 570 -194 643 -51 570 -134 b 623 -252 570 -228 595 -252 b 687 -218 644 -252 667 -238 l 732 -273 b 615 -335 701 -314 657 -335 b 481 -199 540 -335 481 -271 b 636 35 481 -119 548 -31 l 636 104 b 384 -19 581 23 492 -19 "},"ů":{"ha":825,"x_min":0,"x_max":0,"o":"m 384 -19 b 83 338 159 -19 83 169 l 83 750 l 186 750 l 186 367 b 403 78 186 202 247 78 b 626 350 548 78 626 181 l 626 750 l 728 750 l 728 0 l 636 0 l 636 104 b 384 -19 581 23 492 -19 m 254 983 b 406 1135 254 1067 323 1135 b 558 983 491 1135 558 1067 b 406 831 558 899 491 831 b 254 983 323 831 254 899 m 330 983 b 406 907 330 942 365 907 b 483 983 449 907 483 942 b 406 1060 483 1026 449 1060 b 330 983 365 1060 330 1026 "},"ũ":{"ha":825,"x_min":0,"x_max":0,"o":"m 384 -19 b 83 338 159 -19 83 169 l 83 750 l 186 750 l 186 367 b 403 78 186 202 247 78 b 626 350 548 78 626 181 l 626 750 l 728 750 l 728 0 l 636 0 l 636 104 b 384 -19 581 23 492 -19 m 215 881 b 317 1030 194 964 235 1030 b 522 951 396 1030 467 951 b 556 1020 554 951 567 983 l 628 1020 b 526 869 649 938 609 869 b 322 948 447 869 376 948 b 288 881 285 948 276 913 l 215 881 "},"v":{"ha":706,"x_min":0,"x_max":0,"o":"m 28 750 l 131 750 l 353 133 l 573 750 l 678 750 l 406 0 l 300 0 "},"w":{"ha":1066,"x_min":0,"x_max":0,"o":"m 28 751 l 130 750 l 308 167 l 486 750 l 579 750 l 758 167 l 937 750 l 1038 750 l 809 0 l 720 0 l 533 597 l 346 0 l 257 0 "},"ẃ":{"ha":1066,"x_min":0,"x_max":0,"o":"m 28 751 l 130 750 l 308 167 l 486 750 l 579 750 l 758 167 l 937 750 l 1038 750 l 809 0 l 720 0 l 533 597 l 346 0 l 257 0 m 578 1083 l 666 1083 l 583 868 l 495 868 "},"ŵ":{"ha":1066,"x_min":0,"x_max":0,"o":"m 28 751 l 130 750 l 308 167 l 486 750 l 579 750 l 758 167 l 937 750 l 1038 750 l 809 0 l 720 0 l 533 597 l 346 0 l 257 0 m 485 1056 l 579 1056 l 738 868 l 634 868 l 532 988 l 429 868 l 325 868 "},"ẅ":{"ha":1066,"x_min":0,"x_max":0,"o":"m 28 751 l 130 750 l 308 167 l 486 750 l 579 750 l 758 167 l 937 750 l 1038 750 l 809 0 l 720 0 l 533 597 l 346 0 l 257 0 m 345 1008 l 456 1008 l 456 897 l 345 897 m 610 1008 l 721 1008 l 721 897 l 610 897 "},"ẁ":{"ha":1066,"x_min":0,"x_max":0,"o":"m 28 751 l 130 750 l 308 167 l 486 750 l 579 750 l 758 167 l 937 750 l 1038 750 l 809 0 l 720 0 l 533 597 l 346 0 l 257 0 m 488 1083 l 571 868 l 483 868 l 400 1083 "},"x":{"ha":732,"x_min":0,"x_max":0,"o":"m 307 379 l 20 750 l 142 750 l 367 458 l 589 750 l 711 750 l 424 379 l 718 0 l 595 0 l 367 301 l 137 0 l 14 0 "},"y":{"ha":733,"x_min":0,"x_max":0,"o":"m 328 2 l 23 750 l 131 750 l 378 133 l 605 750 l 709 750 l 306 -333 l 204 -333 "},"ý":{"ha":733,"x_min":0,"x_max":0,"o":"m 328 2 l 23 750 l 131 750 l 378 133 l 605 750 l 709 750 l 306 -333 l 204 -333 m 406 1083 l 493 1083 l 410 868 l 322 868 "},"ŷ":{"ha":733,"x_min":0,"x_max":0,"o":"m 328 2 l 23 750 l 131 750 l 378 133 l 605 750 l 709 750 l 306 -333 l 204 -333 m 329 1056 l 424 1056 l 583 868 l 478 868 l 376 988 l 274 868 l 169 868 "},"ÿ":{"ha":733,"x_min":0,"x_max":0,"o":"m 328 2 l 23 750 l 131 750 l 378 133 l 605 750 l 709 750 l 306 -333 l 204 -333 m 185 1008 l 297 1008 l 297 897 l 185 897 m 450 1008 l 561 1008 l 561 897 l 450 897 "},"ỵ":{"ha":733,"x_min":0,"x_max":0,"o":"m 328 2 l 23 750 l 131 750 l 378 133 l 605 750 l 709 750 l 306 -333 l 204 -333 m 497 -151 l 615 -151 l 615 -266 l 497 -266 "},"ỳ":{"ha":733,"x_min":0,"x_max":0,"o":"m 328 2 l 23 750 l 131 750 l 378 133 l 605 750 l 709 750 l 306 -333 l 204 -333 m 339 1083 l 422 868 l 335 868 l 251 1083 "},"ỷ":{"ha":733,"x_min":0,"x_max":0,"o":"m 328 2 l 23 750 l 131 750 l 378 133 l 605 750 l 709 750 l 306 -333 l 204 -333 m 264 1081 b 468 1067 321 1138 420 1149 b 379 869 516 981 456 895 l 346 916 b 405 1028 401 942 428 986 b 297 1027 381 1069 331 1057 l 264 1081 "},"ỹ":{"ha":733,"x_min":0,"x_max":0,"o":"m 328 2 l 23 750 l 131 750 l 378 133 l 605 750 l 709 750 l 306 -333 l 204 -333 m 169 881 b 270 1030 148 964 188 1030 b 475 951 349 1030 420 951 b 509 1020 508 951 521 983 l 581 1020 b 479 869 602 938 563 869 b 275 948 401 869 330 948 b 241 881 239 948 230 913 l 169 881 "},"z":{"ha":735,"x_min":0,"x_max":0,"o":"m 28 22 l 512 655 l 64 655 l 64 750 l 680 750 l 680 726 l 197 95 l 653 95 l 653 0 l 28 0 "},"ź":{"ha":735,"x_min":0,"x_max":0,"o":"m 28 22 l 512 655 l 64 655 l 64 750 l 680 750 l 680 726 l 197 95 l 653 95 l 653 0 l 28 0 m 430 1083 l 517 1083 l 434 868 l 347 868 "},"ž":{"ha":735,"x_min":0,"x_max":0,"o":"m 28 22 l 512 655 l 64 655 l 64 750 l 680 750 l 680 726 l 197 95 l 653 95 l 653 0 l 28 0 m 281 1056 l 383 935 l 485 1056 l 590 1056 l 431 868 l 336 868 l 176 1056 "},"ż":{"ha":735,"x_min":0,"x_max":0,"o":"m 28 22 l 512 655 l 64 655 l 64 750 l 680 750 l 680 726 l 197 95 l 653 95 l 653 0 l 28 0 m 317 1028 l 435 1028 l 435 909 l 317 909 "},"ﬁ":{"ha":838,"x_min":0,"x_max":0,"o":"m 172 806 b 218 966 172 863 177 922 b 383 1021 263 1015 325 1021 l 478 1021 l 478 935 l 390 935 b 274 817 312 935 274 898 l 274 750 l 478 750 l 478 663 l 274 663 l 274 0 l 172 0 l 172 663 l 42 663 l 42 750 l 172 750 l 172 806 m 624 750 l 726 750 l 726 0 l 624 0 m 624 1007 l 726 1007 l 726 892 l 624 892 "},"ﬂ":{"ha":867,"x_min":0,"x_max":0,"o":"m 274 0 l 172 0 l 172 663 l 42 663 l 42 750 l 172 750 l 172 806 b 218 966 172 863 177 922 b 383 1021 263 1015 325 1021 l 478 1021 l 478 935 l 390 935 b 274 817 312 935 274 898 l 274 750 l 654 750 l 654 1000 l 756 1000 l 756 0 l 654 0 l 654 663 l 274 663 "},"ª":{"ha":438,"x_min":0,"x_max":0,"o":"m 183 375 b 56 488 99 375 56 426 b 144 599 56 544 86 581 b 310 628 188 611 249 619 b 226 703 308 679 284 703 b 137 645 186 703 150 687 l 69 665 b 226 771 88 730 140 771 b 368 699 293 771 345 749 b 382 617 380 674 382 648 l 382 385 l 317 385 l 317 440 b 183 375 287 396 244 375 m 128 488 b 195 435 128 459 149 435 b 302 508 257 435 293 472 b 309 567 308 526 309 550 b 179 544 253 559 210 553 b 128 488 149 534 128 518 "},"º":{"ha":479,"x_min":0,"x_max":0,"o":"m 239 375 b 56 574 127 375 56 457 b 239 771 56 691 129 771 b 424 574 352 771 424 690 b 239 375 424 456 351 375 m 133 574 b 239 444 133 494 169 444 b 346 574 311 444 346 497 b 239 703 346 651 310 703 b 133 574 166 703 133 650 "},"А":{"ha":880,"x_min":0,"x_max":0,"o":"m 372 1000 l 508 1000 l 852 0 l 746 0 l 662 242 l 217 242 l 134 0 l 28 0 m 628 338 l 439 885 l 251 338 "},"Б":{"ha":839,"x_min":0,"x_max":0,"o":"m 97 1000 l 715 1000 l 715 902 l 199 902 l 199 611 l 483 611 b 553 606 502 611 528 610 b 797 306 708 585 797 459 b 553 5 797 152 708 26 b 483 0 528 1 503 0 l 97 0 m 481 98 b 542 103 497 98 522 99 b 692 306 645 124 692 213 b 542 508 692 399 645 488 b 481 513 522 512 497 513 l 199 513 l 199 98 "},"В":{"ha":851,"x_min":0,"x_max":0,"o":"m 97 1000 l 483 1000 b 762 742 651 1000 762 884 b 644 531 762 651 717 572 b 810 281 749 485 810 397 b 515 0 810 107 692 0 l 97 0 m 490 98 b 705 279 612 98 705 165 b 509 477 705 390 622 477 l 200 477 l 200 98 m 483 574 b 656 744 578 574 656 644 b 483 903 656 838 583 903 l 200 903 l 200 574 "},"Г":{"ha":736,"x_min":0,"x_max":0,"o":"m 97 1000 l 722 1000 l 722 902 l 199 902 l 199 0 l 97 0 "},"Ѓ":{"ha":736,"x_min":0,"x_max":0,"o":"m 97 1000 l 722 1000 l 722 902 l 199 902 l 199 0 l 97 0 m 354 1333 l 442 1333 l 358 1118 l 271 1118 "},"Ґ":{"ha":750,"x_min":0,"x_max":0,"o":"m 97 1000 l 634 1000 l 634 1130 l 736 1130 l 736 902 l 199 902 l 199 0 l 97 0 "},"Д":{"ha":1024,"x_min":0,"x_max":0,"o":"m 51 98 b 244 442 206 98 226 272 b 281 1001 263 626 269 781 l 897 1000 l 897 98 l 969 98 l 969 -167 l 867 -167 l 867 0 l 153 0 l 153 -167 l 51 -167 l 51 98 m 795 98 l 795 902 l 376 903 b 343 411 367 734 360 585 b 246 98 327 251 310 156 "},"Е":{"ha":792,"x_min":0,"x_max":0,"o":"m 97 1000 l 722 1000 l 722 902 l 199 902 l 199 556 l 639 556 l 639 458 l 199 458 l 199 98 l 722 98 l 722 0 l 97 0 "},"Ѐ":{"ha":792,"x_min":0,"x_max":0,"o":"m 97 1000 l 722 1000 l 722 902 l 199 902 l 199 556 l 639 556 l 639 458 l 199 458 l 199 98 l 722 98 l 722 0 l 97 0 m 392 1333 l 475 1118 l 388 1118 l 304 1333 "},"Ё":{"ha":792,"x_min":0,"x_max":0,"o":"m 97 1000 l 722 1000 l 722 902 l 199 902 l 199 556 l 639 556 l 639 458 l 199 458 l 199 98 l 722 98 l 722 0 l 97 0 m 208 1258 l 319 1258 l 319 1147 l 208 1147 m 472 1258 l 583 1258 l 583 1147 l 472 1147 "},"Ж":{"ha":1237,"x_min":0,"x_max":0,"o":"m 457 517 l 52 1000 l 181 1000 l 567 533 l 567 1000 l 669 1000 l 669 533 l 1056 1000 l 1185 1000 l 780 517 l 1223 0 l 1092 0 l 669 495 l 669 0 l 567 0 l 567 495 l 145 0 l 14 0 "},"З":{"ha":828,"x_min":0,"x_max":0,"o":"m 417 -21 b 47 194 213 -21 94 80 l 140 248 b 421 77 173 153 265 77 b 674 283 584 77 674 159 b 431 460 674 419 566 455 b 317 463 331 463 330 463 l 317 562 b 425 563 328 562 397 562 b 638 743 558 569 638 635 b 423 923 638 856 550 923 b 172 766 303 923 223 861 l 88 828 b 426 1021 151 941 268 1021 b 747 745 595 1021 747 930 b 619 513 747 637 694 553 b 782 281 720 481 782 405 b 417 -21 782 98 638 -21 "},"И":{"ha":951,"x_min":0,"x_max":0,"o":"m 751 0 l 751 820 l 200 0 l 97 0 l 97 1000 l 200 1000 l 200 181 l 751 1000 l 853 1000 l 853 0 "},"Й":{"ha":951,"x_min":0,"x_max":0,"o":"m 97 1000 l 200 1000 l 200 181 l 751 1000 l 853 1000 l 853 0 l 751 0 l 751 820 l 200 0 l 97 0 m 389 1268 b 483 1174 389 1216 431 1174 b 578 1268 536 1174 578 1216 l 663 1268 b 483 1089 663 1169 583 1089 b 304 1268 384 1089 304 1169 "},"Ѝ":{"ha":951,"x_min":0,"x_max":0,"o":"m 97 1000 l 200 1000 l 200 181 l 751 1000 l 853 1000 l 853 0 l 751 0 l 751 820 l 200 0 l 97 0 m 452 1333 l 535 1118 l 448 1118 l 365 1333 "},"К":{"ha":824,"x_min":0,"x_max":0,"o":"m 97 1000 l 199 1000 l 199 528 l 656 1000 l 786 1000 l 320 517 l 824 0 l 691 0 l 199 500 l 199 0 l 97 0 "},"Ќ":{"ha":824,"x_min":0,"x_max":0,"o":"m 97 1000 l 199 1000 l 199 528 l 656 1000 l 786 1000 l 320 517 l 824 0 l 691 0 l 199 500 l 199 0 l 97 0 m 468 1333 l 556 1333 l 472 1118 l 385 1118 "},"Л":{"ha":972,"x_min":0,"x_max":0,"o":"m 28 91 b 183 317 130 81 151 114 b 243 1000 217 535 232 748 l 874 1000 l 874 0 l 772 0 l 772 902 l 342 902 b 282 269 329 710 319 505 b 28 0 253 91 215 -48 l 28 91 "},"М":{"ha":1167,"x_min":0,"x_max":0,"o":"m 97 1000 l 191 1000 l 584 159 l 975 1000 l 1070 1000 l 1070 1 l 973 1 l 973 772 l 617 0 l 551 0 l 195 772 l 195 0 l 97 0 "},"Н":{"ha":951,"x_min":0,"x_max":0,"o":"m 97 1000 l 199 1000 l 199 549 l 752 549 l 752 1000 l 853 1000 l 853 0 l 752 0 l 752 451 l 199 451 l 199 0 l 97 0 "},"О":{"ha":1005,"x_min":0,"x_max":0,"o":"m 502 -21 b 42 500 203 -21 42 192 b 502 1021 42 808 203 1021 b 963 500 801 1021 963 808 b 502 -21 963 192 801 -21 m 150 500 b 502 77 148 250 267 78 b 855 500 737 76 855 250 b 502 923 855 750 737 922 b 150 500 267 924 152 750 "},"П":{"ha":960,"x_min":0,"x_max":0,"o":"m 97 1000 l 863 1000 l 863 0 l 761 0 l 761 902 l 199 902 l 199 0 l 97 0 "},"Р":{"ha":839,"x_min":0,"x_max":0,"o":"m 97 1000 l 483 1000 b 553 994 503 1000 528 999 b 797 690 710 970 797 846 b 553 385 797 534 709 409 b 483 380 528 381 502 380 l 199 380 l 199 0 l 97 0 m 481 477 b 542 483 497 477 522 478 b 692 690 645 505 692 597 b 542 897 692 783 645 874 b 481 902 522 901 497 902 l 199 902 l 199 477 "},"С":{"ha":994,"x_min":0,"x_max":0,"o":"m 502 -21 b 42 500 203 -21 42 192 b 502 1021 42 808 203 1021 b 938 692 734 1021 883 892 l 834 665 b 502 923 792 823 681 923 b 149 500 267 923 151 750 b 502 77 148 250 267 77 b 834 335 681 77 792 177 l 938 308 b 502 -21 883 108 734 -21 "},"Т":{"ha":828,"x_min":0,"x_max":0,"o":"m 363 902 l 14 902 l 14 1000 l 815 1000 l 815 902 l 465 902 l 465 0 l 363 0 "},"У":{"ha":865,"x_min":0,"x_max":0,"o":"m 378 237 l 23 1000 l 136 1000 l 432 347 l 733 1000 l 842 1000 l 377 0 l 266 0 "},"Ў":{"ha":865,"x_min":0,"x_max":0,"o":"m 378 237 l 23 1000 l 136 1000 l 432 347 l 733 1000 l 842 1000 l 377 0 l 266 0 m 334 1268 b 428 1174 334 1216 376 1174 b 523 1268 481 1174 523 1216 l 608 1268 b 428 1089 608 1169 528 1089 b 249 1268 329 1089 249 1169 "},"Ф":{"ha":987,"x_min":0,"x_max":0,"o":"m 442 133 b 42 531 237 98 42 244 b 442 931 42 817 237 965 l 442 1000 l 544 1000 l 544 931 b 945 531 749 965 945 817 b 544 133 945 244 749 98 l 544 0 l 442 0 l 442 133 m 147 531 b 442 230 147 336 266 205 l 442 835 b 147 531 266 860 147 725 m 544 230 b 840 528 720 205 840 337 b 544 835 840 721 720 860 l 544 230 "},"Х":{"ha":842,"x_min":0,"x_max":0,"o":"m 360 506 l 23 1000 l 147 1000 l 421 592 l 695 1000 l 819 1000 l 482 506 l 828 0 l 704 0 l 421 420 l 138 0 l 14 0 "},"Ч":{"ha":898,"x_min":0,"x_max":0,"o":"m 699 408 b 453 349 636 372 553 349 b 97 723 192 349 97 505 l 97 1000 l 200 1000 l 200 758 b 463 449 200 572 264 449 b 699 519 568 449 651 482 l 699 1000 l 801 1000 l 801 0 l 699 0 "},"Ц":{"ha":995,"x_min":0,"x_max":0,"o":"m 879 0 l 97 0 l 97 1000 l 199 1000 l 199 94 l 773 94 l 773 1000 l 875 1000 l 875 94 l 981 94 l 981 -130 l 879 -130 "},"Ш":{"ha":1259,"x_min":0,"x_max":0,"o":"m 97 1000 l 199 1000 l 199 98 l 578 98 l 578 1000 l 681 1000 l 681 98 l 1060 98 l 1060 1000 l 1162 1000 l 1162 0 l 97 0 "},"Щ":{"ha":1282,"x_min":0,"x_max":0,"o":"m 1166 0 l 97 0 l 97 1000 l 199 1000 l 199 98 l 578 98 l 578 1000 l 681 1000 l 681 98 l 1060 98 l 1060 1000 l 1162 1000 l 1162 94 l 1268 94 l 1268 -130 l 1166 -130 "},"Џ":{"ha":1019,"x_min":0,"x_max":0,"o":"m 458 0 l 97 0 l 97 1000 l 199 1000 l 199 98 l 819 98 l 819 1000 l 922 1000 l 922 0 l 560 0 l 560 -167 l 458 -167 "},"Ь":{"ha":852,"x_min":0,"x_max":0,"o":"m 97 1000 l 199 1000 l 199 620 l 483 620 b 553 615 502 620 528 619 b 797 310 709 591 797 466 b 553 6 797 154 709 30 b 483 0 528 1 502 0 l 97 0 m 480 98 b 542 103 497 98 521 99 b 692 310 644 126 692 217 b 542 517 692 403 644 495 b 480 523 521 522 497 523 l 199 523 l 199 98 "},"Ы":{"ha":1094,"x_min":0,"x_max":0,"o":"m 97 1000 l 199 1000 l 199 620 l 483 620 b 553 615 502 620 528 619 b 797 310 709 591 797 466 b 553 6 797 154 709 30 b 483 0 528 1 502 0 l 97 0 m 480 98 b 542 103 497 98 521 99 b 692 310 644 126 692 217 b 542 517 692 403 644 495 b 480 523 521 522 497 523 l 199 523 l 199 98 m 895 1000 l 997 1000 l 997 0 l 895 0 "},"Ъ":{"ha":858,"x_min":0,"x_max":0,"o":"m 120 913 l -9 913 l -9 1000 l 222 1000 l 222 620 l 506 620 b 577 615 526 620 551 619 b 820 310 733 591 820 466 b 577 6 820 154 733 30 b 506 0 551 1 526 0 l 120 0 m 503 98 b 566 103 520 98 544 99 b 715 310 668 126 715 217 b 566 517 715 403 668 495 b 503 523 544 522 520 523 l 222 523 l 222 98 "},"Љ":{"ha":1513,"x_min":0,"x_max":0,"o":"m 758 902 l 328 902 b 268 269 315 710 305 505 b 14 0 240 91 201 -48 l 14 91 b 169 317 116 81 137 114 b 229 1000 203 535 218 748 l 860 1000 l 860 620 l 1144 620 b 1215 615 1163 620 1189 619 b 1458 310 1370 591 1458 466 b 1215 6 1458 154 1370 30 b 1144 0 1189 1 1163 0 l 758 0 m 1141 98 b 1203 103 1158 98 1182 99 b 1353 310 1306 126 1353 217 b 1203 517 1353 403 1306 495 b 1141 523 1182 522 1158 523 l 860 523 l 860 98 "},"Њ":{"ha":1470,"x_min":0,"x_max":0,"o":"m 97 1000 l 199 1000 l 199 620 l 714 620 l 714 1000 l 816 1000 l 816 620 l 1100 620 b 1171 615 1119 620 1145 619 b 1414 310 1326 591 1414 466 b 1171 6 1414 154 1326 30 b 1100 0 1145 1 1119 0 l 714 0 l 714 522 l 199 522 l 199 0 l 97 0 m 1097 98 b 1160 103 1114 98 1138 99 b 1309 310 1262 126 1309 217 b 1160 517 1309 403 1262 495 b 1097 523 1138 522 1114 523 l 816 523 l 816 98 "},"Ѕ":{"ha":856,"x_min":0,"x_max":0,"o":"m 444 -21 b 47 267 235 -21 81 90 l 151 285 b 449 77 184 155 299 77 b 706 269 597 77 706 151 b 552 431 706 372 622 410 l 299 506 b 85 746 176 542 85 612 b 427 1020 85 915 230 1021 b 804 728 627 1019 772 908 l 697 709 b 426 923 677 839 566 922 b 193 750 292 924 193 849 b 371 592 193 649 293 615 l 567 535 b 810 273 648 512 810 463 b 444 -21 810 87 653 -21 "},"Є":{"ha":995,"x_min":0,"x_max":0,"o":"m 517 -21 b 60 500 221 -21 56 208 b 517 1021 65 812 226 1021 b 953 676 742 1021 903 895 l 850 660 b 521 922 813 822 692 919 b 170 549 304 924 185 769 l 538 549 l 538 451 l 171 451 b 252 201 175 362 193 278 b 521 77 315 116 413 78 b 846 324 681 75 802 170 l 947 298 b 517 -21 894 95 733 -21 "},"Э":{"ha":976,"x_min":0,"x_max":0,"o":"m 478 -21 b 49 298 262 -21 101 95 l 149 324 b 474 77 193 170 315 75 b 743 201 583 78 681 116 b 824 451 802 278 820 362 l 458 451 l 458 549 l 825 549 b 474 922 810 769 691 924 b 145 660 303 919 183 822 l 42 676 b 478 1021 92 895 253 1021 b 935 500 769 1021 930 812 b 478 -21 940 208 774 -21 "},"І":{"ha":324,"x_min":0,"x_max":0,"o":"m 111 1000 l 213 1000 l 213 0 l 111 0 "},"Ї":{"ha":324,"x_min":0,"x_max":0,"o":"m 111 1000 l 213 1000 l 213 0 l 111 0 m -26 1258 l 85 1258 l 85 1147 l -26 1147 m 239 1258 l 350 1258 l 350 1147 l 239 1147 "},"Ј":{"ha":644,"x_min":0,"x_max":0,"o":"m 268 -20 b 0 184 134 -20 33 60 l 102 208 b 267 78 119 135 185 78 b 409 158 319 78 378 101 b 429 308 429 198 429 242 l 429 1000 l 532 1000 l 532 308 b 499 106 532 224 535 169 b 268 -20 451 21 366 -20 "},"Ћ":{"ha":898,"x_min":0,"x_max":0,"o":"m 0 1000 l 417 1000 l 417 906 l 199 906 l 199 592 b 445 651 262 628 345 651 b 801 277 706 651 801 495 l 801 0 l 698 0 l 698 242 b 435 551 698 428 634 551 b 199 481 330 551 247 518 l 199 0 l 97 0 l 97 906 l 0 906 "},"Ю":{"ha":1274,"x_min":0,"x_max":0,"o":"m 97 1000 l 199 1000 l 199 551 l 432 551 b 831 1020 447 812 581 1020 b 1233 500 1098 1020 1233 784 b 831 -21 1233 206 1098 -21 b 432 449 581 -21 447 188 l 199 449 l 199 0 l 97 0 m 539 500 b 831 77 537 270 636 77 b 1124 500 1027 77 1122 270 b 831 922 1126 730 1027 922 b 539 500 636 922 541 730 "},"Я":{"ha":876,"x_min":0,"x_max":0,"o":"m 676 0 l 676 380 l 357 380 l 173 0 l 56 0 l 253 405 b 78 690 140 450 78 558 b 322 994 78 846 166 970 b 392 1000 347 999 373 1000 l 778 1000 l 778 0 m 183 690 b 333 483 183 597 231 505 b 395 477 354 478 378 477 l 676 477 l 676 902 l 395 902 b 333 897 378 902 354 901 b 183 690 231 874 183 783 "},"Ђ":{"ha":897,"x_min":0,"x_max":0,"o":"m 102 906 l 0 906 l 0 1000 l 417 1000 l 417 906 l 194 906 l 194 644 b 485 771 253 731 356 771 b 842 392 713 771 842 645 b 490 0 842 158 730 0 l 490 103 b 739 398 656 103 739 215 b 476 672 739 591 644 672 b 221 510 340 672 253 619 b 204 340 206 457 204 394 l 204 0 l 102 0 "},"Ү":{"ha":772,"x_min":0,"x_max":0,"o":"m 335 419 l 0 1000 l 118 1000 l 387 535 l 654 1000 l 772 1000 l 438 419 l 438 0 l 335 0 "},"Һ":{"ha":898,"x_min":0,"x_max":0,"o":"m 199 592 b 445 651 262 628 345 651 b 801 277 706 651 801 495 l 801 0 l 698 0 l 698 242 b 435 551 698 428 634 551 b 199 481 330 551 247 518 l 199 0 l 97 0 l 97 1000 l 199 1000 "},"Ө":{"ha":1033,"x_min":0,"x_max":0,"o":"m 502 -21 b 42 500 203 -21 42 192 b 502 1021 42 808 203 1021 b 963 500 801 1021 963 808 b 502 -21 963 192 801 -21 m 151 449 b 502 77 165 227 283 78 b 853 449 721 76 838 227 l 151 449 m 853 551 b 502 923 838 773 721 922 b 152 551 283 924 169 773 "},"а":{"ha":772,"x_min":0,"x_max":0,"o":"m 312 -21 b 56 201 142 -21 56 82 b 247 419 56 324 135 390 b 588 474 348 444 488 460 b 388 674 587 609 531 674 b 183 530 285 674 212 630 l 84 559 b 390 771 119 693 224 771 b 666 621 526 771 626 718 b 688 466 684 577 688 522 l 688 0 l 597 0 l 597 124 b 312 -21 539 29 440 -21 m 158 201 b 324 67 158 136 203 67 b 577 265 467 67 558 151 b 587 384 585 301 587 350 b 288 338 488 372 370 360 b 158 201 224 319 158 283 "},"б":{"ha":810,"x_min":0,"x_max":0,"o":"m 398 -22 b 57 383 188 -20 64 115 b 100 747 53 501 72 669 b 230 917 124 816 171 878 b 668 1021 344 994 533 994 l 679 928 b 282 838 578 908 381 902 b 158 578 207 792 168 697 b 427 713 215 667 316 713 b 754 348 629 713 754 563 b 398 -22 754 124 617 -22 m 165 346 b 406 76 165 178 249 76 b 647 346 563 76 647 183 b 404 615 647 513 558 615 b 165 346 250 615 165 513 "},"в":{"ha":744,"x_min":0,"x_max":0,"o":"m 97 750 l 406 750 b 526 737 437 750 487 747 b 666 545 610 714 666 642 b 619 419 666 491 649 449 b 572 384 606 403 588 391 b 620 365 587 381 604 374 b 702 204 673 333 702 280 b 567 12 702 101 649 35 b 446 0 530 1 483 0 l 97 0 m 441 87 b 517 96 460 87 494 90 b 597 207 572 110 597 157 b 491 326 597 273 554 317 b 426 331 470 331 444 331 l 199 331 l 199 87 m 409 419 b 489 430 433 419 466 422 b 559 540 537 447 559 491 b 485 651 559 592 534 635 b 395 663 452 663 406 663 l 199 663 l 199 419 "},"г":{"ha":646,"x_min":0,"x_max":0,"o":"m 97 750 l 611 750 l 611 652 l 199 652 l 199 0 l 97 0 "},"ѓ":{"ha":646,"x_min":0,"x_max":0,"o":"m 97 750 l 611 750 l 611 652 l 199 652 l 199 0 l 97 0 m 345 1083 l 433 1083 l 349 868 l 262 868 "},"ґ":{"ha":646,"x_min":0,"x_max":0,"o":"m 97 750 l 509 750 l 509 880 l 611 880 l 611 652 l 199 652 l 199 0 l 97 0 "},"д":{"ha":831,"x_min":0,"x_max":0,"o":"m 42 88 b 178 261 126 88 156 140 b 222 750 202 379 211 513 l 717 750 l 717 88 l 790 88 l 790 -167 l 691 -167 l 691 0 l 140 0 l 140 -167 l 42 -167 l 42 88 m 616 88 l 616 663 l 316 663 b 274 231 309 522 298 334 b 215 88 260 165 247 118 "},"е":{"ha":812,"x_min":0,"x_max":0,"o":"m 415 -21 b 56 372 196 -21 56 134 b 410 771 56 617 194 771 b 756 347 633 771 763 611 l 165 347 b 410 77 173 174 261 77 b 646 222 517 77 599 128 l 741 185 b 415 -21 681 53 560 -21 m 649 432 b 413 677 633 594 553 677 b 167 432 269 677 183 590 "},"ѐ":{"ha":812,"x_min":0,"x_max":0,"o":"m 415 -21 b 56 372 196 -21 56 134 b 410 771 56 617 194 771 b 756 347 633 771 763 611 l 165 347 b 410 77 173 174 261 77 b 646 222 517 77 599 128 l 741 185 b 415 -21 681 53 560 -21 m 649 432 b 413 677 633 594 553 677 b 167 432 269 677 183 590 m 381 1083 l 465 868 l 377 868 l 294 1083 "},"ё":{"ha":812,"x_min":0,"x_max":0,"o":"m 415 -21 b 56 372 196 -21 56 134 b 410 771 56 617 194 771 b 756 347 633 771 763 611 l 165 347 b 410 77 173 174 261 77 b 646 222 517 77 599 128 l 741 185 b 415 -21 681 53 560 -21 m 649 432 b 413 677 633 594 553 677 b 167 432 269 677 183 590 m 223 1008 l 334 1008 l 334 897 l 223 897 m 488 1008 l 599 1008 l 599 897 l 488 897 "},"ж":{"ha":970,"x_min":0,"x_max":0,"o":"m 331 375 l 27 750 l 142 750 l 438 380 l 438 750 l 533 750 l 533 380 l 828 750 l 943 750 l 640 375 l 956 0 l 838 0 l 533 370 l 533 0 l 438 0 l 438 370 l 133 0 l 14 0 "},"з":{"ha":703,"x_min":0,"x_max":0,"o":"m 367 -21 b 37 167 216 -21 101 49 l 119 219 b 361 77 174 126 256 77 b 544 220 472 77 544 131 b 352 344 544 312 480 344 l 263 344 l 263 431 l 351 431 b 524 548 455 431 524 467 b 363 674 524 633 451 674 b 137 576 274 674 191 633 l 72 644 b 370 771 147 726 248 771 b 628 555 515 771 628 691 b 549 392 628 485 600 431 b 648 210 616 358 648 283 b 367 -21 648 67 526 -21 "},"и":{"ha":790,"x_min":0,"x_max":0,"o":"m 693 0 l 594 0 l 594 584 l 183 0 l 97 0 l 97 750 l 196 750 l 196 171 l 608 750 l 693 750 "},"й":{"ha":790,"x_min":0,"x_max":0,"o":"m 693 0 l 594 0 l 594 584 l 183 0 l 97 0 l 97 750 l 196 750 l 196 171 l 608 750 l 693 750 m 314 1018 b 408 924 314 966 356 924 b 503 1018 461 924 503 966 l 588 1018 b 408 839 588 919 508 839 b 229 1018 309 839 229 919 "},"ѝ":{"ha":790,"x_min":0,"x_max":0,"o":"m 693 0 l 594 0 l 594 584 l 183 0 l 97 0 l 97 750 l 196 750 l 196 171 l 608 750 l 693 750 m 409 1083 l 492 868 l 405 868 l 322 1083 "},"к":{"ha":689,"x_min":0,"x_max":0,"o":"m 97 750 l 200 750 l 200 389 l 535 750 l 671 750 l 319 375 l 717 0 l 568 0 l 200 361 l 200 0 l 97 0 "},"ќ":{"ha":689,"x_min":0,"x_max":0,"o":"m 97 750 l 200 750 l 200 389 l 535 750 l 671 750 l 319 375 l 717 0 l 568 0 l 200 361 l 200 0 l 97 0 m 367 1083 l 454 1083 l 371 868 l 283 868 "},"л":{"ha":799,"x_min":0,"x_max":0,"o":"m 28 90 b 141 201 112 74 127 119 b 192 750 164 336 178 512 l 702 750 l 702 0 l 601 0 l 601 652 l 287 652 b 233 145 273 456 254 254 b 28 0 208 22 169 -28 l 28 90 "},"м":{"ha":960,"x_min":0,"x_max":0,"o":"m 97 750 l 188 750 l 480 136 l 773 750 l 863 750 l 863 0 l 765 0 l 765 532 l 513 0 l 448 0 l 196 532 l 196 0 l 97 0 "},"н":{"ha":821,"x_min":0,"x_max":0,"o":"m 97 750 l 199 750 l 199 424 l 622 424 l 622 750 l 724 750 l 724 0 l 622 0 l 622 326 l 199 326 l 199 0 l 97 0 "},"о":{"ha":822,"x_min":0,"x_max":0,"o":"m 410 -21 b 56 376 187 -21 56 143 b 410 771 56 612 191 771 b 766 376 635 771 766 608 b 410 -21 766 140 633 -21 m 164 376 b 410 77 164 195 248 77 b 658 376 577 77 658 199 b 410 673 658 556 576 673 b 164 376 242 673 164 551 "},"п":{"ha":790,"x_min":0,"x_max":0,"o":"m 97 750 l 693 750 l 693 0 l 591 0 l 591 652 l 199 652 l 199 0 l 97 0 "},"р":{"ha":822,"x_min":0,"x_max":0,"o":"m 434 -21 b 199 90 333 -21 253 21 l 199 -333 l 97 -333 l 97 750 l 188 750 l 188 647 b 438 771 243 724 327 771 b 767 376 644 771 767 599 b 434 -21 767 151 644 -21 m 188 376 b 424 74 188 202 264 74 b 658 376 580 74 658 205 b 422 676 658 545 583 676 b 188 376 265 676 188 552 "},"с":{"ha":769,"x_min":0,"x_max":0,"o":"m 408 -21 b 56 375 181 -21 58 144 b 409 771 58 611 185 771 b 723 563 560 771 681 692 l 623 531 b 408 673 588 621 506 673 b 164 375 242 673 166 550 b 408 77 166 195 247 77 b 620 215 510 77 583 124 l 723 184 b 408 -21 667 51 557 -21 "},"т":{"ha":703,"x_min":0,"x_max":0,"o":"m 301 656 l 35 656 l 35 750 l 669 750 l 669 656 l 403 656 l 403 0 l 301 0 "},"у":{"ha":733,"x_min":0,"x_max":0,"o":"m 328 2 l 23 750 l 131 750 l 378 133 l 605 750 l 709 750 l 306 -333 l 204 -333 "},"ў":{"ha":733,"x_min":0,"x_max":0,"o":"m 328 2 l 23 750 l 131 750 l 378 133 l 605 750 l 709 750 l 306 -333 l 204 -333 m 301 1018 b 395 924 301 966 343 924 b 490 1018 448 924 490 966 l 574 1018 b 395 839 574 919 494 839 b 216 1018 296 839 216 919 "},"ф":{"ha":1000,"x_min":0,"x_max":0,"o":"m 453 -15 b 56 374 233 -49 56 99 b 453 765 56 649 233 799 l 453 994 l 547 994 l 547 765 b 944 374 767 799 944 649 b 547 -15 944 99 767 -49 l 547 -312 l 453 -312 l 453 -15 m 161 374 b 453 81 161 146 305 56 l 453 669 b 161 374 303 694 161 602 m 547 81 b 839 374 695 56 839 144 b 547 669 839 603 697 694 l 547 81 "},"х":{"ha":732,"x_min":0,"x_max":0,"o":"m 307 379 l 20 750 l 142 750 l 367 458 l 589 750 l 711 750 l 424 379 l 718 0 l 595 0 l 367 301 l 137 0 l 14 0 "},"ч":{"ha":756,"x_min":0,"x_max":0,"o":"m 556 279 b 346 233 506 253 430 233 b 69 430 194 233 97 302 b 56 585 56 488 56 563 l 56 750 l 158 750 l 158 585 b 166 476 158 553 159 512 b 367 322 185 374 248 322 b 556 375 441 322 510 342 l 556 750 l 658 750 l 658 0 l 556 0 l 556 279 "},"ц":{"ha":858,"x_min":0,"x_max":0,"o":"m 742 0 l 97 0 l 97 750 l 199 750 l 199 98 l 591 98 l 591 750 l 693 750 l 693 94 l 844 94 l 844 -130 l 742 -130 "},"ш":{"ha":1053,"x_min":0,"x_max":0,"o":"m 97 750 l 196 750 l 196 94 l 477 94 l 477 750 l 576 750 l 576 94 l 857 94 l 857 750 l 956 750 l 956 0 l 97 0 "},"щ":{"ha":1068,"x_min":0,"x_max":0,"o":"m 952 0 l 97 0 l 97 750 l 196 750 l 196 94 l 477 94 l 477 750 l 576 750 l 576 94 l 857 94 l 857 750 l 956 750 l 956 94 l 1054 94 l 1054 -130 l 952 -130 "},"џ":{"ha":790,"x_min":0,"x_max":0,"o":"m 359 0 l 97 0 l 97 750 l 199 750 l 199 98 l 591 98 l 591 750 l 693 750 l 693 0 l 461 0 l 461 -167 l 359 -167 "},"ь":{"ha":742,"x_min":0,"x_max":0,"o":"m 97 750 l 199 750 l 199 467 l 375 467 b 495 460 419 467 462 466 b 687 234 606 440 687 374 b 512 10 687 105 613 32 b 384 0 474 1 427 0 l 98 0 m 380 88 b 484 97 410 88 453 88 b 581 234 533 110 581 148 b 474 372 581 318 539 358 b 380 380 445 378 410 380 l 199 380 l 199 88 "},"ы":{"ha":931,"x_min":0,"x_max":0,"o":"m 97 750 l 199 750 l 199 467 l 330 467 b 450 460 373 467 417 466 b 642 234 560 438 642 374 b 466 10 642 105 567 32 b 339 0 428 1 381 0 l 98 0 m 335 88 b 438 97 365 88 408 88 b 536 234 488 110 536 148 b 429 372 536 318 494 358 b 335 380 399 378 365 380 l 199 380 l 199 88 m 731 750 l 833 750 l 833 0 l 731 0 "},"ъ":{"ha":776,"x_min":0,"x_max":0,"o":"m 130 663 l 28 663 l 28 750 l 233 750 l 233 467 l 408 467 b 528 460 451 467 495 466 b 720 234 639 440 720 374 b 544 10 720 105 645 32 b 417 0 506 1 460 0 l 131 0 m 413 88 b 517 97 444 88 487 88 b 615 234 566 110 615 148 b 508 372 615 318 572 358 b 413 380 478 378 443 380 l 233 380 l 233 88 "},"љ":{"ha":1163,"x_min":0,"x_max":0,"o":"m 28 90 b 141 201 112 74 126 118 b 192 750 165 336 178 512 l 665 750 l 665 467 l 795 467 b 916 460 831 467 874 467 b 1108 235 1018 442 1108 377 b 932 10 1108 102 1029 31 b 805 0 887 0 832 0 l 563 0 l 563 652 l 287 652 b 233 145 273 456 254 254 b 28 0 208 22 169 -28 l 28 90 m 801 88 b 904 97 835 88 872 88 b 1002 236 951 109 1002 147 b 895 372 1002 319 959 358 b 801 380 860 380 819 380 l 665 380 l 665 88 "},"њ":{"ha":1117,"x_min":0,"x_max":0,"o":"m 97 750 l 199 750 l 199 467 l 517 467 l 517 750 l 619 750 l 619 467 l 749 467 b 870 460 785 467 828 467 b 1062 235 972 442 1062 377 b 886 10 1062 102 983 31 b 759 0 841 0 786 0 l 517 0 l 517 380 l 199 380 l 199 0 l 97 0 m 755 88 b 858 97 789 88 826 88 b 956 236 906 109 956 147 b 849 372 956 319 913 358 b 755 380 815 380 774 380 l 619 380 l 619 88 "},"ѕ":{"ha":729,"x_min":0,"x_max":0,"o":"m 377 -20 b 56 195 201 -20 81 60 l 160 213 b 383 73 181 127 266 73 b 567 206 497 73 567 124 b 344 348 567 276 535 297 b 78 557 141 403 78 452 b 363 771 78 685 194 771 b 672 552 533 771 656 683 l 567 533 b 362 678 553 622 474 676 b 182 562 256 680 182 633 b 401 430 182 502 224 474 b 673 208 608 377 673 324 b 377 -20 673 66 561 -20 "},"є":{"ha":769,"x_min":0,"x_max":0,"o":"m 408 -21 b 56 374 186 -21 56 138 b 406 771 56 611 185 771 b 723 563 562 771 681 692 l 623 531 b 406 673 587 622 506 673 b 167 419 257 673 179 569 l 503 419 l 503 331 l 167 331 b 408 77 181 176 260 77 b 620 215 510 77 583 124 l 723 184 b 408 -21 667 51 557 -21 "},"э":{"ha":769,"x_min":0,"x_max":0,"o":"m 362 -21 b 47 184 213 -21 103 51 l 149 215 b 361 77 187 124 260 77 b 602 331 509 77 589 176 l 267 331 l 267 419 l 602 419 b 363 673 590 569 513 673 b 147 531 263 673 183 622 l 47 563 b 364 771 88 692 208 771 b 714 374 584 771 714 611 b 362 -21 714 138 583 -21 "},"і":{"ha":324,"x_min":0,"x_max":0,"o":"m 111 1007 l 213 1007 l 213 892 l 111 892 m 111 750 l 213 750 l 213 0 l 111 0 "},"ї":{"ha":324,"x_min":0,"x_max":0,"o":"m 111 750 l 213 750 l 213 0 l 111 0 m -26 1008 l 85 1008 l 85 897 l -26 897 m 239 1008 l 350 1008 l 350 897 l 239 897 "},"ј":{"ha":348,"x_min":0,"x_max":0,"o":"m -14 -235 l 28 -235 b 140 -122 97 -235 140 -203 l 140 750 l 241 750 l 241 -147 b 59 -333 241 -272 182 -333 l -14 -333 m 140 1007 l 241 1007 l 241 892 l 140 892 "},"ћ":{"ha":825,"x_min":0,"x_max":0,"o":"m 639 383 b 422 672 639 548 578 672 b 199 400 277 672 199 569 l 199 0 l 97 0 l 97 824 l 8 824 l 8 911 l 97 911 l 97 1000 l 189 1000 l 189 911 l 356 911 l 356 824 l 189 824 l 189 646 b 441 769 244 727 333 769 b 742 413 666 769 742 581 l 742 0 l 639 0 l 639 383 "},"ю":{"ha":1099,"x_min":0,"x_max":0,"o":"m 688 -21 b 345 324 488 -21 363 115 l 199 324 l 199 0 l 97 0 l 97 750 l 199 750 l 199 426 l 344 426 b 688 771 362 638 491 771 b 1043 376 912 771 1043 607 b 688 -21 1043 141 910 -21 m 441 376 b 685 77 441 195 525 77 b 935 376 853 77 935 197 b 686 673 935 558 851 673 b 441 376 528 673 441 561 "},"я":{"ha":767,"x_min":0,"x_max":0,"o":"m 567 283 l 392 283 b 357 283 381 283 369 283 l 167 0 l 56 0 l 252 296 b 80 513 155 321 80 391 b 256 740 80 639 158 716 b 383 750 300 750 349 750 l 669 750 l 670 0 l 567 0 m 185 515 b 294 378 185 440 231 394 b 387 370 327 370 363 370 l 567 370 l 567 663 l 387 663 b 284 652 364 663 319 662 b 185 515 238 638 185 594 "},"ђ":{"ha":825,"x_min":0,"x_max":0,"o":"m 644 -273 b 527 -267 606 -281 555 -275 l 527 -185 b 639 -81 601 -195 639 -185 l 639 383 b 422 672 639 548 578 672 b 199 400 277 672 199 569 l 199 0 l 97 0 l 97 824 l 8 824 l 8 911 l 97 911 l 97 1000 l 189 1000 l 189 911 l 356 911 l 356 824 l 189 824 l 189 644 b 441 769 244 728 335 769 b 742 413 666 769 742 581 l 742 -128 b 644 -273 742 -216 706 -261 "},"ү":{"ha":706,"x_min":0,"x_max":0,"o":"m 300 0 l 28 750 l 133 750 l 353 133 l 574 750 l 678 750 l 406 0 l 406 -250 l 300 -250 "},"һ":{"ha":774,"x_min":0,"x_max":0,"o":"m 218 471 b 428 517 268 497 344 517 b 706 320 581 517 678 448 b 719 165 719 263 719 188 l 719 0 l 616 0 l 616 165 b 608 274 616 197 615 238 b 408 428 590 376 526 428 b 218 375 333 428 264 408 l 218 0 l 116 0 l 116 750 l 218 750 l 218 471 "},"ө":{"ha":822,"x_min":0,"x_max":0,"o":"m 410 -21 b 56 376 187 -21 56 143 b 410 771 56 612 191 771 b 766 376 635 771 766 608 b 410 -21 766 140 633 -21 m 656 419 b 410 673 644 574 563 673 b 165 419 256 673 178 570 m 166 331 b 410 77 178 176 262 77 b 656 331 563 77 643 178 l 166 331 "},"Α":{"ha":880,"x_min":0,"x_max":0,"o":"m 372 1000 l 508 1000 l 852 0 l 746 0 l 662 242 l 217 242 l 134 0 l 28 0 m 628 338 l 439 885 l 251 338 "},"Β":{"ha":851,"x_min":0,"x_max":0,"o":"m 97 1000 l 483 1000 b 762 742 651 1000 762 884 b 644 531 762 651 717 572 b 810 281 749 485 810 397 b 515 0 810 107 692 0 l 97 0 m 490 98 b 705 279 612 98 705 165 b 509 477 705 390 622 477 l 200 477 l 200 98 m 483 574 b 656 744 578 574 656 644 b 483 903 656 838 583 903 l 200 903 l 200 574 "},"Γ":{"ha":736,"x_min":0,"x_max":0,"o":"m 97 1000 l 722 1000 l 722 902 l 199 902 l 199 0 l 97 0 "},"Δ":{"ha":880,"x_min":0,"x_max":0,"o":"m 372 1000 l 508 1000 l 852 0 l 28 0 m 712 98 l 439 884 l 168 98 "},"Ε":{"ha":792,"x_min":0,"x_max":0,"o":"m 97 1000 l 722 1000 l 722 902 l 199 902 l 199 556 l 639 556 l 639 458 l 199 458 l 199 98 l 722 98 l 722 0 l 97 0 "},"Ζ":{"ha":853,"x_min":0,"x_max":0,"o":"m 69 22 l 616 902 l 83 902 l 83 1000 l 783 1000 l 783 976 l 240 97 l 778 97 l 778 0 l 69 0 "},"Η":{"ha":951,"x_min":0,"x_max":0,"o":"m 97 1000 l 199 1000 l 199 549 l 752 549 l 752 1000 l 853 1000 l 853 0 l 752 0 l 752 451 l 199 451 l 199 0 l 97 0 "},"Θ":{"ha":1005,"x_min":0,"x_max":0,"o":"m 502 -21 b 42 500 203 -21 42 192 b 502 1021 42 808 203 1021 b 963 500 801 1021 963 808 b 502 -21 963 192 801 -21 m 150 500 b 502 77 148 250 267 78 b 855 500 737 76 855 250 b 502 923 855 750 737 922 b 150 500 267 924 152 750 m 328 543 l 676 543 l 676 456 l 328 456 "},"Ι":{"ha":324,"x_min":0,"x_max":0,"o":"m 111 1000 l 213 1000 l 213 0 l 111 0 "},"Κ":{"ha":824,"x_min":0,"x_max":0,"o":"m 97 1000 l 199 1000 l 199 528 l 656 1000 l 786 1000 l 320 517 l 824 0 l 691 0 l 199 500 l 199 0 l 97 0 "},"Λ":{"ha":838,"x_min":0,"x_max":0,"o":"m 487 1000 l 831 0 l 725 0 l 418 884 l 113 0 l 7 0 l 351 1000 "},"Μ":{"ha":1167,"x_min":0,"x_max":0,"o":"m 97 1000 l 191 1000 l 584 159 l 975 1000 l 1070 1000 l 1070 1 l 973 1 l 973 772 l 617 0 l 551 0 l 195 772 l 195 0 l 97 0 "},"Ν":{"ha":951,"x_min":0,"x_max":0,"o":"m 97 1000 l 200 1000 l 751 181 l 751 1000 l 853 1000 l 853 0 l 751 0 l 200 820 l 200 0 l 97 0 "},"Ξ":{"ha":960,"x_min":0,"x_max":0,"o":"m 97 1000 l 863 1000 l 863 902 l 97 902 m 97 98 l 863 98 l 863 0 l 97 0 m 167 549 l 794 549 l 794 451 l 167 451 "},"Ο":{"ha":1005,"x_min":0,"x_max":0,"o":"m 502 -21 b 42 500 203 -21 42 192 b 502 1021 42 808 203 1021 b 963 500 801 1021 963 808 b 502 -21 963 192 801 -21 m 150 500 b 502 77 148 250 267 78 b 855 500 737 76 855 250 b 502 923 855 750 737 922 b 150 500 267 924 152 750 "},"Π":{"ha":960,"x_min":0,"x_max":0,"o":"m 97 1000 l 863 1000 l 863 0 l 761 0 l 761 902 l 199 902 l 199 0 l 97 0 "},"Ρ":{"ha":839,"x_min":0,"x_max":0,"o":"m 97 1000 l 483 1000 b 553 994 503 1000 528 999 b 797 690 710 970 797 846 b 553 385 797 534 709 409 b 483 380 528 381 502 380 l 199 380 l 199 0 l 97 0 m 481 477 b 542 483 497 477 522 478 b 692 690 645 505 692 597 b 542 897 692 783 645 874 b 481 902 522 901 497 902 l 199 902 l 199 477 "},"Σ":{"ha":903,"x_min":0,"x_max":0,"o":"m 97 94 l 497 500 l 97 905 l 97 1000 l 806 1000 l 806 902 l 241 902 l 627 512 l 627 488 l 241 98 l 788 98 l 788 0 l 97 0 "},"Τ":{"ha":828,"x_min":0,"x_max":0,"o":"m 363 902 l 14 902 l 14 1000 l 815 1000 l 815 902 l 465 902 l 465 0 l 363 0 "},"Υ":{"ha":772,"x_min":0,"x_max":0,"o":"m 335 419 l 0 1000 l 118 1000 l 387 535 l 654 1000 l 772 1000 l 438 419 l 438 0 l 335 0 "},"Φ":{"ha":987,"x_min":0,"x_max":0,"o":"m 442 133 b 42 531 237 98 42 244 b 442 931 42 817 237 965 l 442 1000 l 544 1000 l 544 931 b 945 531 749 965 945 817 b 544 133 945 244 749 98 l 544 0 l 442 0 l 442 133 m 147 531 b 442 230 147 336 266 205 l 442 835 b 147 531 266 860 147 725 m 544 230 b 840 528 720 205 840 337 b 544 835 840 721 720 860 l 544 230 "},"Χ":{"ha":842,"x_min":0,"x_max":0,"o":"m 360 506 l 23 1000 l 147 1000 l 421 592 l 695 1000 l 819 1000 l 482 506 l 828 0 l 704 0 l 421 420 l 138 0 l 14 0 "},"Ψ":{"ha":994,"x_min":0,"x_max":0,"o":"m 446 243 b 118 473 281 248 163 332 b 97 604 98 528 97 577 l 97 1000 l 195 1000 l 195 658 b 207 530 195 631 195 580 b 446 338 236 411 324 340 l 446 1000 l 548 1000 l 548 338 b 788 534 672 340 760 415 b 799 658 799 582 799 632 l 799 1000 l 897 1000 l 897 604 b 876 474 897 574 895 528 b 548 243 829 331 710 248 l 548 0 l 446 0 l 446 243 "},"Ω":{"ha":1005,"x_min":0,"x_max":0,"o":"m 47 98 l 235 98 b 42 524 117 192 42 339 b 502 1020 42 804 216 1020 b 963 524 789 1020 963 804 b 770 98 963 339 888 192 l 958 98 l 958 0 l 630 0 l 631 98 b 855 501 731 150 850 291 b 502 922 859 728 725 922 b 150 506 281 922 150 730 b 376 98 150 288 277 149 l 376 0 l 47 0 "},"Ά":{"ha":888,"x_min":0,"x_max":0,"o":"m 380 1000 l 515 1000 l 860 0 l 753 0 l 669 242 l 226 242 l 142 0 l 35 0 m 156 1000 l 244 1000 l 160 785 l 73 785 m 636 338 l 447 885 l 258 338 "},"Έ":{"ha":983,"x_min":0,"x_max":0,"o":"m 289 1000 l 914 1000 l 914 902 l 391 902 l 391 556 l 831 556 l 831 458 l 391 458 l 391 98 l 914 98 l 914 0 l 289 0 m 109 1000 l 197 1000 l 113 785 l 26 785 "},"Ή":{"ha":1137,"x_min":0,"x_max":0,"o":"m 283 1000 l 385 1000 l 385 549 l 938 549 l 938 1000 l 1040 1000 l 1040 0 l 938 0 l 938 451 l 385 451 l 385 0 l 283 0 m 104 1000 l 192 1000 l 108 785 l 21 785 "},"Ί":{"ha":481,"x_min":0,"x_max":0,"o":"m 281 1000 l 383 1000 l 383 0 l 281 0 m 104 1000 l 192 1000 l 108 785 l 21 785 "},"Ό":{"ha":1140,"x_min":0,"x_max":0,"o":"m 638 -21 b 177 500 339 -21 177 192 b 638 1021 177 808 339 1021 b 1099 500 937 1021 1099 808 b 638 -21 1099 192 937 -21 m 118 1000 l 206 1000 l 122 785 l 35 785 m 285 500 b 638 77 283 250 403 78 b 990 500 872 76 990 250 b 638 923 990 750 872 922 b 285 500 403 924 288 750 "},"Ύ":{"ha":1033,"x_min":0,"x_max":0,"o":"m 597 419 l 261 1000 l 379 1000 l 648 535 l 915 1000 l 1033 1000 l 699 419 l 699 0 l 597 0 m 128 1000 l 215 1000 l 132 785 l 44 785 "},"Ώ":{"ha":1160,"x_min":0,"x_max":0,"o":"m 183 98 l 372 98 b 178 524 253 192 178 339 b 639 1020 178 804 353 1020 b 1100 524 926 1020 1100 804 b 907 98 1100 339 1025 192 l 1094 98 l 1094 0 l 767 0 l 767 98 b 992 501 868 150 987 291 b 639 922 996 728 862 922 b 287 506 418 922 287 730 b 513 98 287 288 414 149 l 513 0 l 183 0 m 122 1000 l 210 1000 l 126 785 l 39 785 "},"Ϊ":{"ha":324,"x_min":0,"x_max":0,"o":"m 111 1000 l 213 1000 l 213 0 l 111 0 m -26 1258 l 85 1258 l 85 1147 l -26 1147 m 239 1258 l 350 1258 l 350 1147 l 239 1147 "},"Ϋ":{"ha":772,"x_min":0,"x_max":0,"o":"m 335 419 l 0 1000 l 118 1000 l 387 535 l 654 1000 l 772 1000 l 438 419 l 438 0 l 335 0 m 199 1258 l 310 1258 l 310 1147 l 199 1147 m 463 1258 l 574 1258 l 574 1147 l 463 1147 "},"α":{"ha":846,"x_min":0,"x_max":0,"o":"m 390 -21 b 56 375 177 -21 56 151 b 392 771 56 599 177 771 b 657 606 517 771 611 710 l 657 750 l 749 750 l 749 0 l 657 0 l 657 146 b 390 -21 610 41 514 -21 m 164 376 b 400 74 164 206 242 74 b 634 376 558 74 634 202 b 401 676 634 552 557 676 b 164 376 244 676 164 551 "},"β":{"ha":788,"x_min":0,"x_max":0,"o":"m 97 750 b 113 856 97 788 102 825 b 376 1021 149 960 247 1021 b 660 755 544 1021 660 919 b 540 548 660 658 620 579 b 747 277 635 528 747 441 b 417 -21 747 101 626 -21 b 198 56 322 -21 248 8 l 198 -333 l 97 -333 l 97 750 m 202 293 b 213 199 202 262 205 225 b 422 77 236 123 326 77 b 642 281 551 77 642 159 b 378 486 642 412 540 483 l 378 580 b 555 754 477 591 555 644 b 378 923 555 860 483 923 b 217 823 308 923 242 894 b 202 710 203 787 202 744 l 202 293 "},"γ":{"ha":706,"x_min":0,"x_max":0,"o":"m 300 0 l 28 750 l 133 750 l 353 133 l 574 750 l 678 750 l 406 0 l 406 -250 l 300 -250 "},"δ":{"ha":822,"x_min":0,"x_max":0,"o":"m 409 -20 b 56 340 188 -20 56 124 b 309 681 56 519 149 655 b 163 857 228 715 163 765 b 300 1015 163 928 202 997 b 383 1021 330 1021 358 1021 l 640 1021 l 640 935 l 406 935 b 335 928 378 935 355 933 b 264 853 293 918 264 894 b 524 699 264 780 372 750 b 766 347 678 656 766 523 b 409 -20 766 130 633 -20 m 170 347 b 411 78 170 181 253 78 b 652 349 572 78 652 185 b 411 616 652 513 571 616 b 170 347 249 616 170 508 "},"ε":{"ha":703,"x_min":0,"x_max":0,"o":"m 336 -21 b 56 210 178 -21 56 67 b 155 392 56 283 88 358 b 75 555 103 431 75 485 b 333 771 75 691 189 771 b 632 644 456 771 557 726 l 567 576 b 341 674 513 633 430 674 b 180 548 253 674 180 633 b 353 431 180 467 249 431 l 440 431 l 440 344 l 351 344 b 160 220 224 344 160 312 b 342 77 160 131 232 77 b 585 219 448 77 530 126 l 667 167 b 336 -21 602 49 488 -21 "},"ζ":{"ha":701,"x_min":0,"x_max":0,"o":"m 585 -167 b 373 0 594 -8 524 0 b 56 254 208 0 56 34 b 258 633 56 357 88 453 b 528 906 310 685 412 791 l 97 906 l 97 1000 l 682 1000 l 682 916 b 359 595 597 830 491 720 b 163 263 204 438 163 353 b 422 96 163 126 256 96 b 546 84 444 96 504 94 b 678 -167 638 62 701 -12 l 585 -167 "},"η":{"ha":825,"x_min":0,"x_max":0,"o":"m 639 383 b 422 672 639 548 578 672 b 199 400 277 672 199 569 l 199 0 l 97 0 l 97 750 l 189 750 l 189 646 b 441 769 244 727 333 769 b 742 413 666 769 742 581 l 742 0 l 639 0 l 639 383 "},"θ":{"ha":913,"x_min":0,"x_max":0,"o":"m 456 -21 b 56 500 190 -21 56 216 b 456 1020 56 784 190 1020 b 858 500 723 1020 858 784 b 456 -21 858 206 723 -21 m 165 456 b 456 77 175 246 274 77 b 748 456 640 77 735 246 l 165 456 m 749 544 b 456 922 738 753 640 922 b 165 544 274 922 178 753 "},"ι":{"ha":494,"x_min":0,"x_max":0,"o":"m 282 -6 b 136 88 221 2 168 28 b 111 272 108 142 111 194 l 111 750 l 213 750 l 213 276 b 228 140 213 212 210 176 b 319 84 249 103 279 88 b 443 90 358 80 404 82 l 443 0 b 282 -6 394 -12 327 -13 "},"κ":{"ha":689,"x_min":0,"x_max":0,"o":"m 97 750 l 200 750 l 200 389 l 535 750 l 671 750 l 319 375 l 717 0 l 568 0 l 200 361 l 200 0 l 97 0 "},"λ":{"ha":733,"x_min":0,"x_max":0,"o":"m 328 750 b 152 931 281 872 260 931 l 117 931 l 117 1021 l 163 1021 b 245 1013 181 1021 217 1020 b 433 750 352 990 390 873 l 706 0 l 601 0 l 381 617 l 159 0 l 56 0 l 328 750 "},"μ":{"ha":838,"x_min":0,"x_max":0,"o":"m 97 750 l 199 750 l 199 367 b 417 78 199 202 260 78 b 639 350 561 78 639 181 l 639 750 l 741 750 l 741 0 l 649 0 l 649 106 b 397 -19 594 22 503 -19 b 188 78 306 -19 234 16 l 188 -333 l 97 -333 "},"ν":{"ha":706,"x_min":0,"x_max":0,"o":"m 28 750 l 131 750 l 353 133 l 573 750 l 678 750 l 406 0 l 300 0 "},"ξ":{"ha":765,"x_min":0,"x_max":0,"o":"m 666 -167 b 444 0 678 -8 613 0 b 56 292 162 0 56 120 b 219 533 56 418 114 502 b 91 760 142 577 91 656 b 409 1021 91 941 243 1021 b 749 828 572 1021 684 942 l 666 766 b 409 923 612 863 538 923 b 199 758 288 923 199 870 b 413 584 199 649 281 590 b 520 583 442 583 510 583 l 520 484 b 406 481 508 484 507 484 b 164 301 263 474 164 439 b 481 96 164 152 281 97 b 622 84 510 95 576 95 b 758 -167 713 63 785 -9 l 666 -167 "},"ο":{"ha":822,"x_min":0,"x_max":0,"o":"m 410 -21 b 56 376 187 -21 56 143 b 410 771 56 612 191 771 b 766 376 635 771 766 608 b 410 -21 766 140 633 -21 m 164 376 b 410 77 164 195 248 77 b 658 376 577 77 658 199 b 410 673 658 556 576 673 b 164 376 242 673 164 551 "},"π":{"ha":908,"x_min":0,"x_max":0,"o":"m 185 656 l 37 656 l 37 750 l 872 750 l 872 656 l 723 656 l 723 0 l 622 0 l 622 656 l 287 656 l 287 0 l 185 0 "},"ρ":{"ha":830,"x_min":0,"x_max":0,"o":"m 97 330 b 102 451 97 380 98 420 b 435 771 122 637 239 771 b 774 377 656 771 774 599 b 442 -21 774 151 651 -21 b 199 102 333 -21 245 28 l 199 -333 l 97 -333 l 97 330 m 199 377 b 431 74 199 201 273 74 b 669 376 589 74 669 202 b 431 676 669 551 592 676 b 199 377 272 676 199 553 "},"ς":{"ha":769,"x_min":0,"x_max":0,"o":"m 595 -167 b 377 0 604 -6 532 -6 b 56 358 119 10 56 201 b 406 771 56 619 185 771 b 723 563 560 771 679 694 l 623 531 b 405 673 587 621 508 673 b 169 374 244 673 169 545 b 403 96 167 260 199 97 b 555 84 436 96 508 97 b 688 -167 649 62 709 -15 l 595 -167 "},"σ":{"ha":840,"x_min":0,"x_max":0,"o":"m 410 -21 b 56 365 194 -21 56 142 b 340 743 56 565 164 712 b 485 750 378 750 431 750 l 808 750 l 808 656 l 655 656 b 766 365 724 591 766 487 b 410 -21 766 142 626 -21 m 164 365 b 410 77 164 192 253 77 b 658 365 573 77 658 195 b 410 652 658 533 573 651 b 164 365 245 653 164 528 "},"τ":{"ha":720,"x_min":0,"x_max":0,"o":"m 472 -6 b 326 88 410 2 358 28 b 301 272 297 142 301 194 l 301 656 l 35 656 l 35 750 l 669 750 l 669 656 l 403 656 l 403 276 b 418 140 403 212 399 176 b 508 84 438 103 469 88 b 633 90 548 80 594 82 l 633 0 b 472 -6 583 -12 517 -13 "},"υ":{"ha":808,"x_min":0,"x_max":0,"o":"m 83 750 l 186 750 l 186 367 b 403 78 186 202 247 78 b 622 367 561 78 622 202 l 622 750 l 724 750 l 724 342 b 403 -19 724 153 647 -19 b 83 342 160 -19 83 153 "},"φ":{"ha":1019,"x_min":0,"x_max":0,"o":"m 453 -15 b 56 374 233 -49 56 99 b 453 765 56 649 233 799 l 453 994 l 547 994 l 547 765 b 944 374 767 799 944 649 b 547 -15 944 99 767 -49 l 547 -312 l 453 -312 l 453 -15 m 161 374 b 453 81 161 146 305 56 l 453 669 b 161 374 303 694 161 602 m 547 81 b 839 374 695 56 839 144 b 547 669 839 603 697 694 l 547 81 "},"χ":{"ha":732,"x_min":0,"x_max":0,"o":"m 307 379 l 20 750 l 142 750 l 367 458 l 589 750 l 711 750 l 424 379 l 718 0 l 595 0 l 367 301 l 137 0 l 14 0 "},"ψ":{"ha":966,"x_min":0,"x_max":0,"o":"m 433 -27 b 104 202 273 -22 149 62 b 83 334 84 258 83 308 l 83 750 l 181 750 l 181 388 b 193 260 181 362 181 308 b 433 68 222 140 320 69 l 433 750 l 533 750 l 533 68 b 774 263 647 69 747 144 b 785 388 785 310 785 363 l 785 750 l 883 750 l 883 334 b 862 203 883 305 881 258 b 533 -27 817 67 696 -22 l 533 -312 l 433 -312 l 433 -27 "},"ω":{"ha":1078,"x_min":0,"x_max":0,"o":"m 336 -22 b 56 338 148 -22 56 131 b 299 771 56 533 133 679 l 363 685 b 164 344 222 602 164 499 b 346 76 164 192 224 76 b 491 326 473 76 491 192 l 491 477 l 588 477 l 588 326 b 733 76 588 193 605 76 b 915 344 858 76 915 196 b 715 685 915 502 854 603 l 778 771 b 1023 337 948 678 1023 529 b 743 -22 1023 128 927 -22 b 539 108 652 -22 574 17 b 336 -22 505 17 426 -22 "},"ί":{"ha":494,"x_min":0,"x_max":0,"o":"m 282 -6 b 136 88 221 2 168 28 b 111 272 108 142 111 194 l 111 750 l 213 750 l 213 276 b 228 140 213 212 210 176 b 319 84 249 103 279 88 b 443 90 358 80 404 82 l 443 0 b 282 -6 394 -12 327 -13 m 204 1083 l 292 1083 l 208 868 l 121 868 "},"ϊ":{"ha":475,"x_min":0,"x_max":0,"o":"m 282 -6 b 136 88 221 2 168 28 b 111 272 108 142 111 194 l 111 750 l 213 750 l 213 276 b 228 140 213 212 210 176 b 319 84 249 103 279 88 b 443 90 358 80 404 82 l 443 0 b 282 -6 394 -12 327 -13 m -26 1008 l 85 1008 l 85 897 l -26 897 m 239 1008 l 350 1008 l 350 897 l 239 897 "},"ΐ":{"ha":540,"x_min":0,"x_max":0,"o":"m 328 -6 b 182 88 267 2 214 28 b 157 272 153 142 157 194 l 157 750 l 259 750 l 259 276 b 274 140 259 212 256 176 b 365 84 294 103 325 88 b 489 90 404 80 450 82 l 489 0 b 328 -6 440 -12 373 -13 m -1 1007 l 103 1007 l 103 896 l -1 896 m 238 1083 l 326 1083 l 242 868 l 155 868 m 358 1007 l 462 1007 l 462 896 l 358 896 "},"ύ":{"ha":808,"x_min":0,"x_max":0,"o":"m 83 750 l 186 750 l 186 367 b 403 78 186 202 247 78 b 622 367 561 78 622 202 l 622 750 l 724 750 l 724 342 b 403 -19 724 153 647 -19 b 83 342 160 -19 83 153 m 424 1083 l 512 1083 l 428 868 l 341 868 "},"ϋ":{"ha":808,"x_min":0,"x_max":0,"o":"m 83 750 l 186 750 l 186 367 b 403 78 186 202 247 78 b 622 367 561 78 622 202 l 622 750 l 724 750 l 724 342 b 403 -19 724 153 647 -19 b 83 342 160 -19 83 153 m 216 1008 l 327 1008 l 327 897 l 216 897 m 481 1008 l 592 1008 l 592 897 l 481 897 "},"ΰ":{"ha":808,"x_min":0,"x_max":0,"o":"m 83 750 l 186 750 l 186 367 b 403 78 186 202 247 78 b 622 367 561 78 622 202 l 622 750 l 724 750 l 724 342 b 403 -19 724 153 647 -19 b 83 342 160 -19 83 153 m 172 1007 l 276 1007 l 276 896 l 172 896 m 412 1083 l 499 1083 l 416 868 l 328 868 m 531 1007 l 635 1007 l 635 896 l 531 896 "},"ό":{"ha":822,"x_min":0,"x_max":0,"o":"m 410 -21 b 56 376 187 -21 56 143 b 410 771 56 612 191 771 b 766 376 635 771 766 608 b 410 -21 766 140 633 -21 m 164 376 b 410 77 164 195 248 77 b 658 376 577 77 658 199 b 410 673 658 556 576 673 b 164 376 242 673 164 551 m 449 1083 l 537 1083 l 453 868 l 366 868 "},"ώ":{"ha":1078,"x_min":0,"x_max":0,"o":"m 336 -22 b 56 338 148 -22 56 131 b 299 771 56 533 133 679 l 363 685 b 164 344 222 602 164 499 b 346 76 164 192 224 76 b 491 326 473 76 491 192 l 491 477 l 588 477 l 588 326 b 733 76 588 193 605 76 b 915 344 858 76 915 196 b 715 685 915 502 854 603 l 778 771 b 1023 337 948 678 1023 529 b 743 -22 1023 128 927 -22 b 539 108 652 -22 574 17 b 336 -22 505 17 426 -22 m 559 1083 l 647 1083 l 563 868 l 476 868 "},"ά":{"ha":846,"x_min":0,"x_max":0,"o":"m 390 -21 b 56 375 177 -21 56 151 b 392 771 56 599 177 771 b 657 606 517 771 611 710 l 657 750 l 749 750 l 749 0 l 657 0 l 657 146 b 390 -21 610 41 514 -21 m 164 376 b 400 74 164 206 242 74 b 634 376 558 74 634 202 b 401 676 634 552 557 676 b 164 376 244 676 164 551 m 451 1083 l 538 1083 l 455 868 l 367 868 "},"έ":{"ha":703,"x_min":0,"x_max":0,"o":"m 336 -21 b 56 210 178 -21 56 67 b 155 392 56 283 88 358 b 75 555 103 431 75 485 b 333 771 75 691 189 771 b 632 644 456 771 557 726 l 567 576 b 341 674 513 633 430 674 b 180 548 253 674 180 633 b 353 431 180 467 249 431 l 440 431 l 440 344 l 351 344 b 160 220 224 344 160 312 b 342 77 160 131 232 77 b 585 219 448 77 530 126 l 667 167 b 336 -21 602 49 488 -21 m 369 1083 l 457 1083 l 374 868 l 286 868 "},"ή":{"ha":825,"x_min":0,"x_max":0,"o":"m 639 383 b 422 672 639 548 578 672 b 199 400 277 672 199 569 l 199 0 l 97 0 l 97 750 l 189 750 l 189 646 b 441 769 244 727 333 769 b 742 413 666 769 742 581 l 742 0 l 639 0 l 639 383 m 468 1083 l 556 1083 l 472 868 l 385 868 "},"₀":{"ha":619,"x_min":0,"x_max":0,"o":"m 309 -16 b 97 201 185 -16 97 73 l 97 420 b 309 638 97 547 185 638 b 522 420 433 638 522 549 l 522 201 b 309 -16 522 73 435 -16 m 176 200 b 309 58 176 119 231 58 b 443 200 386 58 443 117 l 443 422 b 309 563 443 503 387 563 b 176 422 233 563 176 504 l 176 200 "},"₁":{"ha":446,"x_min":0,"x_max":0,"o":"m 201 540 l 83 468 l 83 554 l 201 625 l 279 625 l 279 0 l 201 0 "},"₂":{"ha":556,"x_min":0,"x_max":0,"o":"m 70 69 l 348 320 b 406 436 394 362 406 398 b 281 566 406 509 352 566 b 152 438 206 566 150 505 l 72 438 b 281 639 72 556 160 639 b 486 435 398 639 486 551 b 390 256 486 353 454 313 l 190 74 l 486 74 l 486 0 l 69 0 "},"₃":{"ha":541,"x_min":0,"x_max":0,"o":"m 253 -15 b 56 128 160 -15 82 40 l 130 149 b 253 60 149 90 198 59 b 378 191 330 61 378 115 b 252 322 378 268 328 322 b 187 306 231 322 208 315 l 149 367 l 353 551 l 81 551 l 81 625 l 451 625 l 451 551 l 280 388 b 458 191 388 382 458 301 b 253 -15 458 70 370 -15 "},"₄":{"ha":569,"x_min":0,"x_max":0,"o":"m 358 115 l 69 115 l 69 189 l 276 625 l 364 625 l 158 189 l 358 189 l 358 365 l 435 365 l 435 189 l 500 189 l 500 115 l 435 115 l 435 0 l 358 0 "},"₅":{"ha":556,"x_min":0,"x_max":0,"o":"m 272 -14 b 69 142 175 -14 95 51 l 144 162 b 274 62 159 101 216 62 b 409 196 350 62 409 123 b 274 331 409 272 347 331 b 158 272 219 331 180 305 l 89 298 l 108 625 l 444 625 l 444 552 l 175 552 l 165 361 b 283 402 197 388 239 402 b 487 196 399 402 487 313 b 272 -14 487 81 389 -14 "},"₆":{"ha":615,"x_min":0,"x_max":0,"o":"m 313 -18 b 97 202 192 -18 97 76 l 97 412 b 319 638 97 545 190 638 b 492 556 388 638 451 608 l 433 503 b 319 563 408 540 366 563 b 177 420 235 563 177 497 l 177 334 b 322 399 213 375 265 399 b 527 193 439 399 527 310 b 313 -18 527 76 430 -18 m 177 193 b 313 56 177 118 237 56 b 448 193 388 56 448 117 b 313 328 448 267 388 328 b 177 193 237 328 177 267 "},"₇":{"ha":492,"x_min":0,"x_max":0,"o":"m 340 551 l 56 551 l 56 625 l 423 625 l 423 551 l 199 0 l 115 0 "},"₈":{"ha":578,"x_min":0,"x_max":0,"o":"m 289 -18 b 83 174 169 -18 83 59 b 166 333 83 241 110 297 b 99 465 122 363 99 411 b 289 638 99 572 178 638 b 478 465 400 638 478 572 b 410 333 478 411 456 363 b 495 174 467 298 495 241 b 289 -18 495 59 409 -18 m 165 174 b 289 56 165 98 216 56 b 412 174 362 56 412 98 b 289 294 412 252 363 294 b 165 174 215 294 165 252 m 182 465 b 289 368 182 401 226 368 b 397 465 353 368 397 401 b 289 563 397 530 353 563 b 182 465 226 563 182 530 "},"₉":{"ha":615,"x_min":0,"x_max":0,"o":"m 303 638 b 518 417 424 638 518 544 l 518 208 b 297 -18 518 74 426 -18 b 123 64 227 -18 165 12 l 182 116 b 297 56 208 80 249 56 b 438 199 380 56 438 123 l 438 285 b 294 220 402 244 351 220 b 88 426 176 220 88 310 b 303 638 88 544 185 638 m 167 426 b 303 292 167 352 227 292 b 438 426 378 292 438 352 b 303 563 438 501 378 563 b 167 426 227 563 167 502 "},"⁰":{"ha":619,"x_min":0,"x_max":0,"o":"m 309 359 b 97 576 185 359 97 448 l 97 795 b 309 1013 97 922 185 1013 b 522 795 433 1013 522 924 l 522 576 b 309 359 522 448 435 359 m 176 575 b 309 433 176 494 231 433 b 443 575 386 433 443 492 l 443 797 b 309 938 443 878 387 938 b 176 797 233 938 176 879 l 176 575 "},"¹":{"ha":446,"x_min":0,"x_max":0,"o":"m 201 915 l 83 843 l 83 929 l 201 1000 l 279 1000 l 279 375 l 201 375 "},"²":{"ha":556,"x_min":0,"x_max":0,"o":"m 70 444 l 348 695 b 406 811 394 737 406 773 b 281 941 406 884 352 941 b 152 813 206 941 150 880 l 72 813 b 281 1014 72 931 160 1014 b 486 810 398 1014 486 926 b 390 631 486 728 454 688 l 190 449 l 486 449 l 486 375 l 69 375 "},"³":{"ha":541,"x_min":0,"x_max":0,"o":"m 253 360 b 56 503 160 360 82 415 l 130 524 b 253 435 149 465 198 434 b 378 566 330 436 378 490 b 252 697 378 643 328 697 b 187 681 231 697 208 690 l 149 742 l 353 926 l 81 926 l 81 1000 l 451 1000 l 451 926 l 280 763 b 458 566 388 757 458 676 b 253 360 458 445 370 360 "},"⁴":{"ha":569,"x_min":0,"x_max":0,"o":"m 358 490 l 69 490 l 69 564 l 276 1000 l 364 1000 l 158 564 l 358 564 l 358 740 l 435 740 l 435 564 l 500 564 l 500 490 l 435 490 l 435 375 l 358 375 "},"⁵":{"ha":556,"x_min":0,"x_max":0,"o":"m 272 361 b 69 517 175 361 95 426 l 144 537 b 274 437 159 476 216 437 b 409 571 350 437 409 498 b 274 706 409 647 347 706 b 158 647 219 706 180 680 l 89 673 l 108 1000 l 444 1000 l 444 927 l 175 927 l 165 736 b 283 777 197 763 239 777 b 487 571 399 777 487 688 b 272 361 487 456 389 361 "},"⁶":{"ha":615,"x_min":0,"x_max":0,"o":"m 313 357 b 97 577 192 357 97 451 l 97 787 b 319 1013 97 920 190 1013 b 492 931 388 1013 451 983 l 433 878 b 319 938 408 915 366 938 b 177 795 235 938 177 872 l 177 709 b 322 774 213 750 265 774 b 527 568 439 774 527 685 b 313 357 527 451 430 357 m 177 568 b 313 431 177 493 237 431 b 448 568 388 431 448 492 b 313 703 448 642 388 703 b 177 568 237 703 177 642 "},"⁷":{"ha":492,"x_min":0,"x_max":0,"o":"m 340 926 l 56 926 l 56 1000 l 423 1000 l 423 926 l 199 375 l 115 375 "},"⁸":{"ha":578,"x_min":0,"x_max":0,"o":"m 289 357 b 83 549 169 357 83 434 b 166 708 83 616 110 672 b 99 840 122 738 99 786 b 289 1013 99 947 178 1013 b 478 840 400 1013 478 947 b 410 708 478 786 456 738 b 495 549 467 673 495 616 b 289 357 495 434 409 357 m 165 549 b 289 431 165 473 216 431 b 412 549 362 431 412 473 b 289 669 412 627 363 669 b 165 549 215 669 165 627 m 182 840 b 289 743 182 776 226 743 b 397 840 353 743 397 776 b 289 938 397 905 353 938 b 182 840 226 938 182 905 "},"⁹":{"ha":615,"x_min":0,"x_max":0,"o":"m 303 1013 b 518 792 424 1013 518 919 l 518 583 b 297 357 518 449 426 357 b 123 439 227 357 165 387 l 182 491 b 297 431 208 455 249 431 b 438 574 380 431 438 498 l 438 660 b 294 595 402 619 351 595 b 88 801 176 595 88 685 b 303 1013 88 919 185 1013 m 167 801 b 303 667 167 727 227 667 b 438 801 378 667 438 727 b 303 938 438 876 378 938 b 167 801 227 938 167 877 "},"⁄":{"ha":296,"x_min":0,"x_max":0,"o":"m -251 54 l 478 1003 l 547 949 l -181 0 "},"½":{"ha":1297,"x_min":0,"x_max":0,"o":"m 201 915 l 83 843 l 83 929 l 201 1000 l 279 1000 l 279 375 l 201 375 m 924 1003 l 993 949 l 265 0 l 194 54 m 812 69 l 1090 320 b 1148 436 1135 362 1148 398 b 1022 566 1148 509 1094 566 b 894 438 948 566 892 505 l 814 438 b 1023 639 814 556 902 639 b 1228 435 1140 639 1228 551 b 1132 256 1228 353 1196 313 l 931 74 l 1228 74 l 1228 0 l 811 0 "},"¼":{"ha":1352,"x_min":0,"x_max":0,"o":"m 201 915 l 83 843 l 83 929 l 201 1000 l 279 1000 l 279 375 l 201 375 m 924 1003 l 993 949 l 265 0 l 194 54 m 755 189 l 961 625 l 1049 625 l 843 189 l 1043 189 l 1043 365 l 1121 365 l 1121 189 l 1185 189 l 1185 115 l 1121 115 l 1121 0 l 1043 0 l 1043 115 l 755 115 "},"¾":{"ha":1360,"x_min":0,"x_max":0,"o":"m 253 360 b 56 503 160 360 82 415 l 130 524 b 253 435 149 465 198 434 b 378 566 330 436 378 490 b 252 697 378 643 328 697 b 187 681 231 697 208 690 l 149 742 l 353 926 l 81 926 l 81 1000 l 451 1000 l 451 926 l 280 763 b 458 566 388 757 458 676 b 253 360 458 445 370 360 m 1019 1003 l 1088 949 l 360 0 l 290 54 m 847 189 l 1053 625 l 1141 625 l 935 189 l 1135 189 l 1135 365 l 1213 365 l 1213 189 l 1277 189 l 1277 115 l 1213 115 l 1213 0 l 1135 0 l 1135 115 l 847 115 "},"⁠":{"ha":0,"x_min":0,"x_max":0,"o":""}," ":{"ha":278,"x_min":0,"x_max":0,"o":""},"·":{"ha":833,"x_min":0,"x_max":0,"o":"m 159 363 b 83 438 117 363 83 395 b 159 512 83 480 117 512 b 231 438 198 512 231 480 b 159 363 231 395 198 363 "},";":{"ha":424,"x_min":0,"x_max":0,"o":"m 159 -94 b 216 0 214 -98 219 -52 l 153 0 l 153 147 l 272 147 l 272 -28 b 153 -145 272 -113 225 -159 l 159 -94 m 153 750 l 272 750 l 272 631 l 153 631 "},".":{"ha":352,"x_min":0,"x_max":0,"o":"m 117 119 l 235 119 l 235 0 l 117 0 "},",":{"ha":369,"x_min":0,"x_max":0,"o":"m 90 -94 b 147 0 144 -98 149 -52 l 83 0 l 83 147 l 202 147 l 202 -28 b 83 -145 202 -113 156 -159 l 90 -94 "},":":{"ha":415,"x_min":0,"x_max":0,"o":"m 153 230 l 272 230 l 272 111 l 153 111 m 153 639 l 272 639 l 272 520 l 153 520 "},";":{"ha":424,"x_min":0,"x_max":0,"o":"m 159 -94 b 216 0 214 -98 219 -52 l 153 0 l 153 147 l 272 147 l 272 -28 b 153 -145 272 -113 225 -159 l 159 -94 m 153 750 l 272 750 l 272 631 l 153 631 "},"…":{"ha":878,"x_min":0,"x_max":0,"o":"m 111 119 l 230 119 l 230 0 l 111 0 m 380 119 l 499 119 l 499 0 l 380 0 m 648 119 l 767 119 l 767 0 l 648 0 "},"!":{"ha":435,"x_min":0,"x_max":0,"o":"m 167 115 l 269 115 l 269 0 l 167 0 m 167 1000 l 269 1000 l 269 250 l 167 250 "},"¡":{"ha":435,"x_min":0,"x_max":0,"o":"m 269 750 l 269 635 l 167 635 l 167 750 m 167 500 l 269 500 l 269 -250 l 167 -250 "},"?":{"ha":727,"x_min":0,"x_max":0,"o":"m 293 273 b 326 451 293 345 296 396 b 504 622 367 531 444 558 b 549 752 540 663 549 705 b 514 863 549 799 538 836 b 362 922 477 908 419 922 b 220 873 304 922 252 906 b 175 753 188 843 174 799 l 69 753 b 156 949 73 827 101 901 b 361 1020 210 998 287 1020 b 593 931 452 1020 538 994 b 658 753 637 883 658 822 b 576 555 658 677 627 608 b 423 412 528 503 453 467 b 401 273 398 367 401 333 l 293 273 m 294 136 l 401 136 l 401 0 l 294 0 "},"¿":{"ha":727,"x_min":0,"x_max":0,"o":"m 434 477 b 401 299 434 405 431 354 b 223 128 360 219 283 192 b 178 -2 188 88 178 45 b 213 -113 178 -49 189 -86 b 365 -172 250 -158 308 -172 b 507 -123 423 -172 475 -156 b 552 -3 539 -93 553 -49 l 658 -3 b 572 -199 654 -77 626 -151 b 366 -270 517 -248 440 -270 b 134 -181 275 -270 190 -244 b 69 -3 90 -133 69 -72 b 151 195 69 73 100 142 b 304 338 199 247 274 283 b 326 477 329 383 326 417 l 434 477 m 326 750 l 433 750 l 433 614 l 326 614 "},"·":{"ha":315,"x_min":0,"x_max":0,"o":"m 159 363 b 83 438 117 363 83 395 b 159 512 83 480 117 512 b 231 438 198 512 231 480 b 159 363 231 395 198 363 "},"•":{"ha":908,"x_min":0,"x_max":0,"o":"m 457 276 b 292 438 365 276 292 345 b 457 599 292 530 365 599 b 616 438 543 599 616 530 b 457 276 616 345 543 276 "},"*":{"ha":606,"x_min":0,"x_max":0,"o":"m 103 597 l 213 738 l 42 790 l 71 880 l 240 820 l 235 1000 l 330 1000 l 326 820 l 494 880 l 523 790 l 352 738 l 460 597 l 384 541 l 283 688 l 180 541 "},"#":{"ha":1278,"x_min":0,"x_max":0,"o":"m 366 301 l 83 301 l 109 399 l 392 399 l 451 622 l 169 622 l 195 720 l 478 720 l 553 1000 l 655 1000 l 579 720 l 812 720 l 886 1000 l 988 1000 l 913 720 l 1195 720 l 1169 622 l 887 622 l 826 399 l 1109 399 l 1083 301 l 801 301 l 720 1 l 619 1 l 699 301 l 467 301 l 387 1 l 285 1 m 726 399 l 785 622 l 553 622 l 494 399 "},"/":{"ha":538,"x_min":0,"x_max":0,"o":"m 455 1000 l 188 0 l 83 0 l 350 1000 "},"\\":{"ha":538,"x_min":0,"x_max":0,"o":"m 455 0 l 350 0 l 83 1000 l 188 1000 "},"-":{"ha":583,"x_min":0,"x_max":0,"o":"m 83 481 l 500 481 l 500 394 l 83 394 "},"­":{"ha":583,"x_min":0,"x_max":0,"o":"m 83 481 l 500 481 l 500 394 l 83 394 "},"–":{"ha":750,"x_min":0,"x_max":0,"o":"m 83 481 l 667 481 l 667 394 l 83 394 "},"—":{"ha":1083,"x_min":0,"x_max":0,"o":"m 83 481 l 1000 481 l 1000 394 l 83 394 "},"‑":{"ha":583,"x_min":0,"x_max":0,"o":"m 83 481 l 500 481 l 500 394 l 83 394 "},"_":{"ha":917,"x_min":0,"x_max":0,"o":"m 0 -60 l 917 -60 l 917 -148 l 0 -148 "},"(":{"ha":592,"x_min":0,"x_max":0,"o":"m 456 -249 b 194 458 293 -62 192 201 b 456 1166 192 715 293 978 l 531 1108 b 288 458 369 915 289 690 b 531 -190 289 229 372 -3 l 456 -249 "},")":{"ha":592,"x_min":0,"x_max":0,"o":"m 60 -190 b 303 458 220 -3 303 229 b 60 1108 303 690 222 915 l 135 1166 b 397 458 299 978 399 715 b 135 -249 399 201 299 -62 l 60 -190 "},"{":{"ha":583,"x_min":0,"x_max":0,"o":"m 440 -303 b 274 -138 343 -303 274 -234 l 274 315 b 262 355 274 329 269 343 l 203 438 b 203 493 191 454 191 476 l 262 576 b 274 616 269 588 274 601 l 274 1068 b 440 1233 274 1164 343 1233 l 522 1233 l 522 1135 l 444 1135 b 372 1063 404 1135 372 1103 l 372 616 b 341 519 372 581 362 548 l 303 465 l 341 412 b 372 315 362 383 372 349 l 372 -134 b 444 -205 372 -173 404 -205 l 522 -205 l 522 -303 l 440 -303 "},"}":{"ha":583,"x_min":0,"x_max":0,"o":"m 60 -303 l 60 -205 l 139 -205 b 210 -134 178 -205 210 -173 l 210 315 b 242 412 210 349 221 383 l 280 465 l 242 519 b 210 616 221 548 210 581 l 210 1063 b 139 1135 210 1103 178 1135 l 60 1135 l 60 1233 l 143 1233 b 308 1068 240 1233 308 1164 l 308 616 b 321 576 308 601 313 588 l 380 493 b 380 438 392 476 392 454 l 321 355 b 308 315 313 343 308 329 l 308 -138 b 143 -303 308 -234 240 -303 "},"[":{"ha":565,"x_min":0,"x_max":0,"o":"m 194 1233 l 454 1233 l 454 1139 l 289 1139 l 289 -208 l 454 -208 l 454 -303 l 194 -303 "},"]":{"ha":565,"x_min":0,"x_max":0,"o":"m 111 -303 l 111 -208 l 276 -208 l 276 1139 l 111 1139 l 111 1233 l 371 1233 l 371 -303 "},"‚":{"ha":369,"x_min":0,"x_max":0,"o":"m 90 -94 b 147 0 144 -98 149 -52 l 83 0 l 83 147 l 202 147 l 202 -28 b 83 -145 202 -113 156 -159 l 90 -94 "},"„":{"ha":517,"x_min":0,"x_max":0,"o":"m 117 -94 b 174 0 172 -98 177 -52 l 111 0 l 111 147 l 230 147 l 230 -28 b 111 -145 230 -113 183 -159 l 117 -94 m 294 -94 b 351 0 349 -98 353 -52 l 288 0 l 288 147 l 406 147 l 406 -28 b 288 -145 406 -113 360 -159 "},"“":{"ha":517,"x_min":0,"x_max":0,"o":"m 400 957 b 343 863 345 960 340 915 l 406 863 l 406 716 l 288 716 l 288 890 b 406 1008 288 976 334 1022 l 400 957 m 111 890 b 230 1008 111 976 158 1022 l 224 957 b 167 863 169 960 164 915 l 230 863 l 230 716 l 111 716 "},"”":{"ha":517,"x_min":0,"x_max":0,"o":"m 117 769 b 174 863 172 765 177 811 l 111 863 l 111 1010 l 230 1010 l 230 835 b 111 718 230 750 183 704 l 117 769 m 294 769 b 351 863 349 765 353 811 l 288 863 l 288 1010 l 406 1010 l 406 835 b 288 718 406 750 360 704 "},"‘":{"ha":308,"x_min":0,"x_max":0,"o":"m 210 708 b 92 826 138 694 92 740 l 92 1000 l 210 1000 l 210 853 l 147 853 b 204 759 144 801 149 756 l 210 708 "},"’":{"ha":308,"x_min":0,"x_max":0,"o":"m 103 759 b 160 853 158 756 163 801 l 97 853 l 97 1000 l 216 1000 l 216 826 b 97 708 216 740 169 694 l 103 759 "},"‟":{"ha":517,"x_min":0,"x_max":0,"o":"m 406 718 b 288 835 334 704 288 750 l 288 1010 l 406 1010 l 406 863 l 343 863 b 400 769 340 811 345 765 l 406 718 m 111 1010 l 230 1010 l 230 863 l 167 863 b 224 769 164 811 169 765 l 230 718 b 111 835 158 704 111 750 "},"«":{"ha":744,"x_min":0,"x_max":0,"o":"m 349 376 l 590 677 l 651 629 l 449 376 l 651 122 l 590 74 m 351 677 l 413 629 l 210 376 l 413 122 l 351 74 l 111 376 "},"»":{"ha":744,"x_min":0,"x_max":0,"o":"m 92 122 l 294 376 l 92 629 l 154 677 l 394 376 l 154 74 m 533 376 l 331 629 l 392 677 l 633 376 l 392 74 l 331 122 "},"‹":{"ha":853,"x_min":0,"x_max":0,"o":"m 194 438 l 520 763 l 585 699 l 320 438 l 585 176 l 520 112 "},"›":{"ha":853,"x_min":0,"x_max":0,"o":"m 268 176 l 533 438 l 268 699 l 333 763 l 659 438 l 333 112 "},"\"":{"ha":544,"x_min":0,"x_max":0,"o":"m 83 1000 l 185 1000 l 185 750 l 83 750 m 303 1000 l 406 1000 l 406 750 l 303 750 "},"'":{"ha":297,"x_min":0,"x_max":0,"o":"m 83 1000 l 185 1000 l 185 750 l 83 750 "},"ƒ":{"ha":997,"x_min":0,"x_max":0,"o":"m 223 -21 b 47 20 144 -21 67 11 l 90 108 b 218 77 99 103 159 77 b 397 277 291 77 372 126 l 426 456 l 181 456 l 181 544 l 440 544 l 474 753 b 772 1021 503 930 638 1021 b 951 978 857 1021 933 990 l 903 893 b 776 923 902 894 845 923 b 581 761 714 923 603 899 l 545 544 l 852 544 l 852 456 l 531 456 l 499 262 b 223 -21 462 37 326 -21 "},"ʹ":{"ha":365,"x_min":0,"x_max":0,"o":"m 83 785 l 167 1000 l 254 1000 l 171 785 "},"͵":{"ha":365,"x_min":0,"x_max":0,"o":"m 83 -293 l 167 -78 l 254 -78 l 171 -293 "},"@":{"ha":1255,"x_min":0,"x_max":0,"o":"m 630 -146 b 111 367 334 -146 111 73 b 633 896 111 681 327 896 b 1143 393 984 896 1157 648 b 927 128 1134 217 1058 128 b 767 209 856 128 797 157 b 613 145 730 165 671 145 b 401 361 487 145 401 233 b 615 578 401 494 492 578 b 756 529 663 578 717 563 l 756 558 l 829 558 l 828 333 b 932 217 828 263 858 217 b 1050 385 1006 217 1045 283 b 638 808 1061 666 867 808 b 205 368 360 808 202 606 b 635 -58 208 121 392 -58 b 859 -1 713 -58 797 -37 l 892 -78 b 630 -146 810 -124 720 -146 m 492 362 b 619 234 492 278 541 234 b 742 362 691 234 742 275 b 621 491 742 447 694 491 b 492 362 537 491 492 443 "},"&":{"ha":905,"x_min":0,"x_max":0,"o":"m 419 -21 b 145 78 307 -21 209 10 b 69 274 95 132 72 199 b 135 471 69 344 89 417 b 233 541 161 503 197 526 b 126 755 163 613 126 665 b 274 991 126 858 181 949 b 420 1020 321 1012 372 1020 b 623 956 495 1020 572 1000 b 699 851 658 928 684 890 l 600 822 b 551 885 590 848 573 869 b 422 922 516 912 468 922 b 315 899 383 922 347 915 b 231 756 259 872 231 822 b 285 626 231 699 249 669 b 358 558 306 604 331 581 l 674 264 b 678 338 678 290 678 314 l 678 485 l 774 485 l 774 331 b 759 184 774 258 768 214 l 888 65 l 821 -6 l 710 98 b 583 8 679 58 629 24 b 419 -21 532 -15 476 -21 m 174 278 b 222 151 176 228 191 183 b 420 78 265 99 345 78 b 553 103 472 78 514 82 b 637 169 601 128 622 152 l 312 467 b 214 405 273 455 238 434 b 174 278 187 372 174 326 "},"¶":{"ha":881,"x_min":0,"x_max":0,"o":"m 478 380 l 416 380 b 345 385 401 380 375 381 b 102 690 191 409 102 534 b 345 994 102 845 190 970 b 416 1000 375 999 401 1000 l 580 1000 l 580 -196 l 478 -196 m 678 1000 l 780 1000 l 780 -196 l 678 -196 "},"§":{"ha":729,"x_min":0,"x_max":0,"o":"m 381 -215 b 78 1 242 -215 109 -151 l 183 18 b 385 -122 208 -81 306 -122 b 553 12 473 -122 553 -76 b 331 153 553 96 481 113 b 65 358 170 197 65 238 b 216 535 65 453 132 513 b 88 701 136 569 88 615 b 355 915 88 845 226 915 b 639 696 499 915 623 829 l 535 677 b 348 822 515 784 426 822 b 191 707 263 822 191 777 b 410 574 191 626 287 606 b 682 354 573 531 682 492 b 562 175 682 263 635 199 b 659 15 623 142 659 94 b 381 -215 659 -135 537 -215 m 168 369 b 388 235 168 288 261 269 b 463 214 415 228 440 222 b 576 350 523 231 576 278 b 353 492 576 434 504 451 l 310 504 b 168 369 226 477 168 433 "},"©":{"ha":1116,"x_min":0,"x_max":0,"o":"m 558 -37 b 42 479 273 -37 42 194 b 558 995 42 765 273 995 b 1074 479 843 995 1074 765 b 558 -37 1074 194 843 -37 m 140 480 b 558 63 140 249 326 63 b 974 480 788 63 974 249 b 558 896 974 710 788 896 b 140 480 326 896 140 710 m 300 481 b 363 683 301 553 317 626 b 568 774 413 744 480 774 b 705 738 618 774 661 765 b 801 614 749 710 785 668 l 715 588 b 656 665 703 617 683 645 b 565 692 630 683 597 692 b 434 630 510 692 465 669 b 392 482 402 590 392 533 b 434 331 392 425 406 370 b 565 269 463 290 509 269 b 658 295 600 269 632 278 b 713 368 684 314 701 338 l 801 344 b 713 228 780 291 747 252 b 564 187 671 201 624 187 b 363 277 479 187 413 215 b 300 481 315 338 300 410 "},"®":{"ha":868,"x_min":0,"x_max":0,"o":"m 434 399 b 97 737 248 399 97 550 b 434 1073 97 922 248 1073 b 771 737 620 1073 771 922 b 434 399 771 550 620 399 m 177 737 b 435 478 177 594 292 478 b 692 737 576 478 692 594 b 435 994 692 878 576 994 b 177 737 292 994 177 878 m 321 900 l 462 900 b 569 795 522 900 568 854 b 509 701 569 758 547 719 l 570 577 l 509 577 l 453 690 l 375 690 l 375 577 l 321 577 m 462 741 b 513 795 490 741 513 765 b 462 849 513 828 488 849 l 375 849 l 375 741 "},"™":{"ha":1242,"x_min":0,"x_max":0,"o":"m 628 1000 l 697 1000 l 893 665 l 1089 1000 l 1158 1000 l 1159 479 l 1080 479 l 1080 839 l 920 561 l 866 561 l 707 839 l 707 479 l 628 479 m 83 1000 l 528 1000 l 528 922 l 348 922 l 348 479 l 265 479 l 265 922 l 83 922 "},"°":{"ha":625,"x_min":0,"x_max":0,"o":"m 292 521 b 42 771 154 521 42 632 b 292 1021 42 907 158 1021 b 542 771 429 1021 542 910 b 292 521 542 632 429 521 m 134 771 b 292 613 134 685 206 613 b 449 771 377 613 449 685 b 292 928 449 856 377 928 b 134 771 206 928 134 856 "},"″":{"ha":517,"x_min":0,"x_max":0,"o":"m 117 769 b 174 863 172 765 177 811 l 111 863 l 111 1010 l 230 1010 l 230 835 b 111 718 230 750 183 704 l 117 769 m 294 769 b 351 863 349 765 353 811 l 288 863 l 288 1010 l 406 1010 l 406 835 b 288 718 406 750 360 704 "},"|":{"ha":352,"x_min":0,"x_max":0,"o":"m 125 1000 l 227 1000 l 227 0 l 125 0 "},"¦":{"ha":352,"x_min":0,"x_max":0,"o":"m 125 1000 l 227 1000 l 227 487 l 125 487 m 125 297 l 227 297 l 227 -217 l 125 -217 "},"†":{"ha":750,"x_min":0,"x_max":0,"o":"m 324 663 l 83 663 l 83 750 l 324 750 l 324 1000 l 426 1000 l 426 750 l 667 750 l 667 663 l 426 663 l 426 0 l 324 0 "},"‡":{"ha":569,"x_min":0,"x_max":0,"o":"m 233 326 l 84 326 l 84 414 l 233 414 l 233 617 l 84 617 l 84 705 l 233 705 l 233 1000 l 335 1000 l 335 705 l 485 705 l 485 617 l 335 617 l 335 414 l 485 414 l 485 326 l 335 326 l 335 0 l 233 0 "},"№":{"ha":1537,"x_min":0,"x_max":0,"o":"m 97 1000 l 200 1000 l 751 181 l 751 1000 l 853 1000 l 853 0 l 751 0 l 200 820 l 200 0 l 97 0 m 967 771 b 1217 1021 967 907 1084 1021 b 1467 771 1355 1021 1467 910 b 1217 521 1467 632 1355 521 b 967 771 1080 521 967 632 m 1009 464 l 1426 464 l 1426 376 l 1009 376 m 1060 771 b 1217 613 1060 685 1132 613 b 1375 771 1303 613 1375 685 b 1217 928 1375 856 1303 928 b 1060 771 1132 928 1060 856 "},"₿":{"ha":851,"x_min":0,"x_max":0,"o":"m 231 0 l 97 0 l 97 1000 l 231 1000 l 231 1138 l 322 1138 l 322 1000 l 444 1000 l 444 1138 l 535 1138 l 535 996 b 762 742 673 975 762 869 b 644 531 762 651 717 572 b 810 281 749 485 810 397 b 535 1 810 113 700 8 l 535 -137 l 444 -137 l 444 0 l 322 0 l 322 -137 l 231 -137 m 490 98 b 705 279 612 98 705 165 b 509 477 705 390 622 477 l 200 477 l 200 98 m 483 574 b 656 744 578 574 656 644 b 483 903 656 838 583 903 l 200 903 l 200 574 "},"¢":{"ha":769,"x_min":0,"x_max":0,"o":"m 369 85 b 56 479 167 103 58 261 b 369 872 58 701 169 854 l 369 1000 l 456 1000 l 456 872 b 723 667 584 857 685 783 l 623 635 b 408 777 588 725 506 777 b 164 479 242 777 166 654 b 408 181 166 299 247 181 b 620 319 510 181 583 228 l 723 288 b 456 87 672 170 580 101 l 456 -41 l 369 -41 l 369 85 "},"¤":{"ha":891,"x_min":0,"x_max":0,"o":"m 445 136 b 225 211 363 136 286 164 l 111 97 l 42 167 l 156 281 b 81 501 109 342 81 419 b 155 721 81 583 109 660 l 42 834 l 111 903 l 224 790 b 445 865 285 837 363 865 b 667 790 528 865 606 838 l 780 903 l 849 834 l 736 721 b 810 501 783 660 810 583 b 735 281 810 418 783 342 l 849 167 l 780 97 l 666 211 b 445 136 605 164 528 136 m 173 500 b 445 228 173 353 294 228 b 719 500 597 228 719 353 b 445 773 719 651 592 773 b 173 500 294 773 173 651 "},"$":{"ha":818,"x_min":0,"x_max":0,"o":"m 361 -17 b 47 267 194 4 76 110 l 146 285 b 428 77 176 156 285 77 b 672 269 574 77 672 155 b 508 437 672 354 626 401 l 285 506 b 84 745 153 547 84 630 b 361 1018 84 896 193 1002 l 361 1138 l 463 1138 l 463 1017 b 767 728 625 997 738 890 l 665 709 b 408 923 645 836 543 922 b 186 749 280 924 186 851 b 353 590 186 674 237 626 l 544 533 b 772 272 705 484 772 408 b 463 -19 772 106 651 -6 l 463 -137 l 361 -137 "},"₫":{"ha":823,"x_min":0,"x_max":0,"o":"m 388 163 b 56 466 199 163 56 264 b 384 771 56 669 199 771 b 623 692 494 771 572 742 l 623 869 l 474 869 l 474 956 l 623 956 l 623 1031 l 726 1031 l 726 956 l 822 956 l 822 869 l 726 869 l 726 181 l 634 181 l 634 255 b 388 163 583 197 503 163 m 106 85 l 753 85 l 753 0 l 106 0 m 164 466 b 397 255 164 325 260 255 b 634 466 542 255 634 329 b 397 676 634 605 541 676 b 164 466 257 676 164 608 "},"€":{"ha":901,"x_min":0,"x_max":0,"o":"m 609 -21 b 164 343 369 -21 213 127 l 42 343 l 42 431 l 151 431 b 148 500 149 453 148 476 b 152 567 149 523 150 546 l 42 567 l 42 655 l 166 655 b 609 1021 215 880 367 1021 b 844 962 694 1021 776 1001 l 790 876 b 609 922 736 906 673 922 b 276 655 427 924 316 818 l 670 655 l 670 567 l 261 567 b 258 500 259 546 258 523 b 261 431 258 476 259 453 l 670 431 l 670 343 l 276 343 b 609 77 316 179 427 78 b 791 124 673 76 737 92 l 845 39 b 609 -21 776 -1 694 -21 "},"₣":{"ha":755,"x_min":0,"x_max":0,"o":"m 42 269 l 153 269 l 153 1000 l 727 1000 l 727 898 l 255 898 l 255 551 l 644 551 l 644 449 l 255 449 l 255 269 l 459 269 l 459 182 l 255 182 l 255 0 l 153 0 l 153 182 l 42 182 "},"₴":{"ha":814,"x_min":0,"x_max":0,"o":"m 403 -21 b 195 43 325 -21 247 3 b 92 251 130 90 92 167 b 118 358 92 291 101 326 l 47 358 l 47 445 l 767 445 l 767 358 l 249 358 b 198 247 216 328 198 295 b 249 131 198 198 217 159 b 405 78 294 92 355 78 b 569 155 474 78 528 106 b 616 251 592 180 609 215 l 720 251 b 653 97 713 195 689 140 b 403 -21 595 22 506 -21 m 47 641 l 556 641 b 560 647 558 643 559 644 b 599 747 587 676 599 710 b 547 872 599 801 577 842 b 412 922 515 901 467 922 b 273 863 353 922 306 897 b 219 749 242 833 224 793 l 113 749 b 194 928 118 819 149 883 b 412 1021 248 987 324 1021 b 618 945 491 1021 566 993 b 704 745 671 897 704 826 b 681 641 704 707 697 673 l 767 641 l 767 553 l 47 553 "},"₺":{"ha":847,"x_min":0,"x_max":0,"o":"m 200 437 l 56 372 l 56 477 l 200 542 l 200 689 l 56 624 l 56 730 l 200 794 l 200 1000 l 301 1000 l 301 840 l 522 938 l 522 833 l 301 734 l 301 587 l 522 685 l 522 581 l 301 482 l 301 92 b 438 95 334 80 397 83 b 661 509 615 141 661 309 l 763 509 b 458 -5 763 238 691 55 b 200 0 383 -24 283 -25 "},"₱":{"ha":822,"x_min":0,"x_max":0,"o":"m 35 800 l 118 800 l 118 1000 l 419 1000 b 494 994 434 1000 464 999 b 713 800 608 976 681 903 l 798 800 l 798 727 l 727 727 b 730 676 729 710 730 694 b 727 625 730 659 729 642 l 798 625 l 798 553 l 712 553 b 494 363 681 453 608 381 b 419 358 464 359 434 358 l 220 358 l 220 0 l 118 0 l 118 553 l 35 553 l 35 625 l 118 625 l 118 727 l 35 727 m 416 450 b 483 456 431 450 459 451 b 600 553 539 469 577 506 l 220 553 l 220 450 m 623 625 b 627 676 626 642 627 659 b 623 727 627 693 626 710 l 220 727 l 220 625 m 600 800 b 483 897 577 847 539 884 b 416 902 460 901 430 902 l 220 902 l 220 800 "},"₽":{"ha":931,"x_min":0,"x_max":0,"o":"m 97 478 l 203 478 l 203 1000 l 576 1000 b 647 994 591 1000 617 999 b 890 690 802 969 890 848 b 647 391 890 535 805 417 b 576 385 617 387 591 385 l 306 385 l 306 257 l 634 257 l 634 169 l 306 169 l 306 0 l 203 0 l 203 169 l 97 169 l 97 257 l 203 257 l 203 385 l 97 385 m 573 478 b 635 484 589 478 612 478 b 785 688 735 506 785 591 b 635 897 785 783 738 874 b 573 902 613 901 588 902 l 306 902 l 306 478 "},"₹":{"ha":834,"x_min":0,"x_max":0,"o":"m 763 915 l 583 915 b 665 733 629 868 657 805 l 765 733 l 765 647 l 665 647 b 459 392 652 524 581 428 b 351 380 426 383 394 380 l 244 380 l 674 0 l 527 0 l 97 380 l 97 477 l 351 477 b 413 483 367 477 392 478 b 559 647 500 501 547 570 l 99 647 l 99 733 l 559 733 b 413 897 547 810 499 878 b 351 902 392 901 367 902 l 97 902 l 97 1000 l 763 1000 "},"₪":{"ha":1107,"x_min":0,"x_max":0,"o":"m 83 1000 l 433 1000 b 503 994 452 1000 477 999 b 747 690 659 969 747 846 l 747 273 l 641 273 l 641 690 b 492 897 641 783 594 875 b 430 902 470 901 447 902 l 185 902 l 185 0 l 83 0 m 360 727 l 466 727 l 466 310 b 615 103 466 217 513 125 b 677 98 637 99 660 98 l 922 98 l 922 1000 l 1024 1000 l 1024 0 l 674 0 b 604 6 655 0 630 1 b 360 310 448 31 360 154 "},"£":{"ha":793,"x_min":0,"x_max":0,"o":"m 47 98 l 117 98 b 216 197 172 98 216 143 l 216 458 l 47 458 l 47 556 l 216 556 l 216 760 b 478 1021 216 913 329 1021 b 747 774 609 1021 694 931 l 653 744 b 477 923 615 863 562 923 b 319 756 382 923 319 856 l 319 556 l 572 556 l 572 458 l 319 458 l 319 98 l 710 98 l 710 0 l 47 0 "},"₮":{"ha":828,"x_min":0,"x_max":0,"o":"m 181 271 l 363 352 l 363 498 l 181 417 l 181 523 l 363 604 l 363 902 l 14 902 l 14 1000 l 815 1000 l 815 902 l 465 902 l 465 649 l 647 731 l 647 625 l 465 544 l 465 397 l 647 478 l 647 373 l 465 292 l 465 0 l 363 0 l 363 246 l 181 165 "},"₩":{"ha":1337,"x_min":0,"x_max":0,"o":"m 42 544 l 174 544 l 42 1000 l 148 1000 l 277 544 l 486 544 l 615 999 l 722 1000 l 851 544 l 1060 544 l 1188 1000 l 1295 1000 l 1164 544 l 1295 544 l 1295 456 l 1138 456 l 1007 0 l 904 0 l 773 456 l 564 456 l 433 0 l 331 0 l 199 456 l 42 456 m 382 174 l 461 456 l 302 456 m 748 544 l 668 820 l 589 544 m 956 174 l 1035 456 l 876 456 "},"¥":{"ha":772,"x_min":0,"x_max":0,"o":"m 123 447 l 319 447 l 0 1000 l 118 1000 l 387 535 l 654 1000 l 772 1000 l 454 447 l 651 447 l 651 359 l 438 359 l 438 244 l 651 244 l 651 156 l 438 156 l 438 0 l 335 0 l 335 156 l 123 156 l 123 244 l 335 244 l 335 359 l 123 359 "},"∕":{"ha":538,"x_min":0,"x_max":0,"o":"m 455 1000 l 188 0 l 83 0 l 350 1000 "},"+":{"ha":801,"x_min":0,"x_max":0,"o":"m 357 456 l 83 456 l 83 544 l 357 544 l 357 817 l 444 817 l 444 544 l 717 544 l 717 456 l 444 456 l 444 183 l 357 183 "},"−":{"ha":750,"x_min":0,"x_max":0,"o":"m 83 544 l 667 544 l 667 456 l 83 456 "},"×":{"ha":677,"x_min":0,"x_max":0,"o":"m 339 438 l 145 244 l 83 306 l 277 500 l 83 693 l 145 755 l 339 562 l 532 755 l 594 693 l 401 500 l 594 306 l 532 244 "},"÷":{"ha":750,"x_min":0,"x_max":0,"o":"m 83 544 l 667 544 l 667 456 l 83 456 m 319 371 l 434 371 l 434 256 l 319 256 m 319 747 l 434 747 l 434 633 l 319 633 "},"=":{"ha":1042,"x_min":0,"x_max":0,"o":"m 167 662 l 875 662 l 875 574 l 167 574 m 167 426 l 875 426 l 875 338 l 167 338 "},"≠":{"ha":1042,"x_min":0,"x_max":0,"o":"m 257 264 l 322 338 l 167 338 l 167 426 l 399 426 l 528 574 l 167 574 l 167 662 l 605 662 l 719 792 l 786 737 l 721 662 l 875 662 l 875 574 l 644 574 l 515 426 l 875 426 l 875 338 l 438 338 l 324 208 "},">":{"ha":853,"x_min":0,"x_max":0,"o":"m 268 176 l 533 438 l 268 699 l 333 763 l 659 438 l 333 112 "},"<":{"ha":853,"x_min":0,"x_max":0,"o":"m 194 438 l 520 763 l 585 699 l 320 438 l 585 176 l 520 112 "},"≥":{"ha":1042,"x_min":0,"x_max":0,"o":"m 167 323 l 721 501 l 167 680 l 167 771 l 875 538 l 875 465 l 167 232 m 167 88 l 875 88 l 875 0 l 167 0 "},"≤":{"ha":1042,"x_min":0,"x_max":0,"o":"m 167 465 l 167 538 l 875 771 l 875 680 l 321 501 l 875 323 l 875 232 m 167 88 l 875 88 l 875 0 l 167 0 "},"±":{"ha":833,"x_min":0,"x_max":0,"o":"m 373 484 l 83 484 l 83 572 l 373 572 l 373 750 l 460 750 l 460 572 l 750 572 l 750 484 l 460 484 l 460 306 l 373 306 m 83 197 l 750 197 l 750 109 l 83 109 "},"≈":{"ha":919,"x_min":0,"x_max":0,"o":"m 597 530 b 324 656 481 530 397 656 b 278 547 273 656 262 594 l 185 547 b 320 740 160 655 226 740 b 595 614 435 740 526 614 b 641 723 638 614 659 666 l 734 723 b 597 530 759 619 695 530 m 185 273 b 320 466 160 381 226 466 b 595 340 435 466 524 340 b 641 449 642 340 657 397 l 734 449 b 597 256 759 347 695 256 b 324 382 481 256 397 382 b 278 273 273 382 262 322 l 185 273 "},"~":{"ha":919,"x_min":0,"x_max":0,"o":"m 606 324 b 319 434 496 324 396 434 b 271 340 268 434 255 385 l 169 340 b 312 549 140 456 197 549 b 601 439 424 549 524 439 b 649 536 647 439 665 484 l 751 536 b 606 324 780 420 724 324 "},"¬":{"ha":833,"x_min":0,"x_max":0,"o":"m 663 442 l 83 442 l 83 530 l 750 530 l 750 271 l 663 271 "},"^":{"ha":930,"x_min":0,"x_max":0,"o":"m 472 1022 l 798 697 l 734 631 l 472 897 l 210 631 l 147 696 "},"∞":{"ha":960,"x_min":0,"x_max":0,"o":"m 272 140 b 49 402 122 140 47 265 b 276 662 50 542 131 662 b 481 504 372 662 436 610 b 687 662 527 610 592 662 b 912 403 826 662 912 553 b 687 140 912 258 830 140 b 481 298 591 140 526 190 b 272 140 433 190 367 140 m 143 401 b 278 238 143 317 183 238 b 451 401 347 238 402 281 b 278 564 402 521 347 564 b 143 401 183 564 143 485 m 510 401 b 683 238 559 281 615 238 b 818 401 778 238 818 317 b 683 564 818 485 778 564 b 510 401 615 564 559 521 "},"∅":{"ha":833,"x_min":0,"x_max":0,"o":"m 55 74 l 152 172 b 77 383 105 229 77 303 b 415 719 77 569 228 719 b 626 644 494 719 568 691 l 723 741 l 774 689 l 677 593 b 751 383 723 535 751 463 b 415 46 751 197 600 46 b 203 120 335 46 261 74 l 106 24 m 156 383 b 208 228 156 325 176 271 l 569 588 b 415 640 526 621 473 640 b 156 383 272 640 156 526 m 260 177 b 415 126 303 144 356 126 b 672 383 556 126 672 241 b 621 537 672 441 653 494 l 260 177 "},"∫":{"ha":833,"x_min":0,"x_max":0,"o":"m 103 -164 l 192 -164 b 320 -46 267 -164 311 -129 l 410 806 b 473 966 414 842 419 915 b 644 1021 532 1024 612 1021 l 740 1021 l 731 935 l 642 935 b 513 817 566 935 522 900 l 424 -35 b 360 -195 419 -72 413 -145 b 190 -250 301 -253 222 -250 l 94 -250 "},"∏":{"ha":688,"x_min":0,"x_max":0,"o":"m 83 1000 l 605 1000 l 605 0 l 503 0 l 503 913 l 185 913 l 185 0 l 83 0 "},"∑":{"ha":740,"x_min":0,"x_max":0,"o":"m 83 0 l 558 393 l 83 784 l 84 880 l 656 880 l 656 789 l 213 789 l 656 426 l 656 360 l 213 -3 l 657 -3 l 657 -94 l 83 -94 "},"√":{"ha":793,"x_min":0,"x_max":0,"o":"m 193 419 l 17 419 l 17 499 l 260 499 l 377 128 l 735 1147 l 828 1147 l 426 0 l 326 0 "},"µ":{"ha":838,"x_min":0,"x_max":0,"o":"m 97 750 l 199 750 l 199 367 b 417 78 199 202 260 78 b 639 350 561 78 639 181 l 639 750 l 741 750 l 741 0 l 649 0 l 649 106 b 397 -19 594 22 503 -19 b 188 78 306 -19 234 16 l 188 -333 l 97 -333 "},"∂":{"ha":809,"x_min":0,"x_max":0,"o":"m 405 -21 b 56 349 189 -23 58 127 b 405 720 58 576 192 722 b 649 617 513 722 585 688 b 594 777 643 672 628 726 b 306 945 533 878 434 936 l 320 1031 b 665 831 472 1023 592 957 b 753 352 741 713 753 578 b 405 -21 753 127 622 -23 m 160 350 b 405 74 160 177 247 74 b 649 351 565 74 649 183 b 405 626 649 522 560 628 b 160 350 245 628 160 519 "},"%":{"ha":1252,"x_min":0,"x_max":0,"o":"m 919 -21 b 669 229 781 -21 669 90 b 919 479 669 365 785 479 b 1169 229 1056 479 1169 368 b 919 -21 1169 90 1056 -21 m 83 771 b 333 1021 83 907 200 1021 b 583 771 471 1021 583 910 b 333 521 583 632 471 521 b 83 771 196 521 83 632 m 1058 1000 l 1127 931 l 194 0 l 125 69 m 176 771 b 333 613 176 685 248 613 b 491 771 419 613 491 685 b 333 928 491 856 419 928 b 176 771 248 928 176 856 m 761 229 b 919 72 761 144 833 72 b 1076 229 1004 72 1076 144 b 919 387 1076 315 1004 387 b 761 229 833 387 761 315 "},"‰":{"ha":1831,"x_min":0,"x_max":0,"o":"m 919 -21 b 669 229 781 -21 669 90 b 919 479 669 365 785 479 b 1169 229 1056 479 1169 368 b 919 -21 1169 90 1056 -21 m 83 771 b 333 1021 83 907 200 1021 b 583 771 471 1021 583 910 b 333 521 583 632 471 521 b 83 771 196 521 83 632 m 1058 1000 l 1127 931 l 194 0 l 125 69 m 176 771 b 333 613 176 685 248 613 b 491 771 419 613 491 685 b 333 928 491 856 419 928 b 176 771 248 928 176 856 m 761 229 b 919 72 761 144 833 72 b 1076 229 1004 72 1076 144 b 919 387 1076 315 1004 387 b 761 229 833 387 761 315 m 1247 229 b 1497 479 1247 365 1364 479 b 1747 229 1635 479 1747 368 b 1497 -21 1747 90 1635 -21 b 1247 229 1360 -21 1247 90 m 1340 229 b 1497 72 1340 144 1412 72 b 1655 229 1583 72 1655 144 b 1497 387 1655 315 1583 387 b 1340 229 1412 387 1340 315 "},"↑":{"ha":985,"x_min":0,"x_max":0,"o":"m 449 848 l 222 620 l 167 676 l 492 1001 l 819 676 l 764 620 l 537 848 l 537 0 l 449 0 "},"→":{"ha":1390,"x_min":0,"x_max":0,"o":"m 194 482 l 1042 482 l 815 709 l 870 764 l 1196 438 l 870 112 l 815 167 l 1042 394 l 194 394 "},"↓":{"ha":985,"x_min":0,"x_max":0,"o":"m 537 903 l 537 55 l 764 283 l 819 227 l 492 -99 l 167 227 l 222 283 l 449 55 l 449 903 "},"←":{"ha":1390,"x_min":0,"x_max":0,"o":"m 348 394 l 576 167 l 520 112 l 194 438 l 520 764 l 576 709 l 348 482 l 1196 482 l 1196 394 "},"↵":{"ha":1117,"x_min":0,"x_max":0,"o":"m 194 438 l 520 763 l 576 709 l 348 481 l 946 481 l 946 1000 l 1033 1000 l 1033 394 l 348 394 l 576 166 l 520 112 "},"◊":{"ha":677,"x_min":0,"x_max":0,"o":"m 69 466 l 276 937 l 401 937 l 608 466 l 401 -5 l 276 -5 m 339 81 l 504 466 l 339 851 l 173 466 "},"΄":{"ha":833,"x_min":0,"x_max":0,"o":"m 324 785 l 407 1000 l 494 1000 l 411 785 "},"΅":{"ha":833,"x_min":0,"x_max":0,"o":"m 544 1007 l 649 1007 l 649 896 l 544 896 m 185 1007 l 290 1007 l 290 896 l 185 896 m 425 1083 l 513 1083 l 429 868 l 342 868 "},"¨":{"ha":709,"x_min":0,"x_max":0,"o":"m 431 1258 l 542 1258 l 542 1147 l 431 1147 m 167 1258 l 278 1258 l 278 1147 l 167 1147 "},"˙":{"ha":452,"x_min":0,"x_max":0,"o":"m 167 1278 l 285 1278 l 285 1159 l 167 1159 "},"`":{"ha":680,"x_min":0,"x_max":0,"o":"m 238 1333 l 326 1333 l 409 1118 l 322 1118 "},"´":{"ha":680,"x_min":0,"x_max":0,"o":"m 271 1118 l 354 1333 l 442 1333 l 358 1118 "},"˝":{"ha":737,"x_min":0,"x_max":0,"o":"m 410 1118 l 493 1333 l 581 1333 l 497 1118 m 233 1333 l 320 1333 l 237 1118 l 149 1118 "},"ˆ":{"ha":728,"x_min":0,"x_max":0,"o":"m 316 1306 l 410 1306 l 569 1118 l 465 1118 l 363 1238 l 260 1118 l 156 1118 "},"ˇ":{"ha":717,"x_min":0,"x_max":0,"o":"m 260 1306 l 363 1185 l 465 1306 l 569 1306 l 410 1118 l 316 1118 l 156 1306 "},"˘":{"ha":692,"x_min":0,"x_max":0,"o":"m 346 1089 b 167 1268 247 1089 167 1169 l 251 1268 b 346 1174 251 1216 294 1174 b 440 1268 399 1174 440 1216 l 525 1268 b 346 1089 525 1169 445 1089 "},"˚":{"ha":669,"x_min":0,"x_max":0,"o":"m 335 1081 b 183 1233 251 1081 183 1149 b 335 1385 183 1317 251 1385 b 487 1233 419 1385 487 1317 b 335 1081 487 1149 419 1081 m 258 1233 b 335 1157 258 1192 293 1157 b 411 1233 378 1157 411 1192 b 335 1310 411 1276 378 1310 b 258 1233 293 1310 258 1276 "},"˜":{"ha":750,"x_min":0,"x_max":0,"o":"m 479 1119 b 275 1198 401 1119 330 1198 b 241 1131 239 1198 230 1163 l 169 1131 b 270 1280 148 1214 188 1280 b 475 1201 349 1280 420 1201 b 509 1270 508 1201 521 1233 l 581 1270 b 479 1119 602 1188 563 1119 "},"¯":{"ha":681,"x_min":0,"x_max":0,"o":"m 167 1253 l 515 1253 l 515 1167 l 167 1167 "},"¸":{"ha":551,"x_min":0,"x_max":0,"o":"m 255 -333 b 167 -312 222 -333 192 -324 l 193 -241 b 247 -253 213 -249 232 -253 b 303 -199 283 -253 303 -226 b 211 -128 303 -156 258 -143 l 263 15 l 338 15 l 303 -83 b 387 -202 352 -105 387 -142 b 255 -333 387 -277 326 -333 "},"˛":{"ha":585,"x_min":0,"x_max":0,"o":"m 299 -335 b 166 -199 225 -335 166 -271 b 358 61 166 -109 251 -8 l 413 0 b 255 -194 328 -51 255 -134 b 308 -252 255 -228 280 -252 b 372 -218 329 -252 352 -238 l 417 -273 b 299 -335 385 -314 342 -335 "},"ʼ":{"ha":308,"x_min":0,"x_max":0,"o":"m 103 759 b 160 853 158 756 163 801 l 97 853 l 97 1000 l 216 1000 l 216 826 b 97 708 216 740 169 694 l 103 759 "},"":{"ha":1255,"x_min":0,"x_max":0,"o":"m 627 -37 b 111 479 342 -37 111 194 b 627 995 111 765 342 995 b 1144 479 913 995 1144 765 b 627 -37 1144 194 913 -37 m 210 480 b 627 63 210 249 396 63 b 1043 480 857 63 1043 249 b 627 896 1043 710 857 896 b 210 480 396 896 210 710 m 369 481 b 433 683 370 553 387 626 b 638 774 482 744 549 774 b 774 738 688 774 731 765 b 870 614 819 710 855 668 l 785 588 b 726 665 773 617 752 645 b 634 692 699 683 667 692 b 503 630 580 692 534 669 b 462 482 472 590 462 533 b 503 331 462 425 475 370 b 634 269 533 290 578 269 b 727 295 669 269 701 278 b 783 368 753 314 770 338 l 870 344 b 782 228 849 291 816 252 b 633 187 740 201 694 187 b 433 277 549 187 483 215 b 369 481 384 338 369 410 "},"":{"ha":1621,"x_min":0,"x_max":0,"o":"m 810 -21 b 747 6 787 -21 763 -12 l 463 305 b 643 771 302 478 420 771 b 810 708 699 771 755 751 b 977 771 866 752 924 771 b 1157 305 1203 771 1317 475 l 874 6 b 810 -21 858 -12 834 -21 m 810 67 l 1094 365 b 977 683 1203 481 1122 683 b 810 593 924 683 866 654 b 643 683 751 654 696 683 b 527 365 495 683 421 477 "},"":{"ha":1597,"x_min":0,"x_max":0,"o":"m 976 500 l 709 278 l 709 722 m 111 500 b 799 -187 111 120 419 -187 b 1486 500 1178 -187 1486 120 b 799 1188 1486 880 1178 1188 b 111 500 419 1188 111 880 m 210 502 b 801 1088 210 826 473 1088 b 1387 502 1124 1088 1387 826 b 801 -88 1387 174 1124 -88 b 210 502 473 -88 210 174 "},"":{"ha":920,"x_min":0,"x_max":0,"o":"m 172 806 b 218 966 172 863 177 922 b 383 1021 263 1015 325 1021 l 478 1021 l 478 935 l 390 935 b 274 817 312 935 274 898 l 274 750 l 599 750 l 599 806 b 646 966 599 863 605 922 b 810 1021 691 1015 753 1021 l 906 1021 l 906 935 l 817 935 b 701 817 740 935 701 898 l 701 750 l 906 750 l 906 663 l 701 663 l 701 0 l 599 0 l 599 663 l 274 663 l 274 0 l 172 0 l 172 663 l 42 663 l 42 750 l 172 750 l 172 806 "},"":{"ha":1295,"x_min":0,"x_max":0,"o":"m 701 0 l 599 0 l 599 663 l 274 663 l 274 0 l 172 0 l 172 663 l 42 663 l 42 750 l 172 750 l 172 806 b 218 966 172 863 177 922 b 383 1021 263 1015 325 1021 l 478 1021 l 478 935 l 390 935 b 274 817 312 935 274 898 l 274 750 l 599 750 l 599 806 b 646 966 599 863 605 922 b 810 1021 691 1015 753 1021 l 906 1021 l 906 935 l 817 935 b 701 817 740 935 701 898 l 701 750 l 1082 750 l 1082 1000 l 1184 1000 l 1184 0 l 1082 0 l 1082 663 l 701 663 "},"":{"ha":1030,"x_min":0,"x_max":0,"o":"m 506 0 b 198 90 378 -26 247 -10 b 174 272 171 144 174 198 l 174 663 l 14 663 l 14 750 l 174 750 l 174 958 l 276 958 l 276 750 l 647 750 l 647 958 l 749 958 l 749 750 l 978 750 l 978 663 l 749 663 l 749 276 b 764 141 749 213 746 173 b 978 90 797 78 871 72 l 978 0 b 671 90 851 -26 720 -10 b 647 272 644 144 647 198 l 647 663 l 276 663 l 276 276 b 291 141 276 213 273 173 b 506 90 324 78 398 72 l 506 0 "}}}
